M48
; DRILL file {KiCad (5.1.9)-1} date 06/30/21 11:05:24
; FORMAT={-:-/ absolute / inch / decimal}
; #@! TF.CreationDate,2021-06-30T11:05:24-04:00
; #@! TF.GenerationSoftware,Kicad,Pcbnew,(5.1.9)-1
; #@! TF.FileFunction,Plated,1,2,PTH
FMAT,2
INCH
T1C0.0160
T2C0.0354
T3C0.0394
T4C0.0450
T5C0.0472
T6C0.0591
T7C0.1732
%
G90
G05
T1
X2.685Y-5.16
X2.71Y-3.48
X2.71Y-3.05
X2.711Y-3.211
X2.765Y-3.64
X2.77Y-3.0
X2.798Y-3.575
X2.798Y-3.485
X2.8039Y-2.9739
X2.809Y-3.1282
X2.84Y-3.575
X2.84Y-3.485
X2.841Y-3.081
X2.882Y-3.485
X3.085Y-2.69
X3.13Y-2.84
X3.1333Y-2.7888
X3.135Y-2.635
X3.1699Y-2.765
X3.17Y-2.575
X3.23Y-4.565
X3.2598Y-4.5351
X3.275Y-3.085
X3.275Y-3.48
X3.275Y-3.567
X3.275Y-5.015
X3.2755Y-2.9345
X3.28Y-5.065
X3.295Y-4.505
X3.3055Y-4.6305
X3.38Y-5.0879
X3.39Y-3.89
X3.405Y-3.595
X3.414Y-3.81
X3.4165Y-5.0635
X3.424Y-5.48
X3.4255Y-3.0845
X3.427Y-3.188
X3.429Y-4.61
X3.436Y-4.715
X3.4554Y-5.0478
X3.48Y-5.51
X3.4891Y-4.9368
X3.525Y-5.53
X3.61Y-3.455
X3.61Y-3.525
X3.615Y-3.69
X3.685Y-3.675
X3.745Y-4.28
X3.7931Y-4.0431
X3.8319Y-4.0919
X3.835Y-4.991
X3.84Y-3.945
X3.845Y-5.485
X3.875Y-4.844
X3.88Y-4.0
X3.895Y-2.974
X3.895Y-3.016
X3.9Y-4.96
X3.905Y-2.85
X3.91Y-3.83
X3.91Y-4.23
X3.92Y-4.79
X3.9455Y-4.874
X3.975Y-2.85
X3.9762Y-5.478
X3.98Y-3.83
X3.99Y-4.79
X3.995Y-2.93
X4.05Y-4.23
X4.205Y-5.485
X4.275Y-5.475
X4.89Y-5.605
X4.96Y-5.575
X5.07Y-2.93
X5.07Y-3.976
X5.115Y-4.874
X5.13Y-5.465
X5.135Y-4.485
X5.15Y-2.89
X5.16Y-3.845
X5.1611Y-4.794
X5.166Y-4.946
X5.17Y-3.53
X5.17Y-3.96
X5.175Y-2.57
X5.1834Y-3.0034
X5.205Y-4.795
X5.2075Y-3.8425
X5.22Y-2.8925
X5.2325Y-5.4625
X5.235Y-4.485
X5.25Y-3.004
X5.255Y-2.57
X5.26Y-3.53
X5.795Y-5.61
X5.87Y-5.6
X6.0Y-2.7763
X6.02Y-4.86
X6.0355Y-2.9495
X6.04Y-3.005
X6.05Y-3.915
X6.12Y-2.725
X6.13Y-5.46
X6.145Y-5.045
X6.16Y-3.125
X6.175Y-4.09
X6.21Y-2.645
X6.26Y-4.48
X6.275Y-3.515
X6.285Y-3.585
X6.29Y-3.685
X6.29Y-4.52
X6.29Y-4.655
X6.2963Y-2.9101
X6.2963Y-2.9101
X6.2981Y-4.8383
X6.299Y-3.889
X6.32Y-3.76
X6.32Y-3.815
X6.325Y-2.815
X6.325Y-2.855
X6.335Y-4.725
X6.335Y-4.78
X6.355Y-3.135
X6.355Y-4.09
X6.3714Y-2.9764
X6.3742Y-3.941
X6.38Y-4.8968
X6.4Y-4.125
X6.4Y-5.06
X6.41Y-3.155
T2
X2.92Y-5.3
X2.92Y-5.5
T3
X2.63Y-3.09
X2.63Y-3.19
X2.63Y-3.29
X2.63Y-3.39
X2.63Y-3.49
X2.63Y-3.59
X2.63Y-3.69
X2.63Y-3.79
X2.63Y-3.89
X2.63Y-3.99
X2.63Y-4.09
X2.63Y-4.19
X2.63Y-4.29
X2.63Y-4.39
X2.63Y-4.49
X2.63Y-4.59
X2.63Y-4.69
X2.63Y-4.79
X3.53Y-3.09
X3.53Y-3.19
X3.53Y-3.29
X3.53Y-3.39
X3.53Y-3.49
X3.53Y-3.59
X3.53Y-3.69
X3.53Y-3.79
X3.53Y-3.89
X3.53Y-3.99
X3.53Y-4.09
X3.53Y-4.19
X3.53Y-4.29
X3.53Y-4.39
X3.53Y-4.49
X3.53Y-4.59
X3.53Y-4.69
X3.53Y-4.79
T4
X2.6Y-2.35
X2.6Y-2.45
X2.6Y-2.55
X2.6Y-2.65
X2.6Y-2.75
X2.6Y-2.85
X2.98Y-5.84
X3.0Y-2.07
X3.1Y-2.07
X3.2Y-2.07
X3.3Y-2.07
X3.4Y-2.07
X3.5Y-2.07
X3.73Y-5.84
X6.37Y-2.385
X6.37Y-2.49
X6.37Y-3.355
X6.37Y-3.46
X6.37Y-4.32
X6.37Y-4.425
X6.37Y-5.27
X6.37Y-5.375
T5
X3.96Y-2.1308
X3.96Y-2.43
X3.96Y-3.0908
X3.96Y-3.39
X3.96Y-4.0508
X3.96Y-4.35
X3.96Y-5.0108
X3.96Y-5.31
X5.13Y-2.1308
X5.13Y-2.43
X5.13Y-3.0908
X5.13Y-3.39
X5.13Y-4.0508
X5.13Y-4.35
X5.13Y-5.0108
X5.13Y-5.31
T6
X4.6096Y-2.1308
X4.6096Y-3.0908
X4.6096Y-4.0508
X4.6096Y-5.0108
X4.7474Y-2.43
X4.7474Y-3.39
X4.7474Y-4.35
X4.7474Y-5.31
X4.8852Y-2.1308
X4.8852Y-3.0908
X4.8852Y-4.0508
X4.8852Y-5.0108
X5.7796Y-2.1308
X5.7796Y-3.0908
X5.7796Y-4.0508
X5.7796Y-5.0108
X5.9174Y-2.43
X5.9174Y-3.39
X5.9174Y-4.35
X5.9174Y-5.31
X6.0552Y-2.1308
X6.0552Y-3.0908
X6.0552Y-4.0508
X6.0552Y-5.0108
T7
X3.21Y-5.76
X3.4954Y-5.76
T0
M30
