%TF.GenerationSoftware,KiCad,Pcbnew,(5.1.9)-1*%
%TF.CreationDate,2021-06-30T11:05:27-04:00*%
%TF.ProjectId,charging_board_relay,63686172-6769-46e6-975f-626f6172645f,rev?*%
%TF.SameCoordinates,Original*%
%TF.FileFunction,Legend,Bot*%
%TF.FilePolarity,Positive*%
%FSLAX46Y46*%
G04 Gerber Fmt 4.6, Leading zero omitted, Abs format (unit mm)*
G04 Created by KiCad (PCBNEW (5.1.9)-1) date 2021-06-30 11:05:27*
%MOMM*%
%LPD*%
G01*
G04 APERTURE LIST*
%ADD10C,0.010000*%
G04 APERTURE END LIST*
D10*
%TO.C,G\u002A\u002A\u002A*%
G36*
X110243966Y-116857305D02*
G01*
X110221118Y-116877916D01*
X109836350Y-117381987D01*
X109723948Y-117746195D01*
X109682779Y-118025737D01*
X109501771Y-117830045D01*
X109463417Y-117771334D01*
X109269105Y-117559763D01*
X109205516Y-117821181D01*
X109202885Y-117954156D01*
X109307744Y-118487699D01*
X109463417Y-118697375D01*
X109683427Y-119069484D01*
X109728000Y-119390063D01*
X109836788Y-119750599D01*
X110014437Y-119742202D01*
X110107473Y-119817454D01*
X109961895Y-120233168D01*
X109918448Y-120321900D01*
X109684141Y-120948948D01*
X109652597Y-121405114D01*
X109654059Y-121409354D01*
X109551524Y-121692777D01*
X109353173Y-121740084D01*
X108987282Y-121884668D01*
X108934250Y-122021098D01*
X109031211Y-122595071D01*
X109275230Y-123403913D01*
X109596011Y-124259669D01*
X109923259Y-124974384D01*
X110181529Y-125356053D01*
X110609530Y-125518804D01*
X111416016Y-125682351D01*
X112451102Y-125818464D01*
X112817496Y-125852565D01*
X115072416Y-126040399D01*
X114920364Y-126800658D01*
X114830753Y-127403922D01*
X114904206Y-127503897D01*
X115141185Y-127100678D01*
X115249960Y-126869056D01*
X115439710Y-126155337D01*
X115427164Y-125612285D01*
X115375444Y-125300612D01*
X115441032Y-125378104D01*
X115716816Y-125702063D01*
X115957027Y-125561570D01*
X116075917Y-125018955D01*
X116078000Y-124915083D01*
X116168888Y-124351448D01*
X116376441Y-124107646D01*
X116602989Y-124271077D01*
X116655417Y-124398376D01*
X116719608Y-124338582D01*
X116776083Y-123869117D01*
X116794566Y-123538480D01*
X116763001Y-122646622D01*
X116626029Y-121862373D01*
X116580072Y-121722694D01*
X116380122Y-120995049D01*
X116235997Y-120111367D01*
X116225230Y-120002902D01*
X116166419Y-119358834D01*
X116078000Y-119358834D01*
X115981193Y-119576616D01*
X115901611Y-119535222D01*
X115869945Y-119221224D01*
X115901611Y-119182445D01*
X116058905Y-119218764D01*
X116078000Y-119358834D01*
X116166419Y-119358834D01*
X116158633Y-119273574D01*
X116111082Y-118773577D01*
X116104843Y-118712951D01*
X115958779Y-118699549D01*
X115702757Y-118977119D01*
X115352593Y-119301044D01*
X115140745Y-119303523D01*
X114861245Y-119345043D01*
X114462280Y-119700814D01*
X113970586Y-120284875D01*
X113802809Y-119689563D01*
X113608401Y-119227893D01*
X113461475Y-119094250D01*
X113235376Y-118884862D01*
X112898357Y-118367878D01*
X112824256Y-118234354D01*
X112264453Y-117498401D01*
X111555887Y-116913779D01*
X111537415Y-116903054D01*
X110962761Y-116609284D01*
X110607312Y-116595480D01*
X110243966Y-116857305D01*
G37*
X110243966Y-116857305D02*
X110221118Y-116877916D01*
X109836350Y-117381987D01*
X109723948Y-117746195D01*
X109682779Y-118025737D01*
X109501771Y-117830045D01*
X109463417Y-117771334D01*
X109269105Y-117559763D01*
X109205516Y-117821181D01*
X109202885Y-117954156D01*
X109307744Y-118487699D01*
X109463417Y-118697375D01*
X109683427Y-119069484D01*
X109728000Y-119390063D01*
X109836788Y-119750599D01*
X110014437Y-119742202D01*
X110107473Y-119817454D01*
X109961895Y-120233168D01*
X109918448Y-120321900D01*
X109684141Y-120948948D01*
X109652597Y-121405114D01*
X109654059Y-121409354D01*
X109551524Y-121692777D01*
X109353173Y-121740084D01*
X108987282Y-121884668D01*
X108934250Y-122021098D01*
X109031211Y-122595071D01*
X109275230Y-123403913D01*
X109596011Y-124259669D01*
X109923259Y-124974384D01*
X110181529Y-125356053D01*
X110609530Y-125518804D01*
X111416016Y-125682351D01*
X112451102Y-125818464D01*
X112817496Y-125852565D01*
X115072416Y-126040399D01*
X114920364Y-126800658D01*
X114830753Y-127403922D01*
X114904206Y-127503897D01*
X115141185Y-127100678D01*
X115249960Y-126869056D01*
X115439710Y-126155337D01*
X115427164Y-125612285D01*
X115375444Y-125300612D01*
X115441032Y-125378104D01*
X115716816Y-125702063D01*
X115957027Y-125561570D01*
X116075917Y-125018955D01*
X116078000Y-124915083D01*
X116168888Y-124351448D01*
X116376441Y-124107646D01*
X116602989Y-124271077D01*
X116655417Y-124398376D01*
X116719608Y-124338582D01*
X116776083Y-123869117D01*
X116794566Y-123538480D01*
X116763001Y-122646622D01*
X116626029Y-121862373D01*
X116580072Y-121722694D01*
X116380122Y-120995049D01*
X116235997Y-120111367D01*
X116225230Y-120002902D01*
X116166419Y-119358834D01*
X116078000Y-119358834D01*
X115981193Y-119576616D01*
X115901611Y-119535222D01*
X115869945Y-119221224D01*
X115901611Y-119182445D01*
X116058905Y-119218764D01*
X116078000Y-119358834D01*
X116166419Y-119358834D01*
X116158633Y-119273574D01*
X116111082Y-118773577D01*
X116104843Y-118712951D01*
X115958779Y-118699549D01*
X115702757Y-118977119D01*
X115352593Y-119301044D01*
X115140745Y-119303523D01*
X114861245Y-119345043D01*
X114462280Y-119700814D01*
X113970586Y-120284875D01*
X113802809Y-119689563D01*
X113608401Y-119227893D01*
X113461475Y-119094250D01*
X113235376Y-118884862D01*
X112898357Y-118367878D01*
X112824256Y-118234354D01*
X112264453Y-117498401D01*
X111555887Y-116913779D01*
X111537415Y-116903054D01*
X110962761Y-116609284D01*
X110607312Y-116595480D01*
X110243966Y-116857305D01*
G36*
X121937574Y-73503683D02*
G01*
X120849982Y-74368820D01*
X120337266Y-74871511D01*
X118856125Y-76391421D01*
X115796349Y-76323696D01*
X114510518Y-76275009D01*
X113363787Y-76194782D01*
X112492810Y-76094792D01*
X112070096Y-76002578D01*
X111464958Y-75877300D01*
X111095634Y-75939530D01*
X110631107Y-76055852D01*
X109940306Y-76071191D01*
X109927898Y-76070354D01*
X109251849Y-76088451D01*
X108809497Y-76214523D01*
X108802762Y-76219603D01*
X108331457Y-76363613D01*
X108075405Y-76353628D01*
X107605621Y-76407435D01*
X107464477Y-76519899D01*
X107117265Y-76745863D01*
X106555729Y-76586662D01*
X105841990Y-76099459D01*
X105230083Y-76099459D01*
X105097791Y-76231750D01*
X104965500Y-76099459D01*
X105097791Y-75967167D01*
X105230083Y-76099459D01*
X105841990Y-76099459D01*
X105734159Y-76025853D01*
X105453554Y-75796513D01*
X104154075Y-74858981D01*
X102987452Y-74321871D01*
X102014055Y-74211206D01*
X101848290Y-74242432D01*
X101492697Y-74361436D01*
X101310568Y-74578802D01*
X101265576Y-75027225D01*
X101321397Y-75839403D01*
X101344017Y-76084541D01*
X101489757Y-77139941D01*
X101703222Y-78120514D01*
X101875103Y-78649920D01*
X102249658Y-79539042D01*
X102174701Y-78282271D01*
X102176633Y-77550882D01*
X102265545Y-77097736D01*
X102341997Y-77025500D01*
X102559390Y-76811974D01*
X102584250Y-76644240D01*
X102743534Y-76195064D01*
X102845803Y-76101332D01*
X103001596Y-76141623D01*
X102966708Y-76306203D01*
X103036924Y-76622642D01*
X103238156Y-76672722D01*
X103528334Y-76509641D01*
X103493597Y-76179152D01*
X103462878Y-75928442D01*
X103679700Y-76045660D01*
X104018930Y-76367567D01*
X104470602Y-76886908D01*
X104695352Y-77277947D01*
X104700916Y-77317725D01*
X104863722Y-77464526D01*
X104965500Y-77422375D01*
X105196825Y-77476371D01*
X105230083Y-77640485D01*
X105451893Y-78008666D01*
X105759250Y-78160496D01*
X106189638Y-78456676D01*
X106288417Y-78736137D01*
X106174572Y-79034773D01*
X106043660Y-79022129D01*
X105632333Y-78992477D01*
X105183764Y-79109893D01*
X103804444Y-79664771D01*
X102893798Y-80077687D01*
X102415926Y-80366132D01*
X102319666Y-80505267D01*
X102489349Y-80716887D01*
X102823156Y-80631906D01*
X102981125Y-80465084D01*
X103355867Y-80239536D01*
X103636149Y-80200500D01*
X104097551Y-80060641D01*
X104227874Y-79899837D01*
X104530209Y-79714811D01*
X105159219Y-79625095D01*
X105374401Y-79623801D01*
X106488784Y-79690626D01*
X107197114Y-79814873D01*
X107470919Y-79974550D01*
X107281727Y-80147664D01*
X106601065Y-80312223D01*
X106319303Y-80353668D01*
X105555746Y-80495390D01*
X105064805Y-80664157D01*
X104965500Y-80763753D01*
X104733988Y-80921781D01*
X104170152Y-80997350D01*
X104105604Y-80998302D01*
X103195729Y-81102637D01*
X102719425Y-81442266D01*
X102612335Y-82073358D01*
X102635438Y-82281396D01*
X102648323Y-82872408D01*
X102514537Y-83177767D01*
X102506200Y-83181031D01*
X102330757Y-83472455D01*
X102200982Y-84095710D01*
X102179895Y-84311968D01*
X102125124Y-85019825D01*
X102084942Y-85477012D01*
X102078882Y-85529630D01*
X101836019Y-85713396D01*
X101393625Y-85865400D01*
X100897058Y-86119224D01*
X100732166Y-86410102D01*
X100529283Y-86870914D01*
X100373917Y-87000374D01*
X99850068Y-87565719D01*
X99571046Y-88354012D01*
X99573243Y-88799459D01*
X99524783Y-89409984D01*
X99267174Y-90317502D01*
X98852227Y-91358660D01*
X98588339Y-91904723D01*
X98382896Y-92540106D01*
X98386580Y-93106947D01*
X98589415Y-93415248D01*
X98668416Y-93429667D01*
X98852493Y-93507762D01*
X98668416Y-93747167D01*
X98368227Y-94271711D01*
X98554661Y-94681571D01*
X98880083Y-94829246D01*
X99239148Y-95033028D01*
X99393898Y-95488544D01*
X99403889Y-96210564D01*
X99509709Y-96515814D01*
X99773355Y-97070330D01*
X99790212Y-97103061D01*
X100013946Y-97670011D01*
X100024463Y-98016251D01*
X100016059Y-98026330D01*
X100120488Y-98143181D01*
X100601999Y-98196058D01*
X100621923Y-98196218D01*
X101108081Y-98235024D01*
X101118774Y-98367062D01*
X100996750Y-98456750D01*
X100781476Y-98670690D01*
X100930604Y-98717282D01*
X101238105Y-98888478D01*
X101261333Y-98985917D01*
X101057526Y-99239796D01*
X100977851Y-99250500D01*
X100578169Y-99395037D01*
X100218693Y-99719417D01*
X100037799Y-100059796D01*
X100139216Y-100243475D01*
X100445575Y-100567704D01*
X100467583Y-100699450D01*
X100685456Y-101074194D01*
X101154625Y-101280285D01*
X101549793Y-101220119D01*
X101697752Y-100970292D01*
X101525916Y-100970292D01*
X101393625Y-101102583D01*
X101261333Y-100970292D01*
X101393625Y-100838000D01*
X101525916Y-100970292D01*
X101697752Y-100970292D01*
X101765413Y-100856048D01*
X101798914Y-100623948D01*
X101959357Y-100064776D01*
X102195789Y-99662951D01*
X102517036Y-99366245D01*
X102637640Y-99554545D01*
X102603905Y-99880843D01*
X102756489Y-99863872D01*
X103194120Y-99566959D01*
X103564760Y-99269187D01*
X104094129Y-98853625D01*
X103378000Y-98853625D01*
X103245708Y-98985917D01*
X103113416Y-98853625D01*
X103245708Y-98721333D01*
X103378000Y-98853625D01*
X104094129Y-98853625D01*
X104443142Y-98579645D01*
X104947757Y-98218993D01*
X103038463Y-98218993D01*
X102982949Y-98484111D01*
X102964114Y-98534307D01*
X102754513Y-98858300D01*
X102635348Y-98860626D01*
X102665027Y-98580735D01*
X102816002Y-98386195D01*
X103038463Y-98218993D01*
X104947757Y-98218993D01*
X105508578Y-97818171D01*
X105542789Y-97795292D01*
X104171750Y-97795292D01*
X104039458Y-97927583D01*
X103907166Y-97795292D01*
X104039458Y-97663000D01*
X104171750Y-97795292D01*
X105542789Y-97795292D01*
X106661070Y-97047435D01*
X107800617Y-96330110D01*
X108827221Y-95728868D01*
X109640880Y-95306382D01*
X110141595Y-95125325D01*
X110180718Y-95122806D01*
X110580107Y-95160954D01*
X110556618Y-95350828D01*
X110313010Y-95641529D01*
X110017447Y-95996192D01*
X110115590Y-96011792D01*
X110455604Y-95840107D01*
X110883360Y-95646472D01*
X110997561Y-95690665D01*
X110777994Y-96000735D01*
X110204446Y-96604731D01*
X109256706Y-97530701D01*
X109193836Y-97591035D01*
X108412408Y-98384405D01*
X107821107Y-99069747D01*
X107497615Y-99552104D01*
X107464523Y-99704947D01*
X107412084Y-99966719D01*
X107286796Y-99974930D01*
X106988264Y-100138322D01*
X106874008Y-100406314D01*
X106878997Y-100744574D01*
X107118226Y-100683423D01*
X107736315Y-100452510D01*
X108232210Y-100514609D01*
X108428742Y-100816071D01*
X108501673Y-100840813D01*
X108662206Y-100444875D01*
X108782830Y-100044250D01*
X109398835Y-98342396D01*
X110167910Y-97102354D01*
X110496284Y-96760005D01*
X110999186Y-96414665D01*
X111217353Y-96472855D01*
X111104631Y-96865775D01*
X110834790Y-97264616D01*
X110380998Y-98030371D01*
X110114409Y-98768985D01*
X109951524Y-99282888D01*
X109774445Y-99312667D01*
X109703292Y-99219581D01*
X109515203Y-99014311D01*
X109467468Y-99295006D01*
X109383407Y-99936150D01*
X109309526Y-100221048D01*
X109235303Y-100544914D01*
X109409116Y-100418132D01*
X109507963Y-100308833D01*
X110008809Y-99818111D01*
X110367200Y-99515083D01*
X110708495Y-99281952D01*
X110791440Y-99407325D01*
X110695778Y-99911958D01*
X110517447Y-100705708D01*
X111296749Y-99382792D01*
X111332702Y-100308833D01*
X111368655Y-101234875D01*
X111610845Y-100202651D01*
X111944869Y-99329708D01*
X112422681Y-98745558D01*
X112949625Y-98553993D01*
X113087921Y-98583001D01*
X113281611Y-98520761D01*
X113191414Y-98112530D01*
X112798701Y-97617346D01*
X112411180Y-97446161D01*
X111960527Y-97222919D01*
X111844667Y-96967525D01*
X111972388Y-96704386D01*
X112097582Y-96729747D01*
X112438540Y-96697177D01*
X113084062Y-96473262D01*
X113886994Y-96127578D01*
X114700183Y-95729701D01*
X115376477Y-95349208D01*
X115768723Y-95055673D01*
X115813416Y-94972852D01*
X115997704Y-94917827D01*
X116342583Y-95078569D01*
X116758108Y-95465566D01*
X116871750Y-95742270D01*
X117091898Y-96015355D01*
X117385302Y-96075500D01*
X117889501Y-96197424D01*
X118099386Y-96470185D01*
X117928712Y-96737806D01*
X117898597Y-97005678D01*
X118255125Y-97408744D01*
X118579576Y-97794361D01*
X118425203Y-97981195D01*
X117819151Y-97943987D01*
X117759778Y-98067342D01*
X117917693Y-98309530D01*
X118383445Y-98654724D01*
X118652246Y-98721333D01*
X118923119Y-98895277D01*
X118892736Y-99118209D01*
X118889676Y-99458156D01*
X119117005Y-99475078D01*
X119346242Y-99184354D01*
X119567305Y-99068959D01*
X119975820Y-99413444D01*
X119992957Y-99432813D01*
X120466417Y-99812789D01*
X120773845Y-99740488D01*
X121095850Y-99624782D01*
X121223127Y-99756613D01*
X121550256Y-100042125D01*
X121775328Y-99876163D01*
X121784543Y-99448938D01*
X121684830Y-98780065D01*
X121667553Y-98589042D01*
X120311333Y-98589042D01*
X120179041Y-98721333D01*
X120046750Y-98589042D01*
X120179041Y-98456750D01*
X120311333Y-98589042D01*
X121667553Y-98589042D01*
X121653911Y-98438229D01*
X121479583Y-98014893D01*
X121333398Y-97795292D01*
X120046750Y-97795292D01*
X119914458Y-97927583D01*
X119782166Y-97795292D01*
X119914458Y-97663000D01*
X120046750Y-97795292D01*
X121333398Y-97795292D01*
X121053110Y-97374241D01*
X120966706Y-97266125D01*
X119770400Y-97266125D01*
X119637172Y-97274343D01*
X119313518Y-96936025D01*
X119284173Y-96898340D01*
X118690507Y-96236708D01*
X118165577Y-95756103D01*
X117533208Y-95246235D01*
X118194666Y-95559543D01*
X118840851Y-95988629D01*
X119409374Y-96561959D01*
X119740245Y-97106255D01*
X119770400Y-97266125D01*
X120966706Y-97266125D01*
X120687591Y-96916875D01*
X120208877Y-96313600D01*
X119956421Y-95904948D01*
X119959987Y-95794146D01*
X119924858Y-95702156D01*
X119583729Y-95538089D01*
X119125279Y-95252814D01*
X118988416Y-95021236D01*
X119198706Y-94979950D01*
X119744233Y-95155704D01*
X120347651Y-95432445D01*
X121711858Y-96314597D01*
X122893406Y-97525603D01*
X123465059Y-98302291D01*
X123678157Y-98635861D01*
X123599075Y-98622947D01*
X123180847Y-98255893D01*
X122690553Y-97900781D01*
X122363310Y-97822122D01*
X122342225Y-97836969D01*
X122187047Y-97794702D01*
X122163417Y-97624563D01*
X121965507Y-97212950D01*
X121484212Y-96739700D01*
X121435812Y-96703599D01*
X120654117Y-96157380D01*
X120273446Y-95948396D01*
X120295684Y-96077173D01*
X120668661Y-96489358D01*
X121310647Y-97264788D01*
X121860505Y-98118545D01*
X121897278Y-98188699D01*
X122376480Y-98955647D01*
X122917034Y-99594766D01*
X122974493Y-99647375D01*
X123320423Y-99903100D01*
X123363961Y-99821403D01*
X123340816Y-99779667D01*
X123077651Y-99216833D01*
X123067279Y-98907099D01*
X123305287Y-98949829D01*
X123375286Y-99003548D01*
X123683444Y-99174567D01*
X123750916Y-99118208D01*
X123913698Y-99094410D01*
X124147791Y-99250500D01*
X124481300Y-99648892D01*
X124544666Y-99844460D01*
X124382395Y-99915552D01*
X124109802Y-99748138D01*
X123906996Y-99642747D01*
X123955833Y-99898099D01*
X124265522Y-100560921D01*
X124272921Y-100575637D01*
X124694040Y-101355465D01*
X125080090Y-101977940D01*
X125218098Y-102160917D01*
X125551371Y-102620161D01*
X125650292Y-102822375D01*
X125837155Y-103042854D01*
X125877033Y-103039711D01*
X125992979Y-103218719D01*
X126018774Y-103502732D01*
X125995068Y-103895468D01*
X125835693Y-103964486D01*
X125408262Y-103723622D01*
X125200696Y-103588238D01*
X124552426Y-103163475D01*
X124708611Y-104315842D01*
X124888037Y-105129315D01*
X125146627Y-105761969D01*
X125233898Y-105885917D01*
X125525400Y-106358947D01*
X125599435Y-106770332D01*
X125446973Y-106923417D01*
X125183773Y-106742025D01*
X124794317Y-106328104D01*
X124448744Y-106005542D01*
X124289809Y-106037192D01*
X124288886Y-106051169D01*
X124372591Y-106303666D01*
X124683385Y-106626197D01*
X125291211Y-107074369D01*
X126266012Y-107703787D01*
X126727479Y-107989910D01*
X127418917Y-108467424D01*
X127875391Y-108881805D01*
X127984250Y-109075263D01*
X127838204Y-109192000D01*
X127521229Y-108974292D01*
X127045730Y-108646716D01*
X126267210Y-108203293D01*
X125464340Y-107794330D01*
X124610651Y-107392583D01*
X124091543Y-107205037D01*
X123765458Y-107215009D01*
X123490835Y-107405819D01*
X123347674Y-107544903D01*
X123077877Y-107851615D01*
X123144463Y-107880714D01*
X123155604Y-107874493D01*
X123427477Y-107899526D01*
X123486333Y-108209223D01*
X123669665Y-108696930D01*
X124132517Y-109320033D01*
X124391622Y-109586400D01*
X124962213Y-110193977D01*
X125345144Y-110730173D01*
X125414894Y-110891459D01*
X125342893Y-111011057D01*
X125017834Y-110804049D01*
X124520111Y-110354713D01*
X123930122Y-109747327D01*
X123328262Y-109066168D01*
X122991904Y-108643209D01*
X121898833Y-108643209D01*
X121766541Y-108775500D01*
X121634250Y-108643209D01*
X121766541Y-108510917D01*
X121898833Y-108643209D01*
X122991904Y-108643209D01*
X122794926Y-108395516D01*
X122410511Y-107819646D01*
X122323722Y-107651021D01*
X122028088Y-107035077D01*
X121829314Y-106687424D01*
X121798345Y-106658834D01*
X121737522Y-106869607D01*
X121795658Y-107334763D01*
X121934033Y-107803555D01*
X121993119Y-107920256D01*
X122082046Y-108208967D01*
X122027841Y-108246334D01*
X121677724Y-108049246D01*
X121261415Y-107592625D01*
X121013395Y-107183275D01*
X120938396Y-107175699D01*
X120943828Y-107592634D01*
X120983308Y-107973821D01*
X121115991Y-108717017D01*
X121279343Y-109210085D01*
X121345551Y-109296738D01*
X121580931Y-109681099D01*
X121687971Y-110292969D01*
X121655362Y-110897641D01*
X121471796Y-111260413D01*
X121440902Y-111275860D01*
X121182257Y-111297802D01*
X121190525Y-111219865D01*
X121193909Y-110843497D01*
X121090572Y-110495292D01*
X120946483Y-110235302D01*
X120867079Y-110418058D01*
X120829809Y-110892167D01*
X120822792Y-112201105D01*
X120952671Y-113090226D01*
X121099586Y-113405709D01*
X121211211Y-113796723D01*
X121287259Y-114538252D01*
X121308923Y-115257792D01*
X121310544Y-116845292D01*
X121009376Y-115433268D01*
X120820176Y-114688380D01*
X120646325Y-114240363D01*
X120554911Y-114175453D01*
X120270975Y-114146193D01*
X119860074Y-113760693D01*
X119415440Y-113143891D01*
X119030306Y-112420725D01*
X118832128Y-111866823D01*
X118694381Y-111372547D01*
X118610934Y-111217674D01*
X118570210Y-111452178D01*
X118560630Y-112126032D01*
X118567544Y-113008834D01*
X118552815Y-114182934D01*
X118492192Y-115272370D01*
X118397835Y-116077687D01*
X118372985Y-116200263D01*
X118278531Y-116795185D01*
X118386977Y-117242898D01*
X118776118Y-117736735D01*
X119135745Y-118095885D01*
X120117062Y-119049036D01*
X119799317Y-121122164D01*
X119613691Y-123508172D01*
X119698015Y-125047375D01*
X119914458Y-126899458D01*
X121105083Y-126746168D01*
X122629632Y-126482906D01*
X123783601Y-126142414D01*
X124509341Y-125745643D01*
X124737332Y-125426104D01*
X124943733Y-125007034D01*
X125096388Y-124915083D01*
X125217349Y-124711307D01*
X125172862Y-124452063D01*
X125106462Y-124160282D01*
X125269926Y-124335277D01*
X125288978Y-124361923D01*
X125441800Y-124899735D01*
X125401266Y-125132931D01*
X125386973Y-125395365D01*
X125558037Y-125339747D01*
X125826106Y-124936905D01*
X125867583Y-124675535D01*
X126084992Y-123805595D01*
X126712557Y-122716871D01*
X127711531Y-121475500D01*
X128512367Y-120582112D01*
X129016526Y-119987823D01*
X129286296Y-119602940D01*
X129383969Y-119337771D01*
X129371836Y-119102624D01*
X129369193Y-119088635D01*
X129507900Y-118656131D01*
X129866631Y-118297923D01*
X130416073Y-117878402D01*
X131121054Y-117288411D01*
X131395144Y-117046761D01*
X131959075Y-116605182D01*
X132347129Y-116421760D01*
X132441750Y-116462491D01*
X132654558Y-116570046D01*
X132971528Y-116366435D01*
X133224612Y-115994275D01*
X133275916Y-115754562D01*
X133429715Y-115423776D01*
X133540500Y-115390084D01*
X133773234Y-115174942D01*
X133805083Y-114980903D01*
X134016463Y-114583692D01*
X134532105Y-114160571D01*
X134599246Y-114121007D01*
X135099236Y-113739372D01*
X135283790Y-113394742D01*
X135275568Y-113356657D01*
X135330176Y-113012122D01*
X135421444Y-112955116D01*
X135660856Y-112675136D01*
X135855904Y-112132214D01*
X135913646Y-111818209D01*
X121634250Y-111818209D01*
X121501958Y-111950500D01*
X121369666Y-111818209D01*
X121501958Y-111685917D01*
X121634250Y-111818209D01*
X135913646Y-111818209D01*
X135967900Y-111523182D01*
X135958152Y-111044873D01*
X135827740Y-110888115D01*
X135676919Y-110804119D01*
X135804480Y-110689678D01*
X136176058Y-110170610D01*
X136472240Y-109250868D01*
X136657974Y-108057405D01*
X136696389Y-107459251D01*
X136773983Y-106588456D01*
X136915926Y-105915064D01*
X137024859Y-105678840D01*
X137165181Y-105156691D01*
X137027945Y-104565735D01*
X136875142Y-103824665D01*
X136899071Y-103235881D01*
X136870174Y-102672857D01*
X132681879Y-102672857D01*
X132645688Y-102690083D01*
X132404233Y-102503822D01*
X132349875Y-102425500D01*
X132282454Y-102178144D01*
X132318645Y-102160917D01*
X132560100Y-102347178D01*
X132614458Y-102425500D01*
X132681879Y-102672857D01*
X136870174Y-102672857D01*
X136866467Y-102600642D01*
X136697595Y-102271634D01*
X136488474Y-101898402D01*
X136700862Y-101640985D01*
X136721992Y-101627738D01*
X136734036Y-101614523D01*
X131888129Y-101614523D01*
X131851938Y-101631750D01*
X131610483Y-101445489D01*
X131556125Y-101367167D01*
X131488704Y-101119810D01*
X131524895Y-101102583D01*
X131766350Y-101288845D01*
X131820708Y-101367167D01*
X131888129Y-101614523D01*
X136734036Y-101614523D01*
X136938362Y-101390332D01*
X136772378Y-101053538D01*
X136638833Y-100899465D01*
X136522956Y-100738105D01*
X131423833Y-100738105D01*
X131295131Y-100817302D01*
X130943401Y-100477417D01*
X130860917Y-100374979D01*
X130632093Y-100061582D01*
X130769106Y-100127283D01*
X130960812Y-100275084D01*
X131327250Y-100601473D01*
X131423833Y-100738105D01*
X136522956Y-100738105D01*
X136292109Y-100416650D01*
X136186333Y-100121959D01*
X136076856Y-99891030D01*
X130762375Y-99891030D01*
X129836333Y-99172275D01*
X128964546Y-98557391D01*
X128585387Y-98324458D01*
X126132166Y-98324458D01*
X125999875Y-98456750D01*
X125867583Y-98324458D01*
X125999875Y-98192167D01*
X126132166Y-98324458D01*
X128585387Y-98324458D01*
X128027037Y-97981442D01*
X127892464Y-97907511D01*
X127245470Y-97605327D01*
X126810575Y-97485115D01*
X126733229Y-97502910D01*
X126439176Y-97477190D01*
X126038539Y-97256784D01*
X125471553Y-96930891D01*
X125194304Y-96914429D01*
X125273190Y-97199928D01*
X125367606Y-97332271D01*
X125574420Y-97619143D01*
X125457122Y-97561048D01*
X125160966Y-97314383D01*
X124634355Y-96976499D01*
X123790835Y-96548052D01*
X122810449Y-96120291D01*
X122784276Y-96109808D01*
X121766770Y-95672519D01*
X120763846Y-95189967D01*
X120192147Y-94884875D01*
X117930083Y-94884875D01*
X117797791Y-95017167D01*
X117665500Y-94884875D01*
X117797791Y-94752584D01*
X117930083Y-94884875D01*
X120192147Y-94884875D01*
X119890373Y-94723831D01*
X119261219Y-94335789D01*
X118991253Y-94087522D01*
X118988416Y-94071605D01*
X119215225Y-94001538D01*
X119818425Y-94090145D01*
X120682176Y-94301870D01*
X121690638Y-94601154D01*
X122727973Y-94952439D01*
X123678339Y-95320169D01*
X124425897Y-95668784D01*
X124676958Y-95817737D01*
X125311121Y-96198527D01*
X126233079Y-96699294D01*
X127251135Y-97216185D01*
X127322791Y-97251137D01*
X128348760Y-97814407D01*
X129289389Y-98440964D01*
X129948153Y-98999318D01*
X129968625Y-99021395D01*
X130762375Y-99891030D01*
X136076856Y-99891030D01*
X136003420Y-99736127D01*
X135792371Y-99517501D01*
X135535815Y-99136247D01*
X135555508Y-98936351D01*
X135511103Y-98580063D01*
X135195146Y-98106435D01*
X134752502Y-97518188D01*
X134512748Y-97063717D01*
X134153629Y-96619383D01*
X133687046Y-96345503D01*
X133644407Y-96314780D01*
X130783707Y-96314780D01*
X130510413Y-96205403D01*
X129951962Y-95791969D01*
X129667972Y-95550156D01*
X129481212Y-95414042D01*
X129042583Y-95414042D01*
X128910291Y-95546334D01*
X128778000Y-95414042D01*
X128910291Y-95281750D01*
X129042583Y-95414042D01*
X129481212Y-95414042D01*
X128943571Y-95022201D01*
X128229324Y-94665020D01*
X128045543Y-94612085D01*
X127277954Y-94438937D01*
X126407138Y-94222137D01*
X126364439Y-94210904D01*
X125666195Y-94078668D01*
X124622562Y-93942299D01*
X123416644Y-93824361D01*
X122924856Y-93787055D01*
X121415684Y-93660954D01*
X120434675Y-93533961D01*
X119980949Y-93416762D01*
X120021816Y-93362379D01*
X117308415Y-93362379D01*
X117270181Y-93784816D01*
X117096593Y-94189423D01*
X117004041Y-94285511D01*
X116522165Y-94474549D01*
X116153272Y-94374467D01*
X116118491Y-94287583D01*
X110484153Y-94287583D01*
X110297040Y-94468957D01*
X109662244Y-94750849D01*
X108611896Y-95116572D01*
X108253595Y-95229896D01*
X107146059Y-95638099D01*
X106085640Y-96135142D01*
X105347909Y-96582463D01*
X104582431Y-97080199D01*
X104128711Y-97209927D01*
X104011684Y-96968777D01*
X104079321Y-96728485D01*
X104348280Y-96383463D01*
X104480256Y-96340084D01*
X104601692Y-96514359D01*
X104541820Y-96670813D01*
X104489070Y-96852815D01*
X104592351Y-96781056D01*
X104828700Y-96342784D01*
X104839146Y-96251889D01*
X105056202Y-96033570D01*
X105328718Y-96027050D01*
X105655300Y-95986399D01*
X105646398Y-95842370D01*
X105808710Y-95664552D01*
X106351820Y-95392235D01*
X107146371Y-95071496D01*
X108063006Y-94748414D01*
X108972369Y-94469063D01*
X109745104Y-94279522D01*
X110191450Y-94223417D01*
X110484153Y-94287583D01*
X116118491Y-94287583D01*
X116078000Y-94186439D01*
X116272403Y-93814393D01*
X116700780Y-93406871D01*
X117130879Y-93178703D01*
X117173081Y-93173498D01*
X117308415Y-93362379D01*
X120021816Y-93362379D01*
X120053631Y-93320042D01*
X120651840Y-93254488D01*
X121774701Y-93230785D01*
X122969213Y-93247110D01*
X124445048Y-93290484D01*
X125514895Y-93350340D01*
X126301916Y-93447330D01*
X126929275Y-93602108D01*
X127520133Y-93835325D01*
X128069151Y-94102296D01*
X129005222Y-94637247D01*
X129849025Y-95222097D01*
X130289419Y-95605004D01*
X130725492Y-96116011D01*
X130783707Y-96314780D01*
X133644407Y-96314780D01*
X133185787Y-95984328D01*
X132749732Y-95395649D01*
X132456762Y-94742420D01*
X132384759Y-94187597D01*
X132531742Y-93928194D01*
X132692057Y-93673085D01*
X132438732Y-93263724D01*
X132405500Y-93226549D01*
X132059044Y-92747365D01*
X132023282Y-92649711D01*
X114947958Y-92649711D01*
X114861377Y-93051628D01*
X114673774Y-93093883D01*
X114380694Y-92773855D01*
X114379774Y-92768209D01*
X98880083Y-92768209D01*
X98747791Y-92900500D01*
X98615500Y-92768209D01*
X98747791Y-92635917D01*
X98880083Y-92768209D01*
X114379774Y-92768209D01*
X114358208Y-92635917D01*
X114498483Y-92249031D01*
X114769441Y-92248869D01*
X114946284Y-92630174D01*
X114947958Y-92649711D01*
X132023282Y-92649711D01*
X131953000Y-92457799D01*
X131793596Y-92097920D01*
X131399517Y-91549062D01*
X131291865Y-91420299D01*
X130856739Y-90799341D01*
X130636896Y-90260539D01*
X130630406Y-90188521D01*
X130617905Y-90148972D01*
X128000449Y-90148972D01*
X127634599Y-90190724D01*
X127455083Y-90193283D01*
X126973722Y-90165698D01*
X126916992Y-90097018D01*
X126992062Y-90072283D01*
X127663106Y-90031135D01*
X127918104Y-90072283D01*
X128000449Y-90148972D01*
X130617905Y-90148972D01*
X130525865Y-89857792D01*
X119253000Y-89857792D01*
X119120708Y-89990084D01*
X118988416Y-89857792D01*
X119032513Y-89813695D01*
X112285639Y-89813695D01*
X112249319Y-89970989D01*
X112109250Y-89990084D01*
X111891468Y-89893277D01*
X111932861Y-89813695D01*
X112246859Y-89782029D01*
X112285639Y-89813695D01*
X119032513Y-89813695D01*
X119120708Y-89725500D01*
X119253000Y-89857792D01*
X130525865Y-89857792D01*
X130506286Y-89795855D01*
X130367547Y-89725500D01*
X130301852Y-89593209D01*
X120575916Y-89593209D01*
X120443625Y-89725500D01*
X120311333Y-89593209D01*
X120443625Y-89460917D01*
X120575916Y-89593209D01*
X130301852Y-89593209D01*
X130243115Y-89474931D01*
X130211164Y-89064042D01*
X120575916Y-89064042D01*
X120443625Y-89196334D01*
X120354324Y-89107033D01*
X111963341Y-89107033D01*
X111861335Y-89363170D01*
X111687093Y-89355535D01*
X111276136Y-89378046D01*
X111176067Y-89472472D01*
X110765634Y-89698819D01*
X110091036Y-89725210D01*
X109367846Y-89574997D01*
X108811637Y-89271535D01*
X108752173Y-89209887D01*
X108368298Y-88857540D01*
X108151606Y-88792594D01*
X108044930Y-88643767D01*
X108022745Y-88200508D01*
X108243653Y-87545759D01*
X108728206Y-87200515D01*
X109312055Y-87242616D01*
X109607094Y-87450130D01*
X109892176Y-87861272D01*
X109752900Y-88238743D01*
X109712572Y-88288882D01*
X109522517Y-88719930D01*
X109675083Y-88984667D01*
X110077578Y-89098991D01*
X110491856Y-88841121D01*
X110757565Y-88339251D01*
X110786333Y-88096294D01*
X110867798Y-87748636D01*
X111201628Y-87813954D01*
X111283123Y-87856089D01*
X111629483Y-88187386D01*
X111871140Y-88659736D01*
X111963341Y-89107033D01*
X120354324Y-89107033D01*
X120311333Y-89064042D01*
X120443625Y-88931750D01*
X120575916Y-89064042D01*
X130211164Y-89064042D01*
X130188407Y-88771409D01*
X130208721Y-87687212D01*
X130212504Y-87610388D01*
X130221366Y-87173863D01*
X120180234Y-87173863D01*
X120161723Y-87789798D01*
X120035507Y-88189307D01*
X119678034Y-88655821D01*
X119056711Y-88860971D01*
X118743775Y-88889564D01*
X117906774Y-88823585D01*
X117425091Y-88564004D01*
X117242633Y-88143077D01*
X117449371Y-87629566D01*
X117810962Y-87247236D01*
X114755083Y-87247236D01*
X114624635Y-87635190D01*
X114363229Y-87786302D01*
X114265604Y-87736715D01*
X114302119Y-87464891D01*
X114441993Y-87286924D01*
X114708372Y-87137766D01*
X114755083Y-87247236D01*
X117810962Y-87247236D01*
X117835674Y-87221107D01*
X118225194Y-87079179D01*
X118448975Y-87251515D01*
X118459250Y-87344250D01*
X118253845Y-87595886D01*
X118162270Y-87608833D01*
X118027570Y-87742937D01*
X118201980Y-88014520D01*
X118650786Y-88323569D01*
X119019008Y-88130354D01*
X119253000Y-87476542D01*
X119445711Y-86900050D01*
X119693568Y-86623909D01*
X120011511Y-86727224D01*
X120180234Y-87173863D01*
X130221366Y-87173863D01*
X130235568Y-86474344D01*
X130179043Y-85683866D01*
X130049380Y-85328071D01*
X130047245Y-85326705D01*
X129637770Y-85209893D01*
X128908895Y-85105135D01*
X128490065Y-85068136D01*
X127319311Y-84838223D01*
X126668902Y-84441402D01*
X126165752Y-84047369D01*
X125794093Y-83904667D01*
X125263428Y-83644009D01*
X124703582Y-82874410D01*
X124334834Y-82068198D01*
X103642583Y-82068198D01*
X103440774Y-82310041D01*
X103378000Y-82317167D01*
X103145798Y-82101806D01*
X103113416Y-81904677D01*
X103241684Y-81630818D01*
X103378000Y-81655709D01*
X103632491Y-81993967D01*
X103642583Y-82068198D01*
X124334834Y-82068198D01*
X124127289Y-81614434D01*
X124011400Y-81305837D01*
X123692798Y-80340338D01*
X123571231Y-79613481D01*
X123623066Y-78882949D01*
X123723982Y-78358754D01*
X123913033Y-77193893D01*
X123970558Y-76471111D01*
X123393604Y-76471111D01*
X123200652Y-77685740D01*
X122822562Y-78368059D01*
X122512266Y-78764402D01*
X122571939Y-78856531D01*
X122721521Y-78812738D01*
X123040842Y-78820069D01*
X123086017Y-79230895D01*
X123018090Y-79744640D01*
X122903576Y-79917897D01*
X122684279Y-79935917D01*
X122358142Y-79725550D01*
X122268260Y-79562920D01*
X121925531Y-79226125D01*
X121416929Y-79012176D01*
X120708732Y-78834430D01*
X121369928Y-78468507D01*
X121767061Y-78208357D01*
X121699515Y-78102522D01*
X121568104Y-78093209D01*
X121168949Y-77950022D01*
X121157153Y-77695152D01*
X121539258Y-77554755D01*
X121552528Y-77554667D01*
X121828512Y-77513218D01*
X121686604Y-77323139D01*
X121486382Y-77166206D01*
X121147781Y-76877724D01*
X121232654Y-76780160D01*
X121435812Y-76769331D01*
X121828713Y-76637166D01*
X121898833Y-76496334D01*
X122111837Y-76258654D01*
X122277879Y-76231750D01*
X122655140Y-76011396D01*
X122824875Y-75702584D01*
X123051564Y-75228083D01*
X123244513Y-75236387D01*
X123369413Y-75681134D01*
X123393604Y-76471111D01*
X123970558Y-76471111D01*
X124009290Y-75984468D01*
X124015245Y-74853019D01*
X123933394Y-73922086D01*
X123766230Y-73314210D01*
X123618033Y-73152203D01*
X122851183Y-73102899D01*
X121937574Y-73503683D01*
G37*
X121937574Y-73503683D02*
X120849982Y-74368820D01*
X120337266Y-74871511D01*
X118856125Y-76391421D01*
X115796349Y-76323696D01*
X114510518Y-76275009D01*
X113363787Y-76194782D01*
X112492810Y-76094792D01*
X112070096Y-76002578D01*
X111464958Y-75877300D01*
X111095634Y-75939530D01*
X110631107Y-76055852D01*
X109940306Y-76071191D01*
X109927898Y-76070354D01*
X109251849Y-76088451D01*
X108809497Y-76214523D01*
X108802762Y-76219603D01*
X108331457Y-76363613D01*
X108075405Y-76353628D01*
X107605621Y-76407435D01*
X107464477Y-76519899D01*
X107117265Y-76745863D01*
X106555729Y-76586662D01*
X105841990Y-76099459D01*
X105230083Y-76099459D01*
X105097791Y-76231750D01*
X104965500Y-76099459D01*
X105097791Y-75967167D01*
X105230083Y-76099459D01*
X105841990Y-76099459D01*
X105734159Y-76025853D01*
X105453554Y-75796513D01*
X104154075Y-74858981D01*
X102987452Y-74321871D01*
X102014055Y-74211206D01*
X101848290Y-74242432D01*
X101492697Y-74361436D01*
X101310568Y-74578802D01*
X101265576Y-75027225D01*
X101321397Y-75839403D01*
X101344017Y-76084541D01*
X101489757Y-77139941D01*
X101703222Y-78120514D01*
X101875103Y-78649920D01*
X102249658Y-79539042D01*
X102174701Y-78282271D01*
X102176633Y-77550882D01*
X102265545Y-77097736D01*
X102341997Y-77025500D01*
X102559390Y-76811974D01*
X102584250Y-76644240D01*
X102743534Y-76195064D01*
X102845803Y-76101332D01*
X103001596Y-76141623D01*
X102966708Y-76306203D01*
X103036924Y-76622642D01*
X103238156Y-76672722D01*
X103528334Y-76509641D01*
X103493597Y-76179152D01*
X103462878Y-75928442D01*
X103679700Y-76045660D01*
X104018930Y-76367567D01*
X104470602Y-76886908D01*
X104695352Y-77277947D01*
X104700916Y-77317725D01*
X104863722Y-77464526D01*
X104965500Y-77422375D01*
X105196825Y-77476371D01*
X105230083Y-77640485D01*
X105451893Y-78008666D01*
X105759250Y-78160496D01*
X106189638Y-78456676D01*
X106288417Y-78736137D01*
X106174572Y-79034773D01*
X106043660Y-79022129D01*
X105632333Y-78992477D01*
X105183764Y-79109893D01*
X103804444Y-79664771D01*
X102893798Y-80077687D01*
X102415926Y-80366132D01*
X102319666Y-80505267D01*
X102489349Y-80716887D01*
X102823156Y-80631906D01*
X102981125Y-80465084D01*
X103355867Y-80239536D01*
X103636149Y-80200500D01*
X104097551Y-80060641D01*
X104227874Y-79899837D01*
X104530209Y-79714811D01*
X105159219Y-79625095D01*
X105374401Y-79623801D01*
X106488784Y-79690626D01*
X107197114Y-79814873D01*
X107470919Y-79974550D01*
X107281727Y-80147664D01*
X106601065Y-80312223D01*
X106319303Y-80353668D01*
X105555746Y-80495390D01*
X105064805Y-80664157D01*
X104965500Y-80763753D01*
X104733988Y-80921781D01*
X104170152Y-80997350D01*
X104105604Y-80998302D01*
X103195729Y-81102637D01*
X102719425Y-81442266D01*
X102612335Y-82073358D01*
X102635438Y-82281396D01*
X102648323Y-82872408D01*
X102514537Y-83177767D01*
X102506200Y-83181031D01*
X102330757Y-83472455D01*
X102200982Y-84095710D01*
X102179895Y-84311968D01*
X102125124Y-85019825D01*
X102084942Y-85477012D01*
X102078882Y-85529630D01*
X101836019Y-85713396D01*
X101393625Y-85865400D01*
X100897058Y-86119224D01*
X100732166Y-86410102D01*
X100529283Y-86870914D01*
X100373917Y-87000374D01*
X99850068Y-87565719D01*
X99571046Y-88354012D01*
X99573243Y-88799459D01*
X99524783Y-89409984D01*
X99267174Y-90317502D01*
X98852227Y-91358660D01*
X98588339Y-91904723D01*
X98382896Y-92540106D01*
X98386580Y-93106947D01*
X98589415Y-93415248D01*
X98668416Y-93429667D01*
X98852493Y-93507762D01*
X98668416Y-93747167D01*
X98368227Y-94271711D01*
X98554661Y-94681571D01*
X98880083Y-94829246D01*
X99239148Y-95033028D01*
X99393898Y-95488544D01*
X99403889Y-96210564D01*
X99509709Y-96515814D01*
X99773355Y-97070330D01*
X99790212Y-97103061D01*
X100013946Y-97670011D01*
X100024463Y-98016251D01*
X100016059Y-98026330D01*
X100120488Y-98143181D01*
X100601999Y-98196058D01*
X100621923Y-98196218D01*
X101108081Y-98235024D01*
X101118774Y-98367062D01*
X100996750Y-98456750D01*
X100781476Y-98670690D01*
X100930604Y-98717282D01*
X101238105Y-98888478D01*
X101261333Y-98985917D01*
X101057526Y-99239796D01*
X100977851Y-99250500D01*
X100578169Y-99395037D01*
X100218693Y-99719417D01*
X100037799Y-100059796D01*
X100139216Y-100243475D01*
X100445575Y-100567704D01*
X100467583Y-100699450D01*
X100685456Y-101074194D01*
X101154625Y-101280285D01*
X101549793Y-101220119D01*
X101697752Y-100970292D01*
X101525916Y-100970292D01*
X101393625Y-101102583D01*
X101261333Y-100970292D01*
X101393625Y-100838000D01*
X101525916Y-100970292D01*
X101697752Y-100970292D01*
X101765413Y-100856048D01*
X101798914Y-100623948D01*
X101959357Y-100064776D01*
X102195789Y-99662951D01*
X102517036Y-99366245D01*
X102637640Y-99554545D01*
X102603905Y-99880843D01*
X102756489Y-99863872D01*
X103194120Y-99566959D01*
X103564760Y-99269187D01*
X104094129Y-98853625D01*
X103378000Y-98853625D01*
X103245708Y-98985917D01*
X103113416Y-98853625D01*
X103245708Y-98721333D01*
X103378000Y-98853625D01*
X104094129Y-98853625D01*
X104443142Y-98579645D01*
X104947757Y-98218993D01*
X103038463Y-98218993D01*
X102982949Y-98484111D01*
X102964114Y-98534307D01*
X102754513Y-98858300D01*
X102635348Y-98860626D01*
X102665027Y-98580735D01*
X102816002Y-98386195D01*
X103038463Y-98218993D01*
X104947757Y-98218993D01*
X105508578Y-97818171D01*
X105542789Y-97795292D01*
X104171750Y-97795292D01*
X104039458Y-97927583D01*
X103907166Y-97795292D01*
X104039458Y-97663000D01*
X104171750Y-97795292D01*
X105542789Y-97795292D01*
X106661070Y-97047435D01*
X107800617Y-96330110D01*
X108827221Y-95728868D01*
X109640880Y-95306382D01*
X110141595Y-95125325D01*
X110180718Y-95122806D01*
X110580107Y-95160954D01*
X110556618Y-95350828D01*
X110313010Y-95641529D01*
X110017447Y-95996192D01*
X110115590Y-96011792D01*
X110455604Y-95840107D01*
X110883360Y-95646472D01*
X110997561Y-95690665D01*
X110777994Y-96000735D01*
X110204446Y-96604731D01*
X109256706Y-97530701D01*
X109193836Y-97591035D01*
X108412408Y-98384405D01*
X107821107Y-99069747D01*
X107497615Y-99552104D01*
X107464523Y-99704947D01*
X107412084Y-99966719D01*
X107286796Y-99974930D01*
X106988264Y-100138322D01*
X106874008Y-100406314D01*
X106878997Y-100744574D01*
X107118226Y-100683423D01*
X107736315Y-100452510D01*
X108232210Y-100514609D01*
X108428742Y-100816071D01*
X108501673Y-100840813D01*
X108662206Y-100444875D01*
X108782830Y-100044250D01*
X109398835Y-98342396D01*
X110167910Y-97102354D01*
X110496284Y-96760005D01*
X110999186Y-96414665D01*
X111217353Y-96472855D01*
X111104631Y-96865775D01*
X110834790Y-97264616D01*
X110380998Y-98030371D01*
X110114409Y-98768985D01*
X109951524Y-99282888D01*
X109774445Y-99312667D01*
X109703292Y-99219581D01*
X109515203Y-99014311D01*
X109467468Y-99295006D01*
X109383407Y-99936150D01*
X109309526Y-100221048D01*
X109235303Y-100544914D01*
X109409116Y-100418132D01*
X109507963Y-100308833D01*
X110008809Y-99818111D01*
X110367200Y-99515083D01*
X110708495Y-99281952D01*
X110791440Y-99407325D01*
X110695778Y-99911958D01*
X110517447Y-100705708D01*
X111296749Y-99382792D01*
X111332702Y-100308833D01*
X111368655Y-101234875D01*
X111610845Y-100202651D01*
X111944869Y-99329708D01*
X112422681Y-98745558D01*
X112949625Y-98553993D01*
X113087921Y-98583001D01*
X113281611Y-98520761D01*
X113191414Y-98112530D01*
X112798701Y-97617346D01*
X112411180Y-97446161D01*
X111960527Y-97222919D01*
X111844667Y-96967525D01*
X111972388Y-96704386D01*
X112097582Y-96729747D01*
X112438540Y-96697177D01*
X113084062Y-96473262D01*
X113886994Y-96127578D01*
X114700183Y-95729701D01*
X115376477Y-95349208D01*
X115768723Y-95055673D01*
X115813416Y-94972852D01*
X115997704Y-94917827D01*
X116342583Y-95078569D01*
X116758108Y-95465566D01*
X116871750Y-95742270D01*
X117091898Y-96015355D01*
X117385302Y-96075500D01*
X117889501Y-96197424D01*
X118099386Y-96470185D01*
X117928712Y-96737806D01*
X117898597Y-97005678D01*
X118255125Y-97408744D01*
X118579576Y-97794361D01*
X118425203Y-97981195D01*
X117819151Y-97943987D01*
X117759778Y-98067342D01*
X117917693Y-98309530D01*
X118383445Y-98654724D01*
X118652246Y-98721333D01*
X118923119Y-98895277D01*
X118892736Y-99118209D01*
X118889676Y-99458156D01*
X119117005Y-99475078D01*
X119346242Y-99184354D01*
X119567305Y-99068959D01*
X119975820Y-99413444D01*
X119992957Y-99432813D01*
X120466417Y-99812789D01*
X120773845Y-99740488D01*
X121095850Y-99624782D01*
X121223127Y-99756613D01*
X121550256Y-100042125D01*
X121775328Y-99876163D01*
X121784543Y-99448938D01*
X121684830Y-98780065D01*
X121667553Y-98589042D01*
X120311333Y-98589042D01*
X120179041Y-98721333D01*
X120046750Y-98589042D01*
X120179041Y-98456750D01*
X120311333Y-98589042D01*
X121667553Y-98589042D01*
X121653911Y-98438229D01*
X121479583Y-98014893D01*
X121333398Y-97795292D01*
X120046750Y-97795292D01*
X119914458Y-97927583D01*
X119782166Y-97795292D01*
X119914458Y-97663000D01*
X120046750Y-97795292D01*
X121333398Y-97795292D01*
X121053110Y-97374241D01*
X120966706Y-97266125D01*
X119770400Y-97266125D01*
X119637172Y-97274343D01*
X119313518Y-96936025D01*
X119284173Y-96898340D01*
X118690507Y-96236708D01*
X118165577Y-95756103D01*
X117533208Y-95246235D01*
X118194666Y-95559543D01*
X118840851Y-95988629D01*
X119409374Y-96561959D01*
X119740245Y-97106255D01*
X119770400Y-97266125D01*
X120966706Y-97266125D01*
X120687591Y-96916875D01*
X120208877Y-96313600D01*
X119956421Y-95904948D01*
X119959987Y-95794146D01*
X119924858Y-95702156D01*
X119583729Y-95538089D01*
X119125279Y-95252814D01*
X118988416Y-95021236D01*
X119198706Y-94979950D01*
X119744233Y-95155704D01*
X120347651Y-95432445D01*
X121711858Y-96314597D01*
X122893406Y-97525603D01*
X123465059Y-98302291D01*
X123678157Y-98635861D01*
X123599075Y-98622947D01*
X123180847Y-98255893D01*
X122690553Y-97900781D01*
X122363310Y-97822122D01*
X122342225Y-97836969D01*
X122187047Y-97794702D01*
X122163417Y-97624563D01*
X121965507Y-97212950D01*
X121484212Y-96739700D01*
X121435812Y-96703599D01*
X120654117Y-96157380D01*
X120273446Y-95948396D01*
X120295684Y-96077173D01*
X120668661Y-96489358D01*
X121310647Y-97264788D01*
X121860505Y-98118545D01*
X121897278Y-98188699D01*
X122376480Y-98955647D01*
X122917034Y-99594766D01*
X122974493Y-99647375D01*
X123320423Y-99903100D01*
X123363961Y-99821403D01*
X123340816Y-99779667D01*
X123077651Y-99216833D01*
X123067279Y-98907099D01*
X123305287Y-98949829D01*
X123375286Y-99003548D01*
X123683444Y-99174567D01*
X123750916Y-99118208D01*
X123913698Y-99094410D01*
X124147791Y-99250500D01*
X124481300Y-99648892D01*
X124544666Y-99844460D01*
X124382395Y-99915552D01*
X124109802Y-99748138D01*
X123906996Y-99642747D01*
X123955833Y-99898099D01*
X124265522Y-100560921D01*
X124272921Y-100575637D01*
X124694040Y-101355465D01*
X125080090Y-101977940D01*
X125218098Y-102160917D01*
X125551371Y-102620161D01*
X125650292Y-102822375D01*
X125837155Y-103042854D01*
X125877033Y-103039711D01*
X125992979Y-103218719D01*
X126018774Y-103502732D01*
X125995068Y-103895468D01*
X125835693Y-103964486D01*
X125408262Y-103723622D01*
X125200696Y-103588238D01*
X124552426Y-103163475D01*
X124708611Y-104315842D01*
X124888037Y-105129315D01*
X125146627Y-105761969D01*
X125233898Y-105885917D01*
X125525400Y-106358947D01*
X125599435Y-106770332D01*
X125446973Y-106923417D01*
X125183773Y-106742025D01*
X124794317Y-106328104D01*
X124448744Y-106005542D01*
X124289809Y-106037192D01*
X124288886Y-106051169D01*
X124372591Y-106303666D01*
X124683385Y-106626197D01*
X125291211Y-107074369D01*
X126266012Y-107703787D01*
X126727479Y-107989910D01*
X127418917Y-108467424D01*
X127875391Y-108881805D01*
X127984250Y-109075263D01*
X127838204Y-109192000D01*
X127521229Y-108974292D01*
X127045730Y-108646716D01*
X126267210Y-108203293D01*
X125464340Y-107794330D01*
X124610651Y-107392583D01*
X124091543Y-107205037D01*
X123765458Y-107215009D01*
X123490835Y-107405819D01*
X123347674Y-107544903D01*
X123077877Y-107851615D01*
X123144463Y-107880714D01*
X123155604Y-107874493D01*
X123427477Y-107899526D01*
X123486333Y-108209223D01*
X123669665Y-108696930D01*
X124132517Y-109320033D01*
X124391622Y-109586400D01*
X124962213Y-110193977D01*
X125345144Y-110730173D01*
X125414894Y-110891459D01*
X125342893Y-111011057D01*
X125017834Y-110804049D01*
X124520111Y-110354713D01*
X123930122Y-109747327D01*
X123328262Y-109066168D01*
X122991904Y-108643209D01*
X121898833Y-108643209D01*
X121766541Y-108775500D01*
X121634250Y-108643209D01*
X121766541Y-108510917D01*
X121898833Y-108643209D01*
X122991904Y-108643209D01*
X122794926Y-108395516D01*
X122410511Y-107819646D01*
X122323722Y-107651021D01*
X122028088Y-107035077D01*
X121829314Y-106687424D01*
X121798345Y-106658834D01*
X121737522Y-106869607D01*
X121795658Y-107334763D01*
X121934033Y-107803555D01*
X121993119Y-107920256D01*
X122082046Y-108208967D01*
X122027841Y-108246334D01*
X121677724Y-108049246D01*
X121261415Y-107592625D01*
X121013395Y-107183275D01*
X120938396Y-107175699D01*
X120943828Y-107592634D01*
X120983308Y-107973821D01*
X121115991Y-108717017D01*
X121279343Y-109210085D01*
X121345551Y-109296738D01*
X121580931Y-109681099D01*
X121687971Y-110292969D01*
X121655362Y-110897641D01*
X121471796Y-111260413D01*
X121440902Y-111275860D01*
X121182257Y-111297802D01*
X121190525Y-111219865D01*
X121193909Y-110843497D01*
X121090572Y-110495292D01*
X120946483Y-110235302D01*
X120867079Y-110418058D01*
X120829809Y-110892167D01*
X120822792Y-112201105D01*
X120952671Y-113090226D01*
X121099586Y-113405709D01*
X121211211Y-113796723D01*
X121287259Y-114538252D01*
X121308923Y-115257792D01*
X121310544Y-116845292D01*
X121009376Y-115433268D01*
X120820176Y-114688380D01*
X120646325Y-114240363D01*
X120554911Y-114175453D01*
X120270975Y-114146193D01*
X119860074Y-113760693D01*
X119415440Y-113143891D01*
X119030306Y-112420725D01*
X118832128Y-111866823D01*
X118694381Y-111372547D01*
X118610934Y-111217674D01*
X118570210Y-111452178D01*
X118560630Y-112126032D01*
X118567544Y-113008834D01*
X118552815Y-114182934D01*
X118492192Y-115272370D01*
X118397835Y-116077687D01*
X118372985Y-116200263D01*
X118278531Y-116795185D01*
X118386977Y-117242898D01*
X118776118Y-117736735D01*
X119135745Y-118095885D01*
X120117062Y-119049036D01*
X119799317Y-121122164D01*
X119613691Y-123508172D01*
X119698015Y-125047375D01*
X119914458Y-126899458D01*
X121105083Y-126746168D01*
X122629632Y-126482906D01*
X123783601Y-126142414D01*
X124509341Y-125745643D01*
X124737332Y-125426104D01*
X124943733Y-125007034D01*
X125096388Y-124915083D01*
X125217349Y-124711307D01*
X125172862Y-124452063D01*
X125106462Y-124160282D01*
X125269926Y-124335277D01*
X125288978Y-124361923D01*
X125441800Y-124899735D01*
X125401266Y-125132931D01*
X125386973Y-125395365D01*
X125558037Y-125339747D01*
X125826106Y-124936905D01*
X125867583Y-124675535D01*
X126084992Y-123805595D01*
X126712557Y-122716871D01*
X127711531Y-121475500D01*
X128512367Y-120582112D01*
X129016526Y-119987823D01*
X129286296Y-119602940D01*
X129383969Y-119337771D01*
X129371836Y-119102624D01*
X129369193Y-119088635D01*
X129507900Y-118656131D01*
X129866631Y-118297923D01*
X130416073Y-117878402D01*
X131121054Y-117288411D01*
X131395144Y-117046761D01*
X131959075Y-116605182D01*
X132347129Y-116421760D01*
X132441750Y-116462491D01*
X132654558Y-116570046D01*
X132971528Y-116366435D01*
X133224612Y-115994275D01*
X133275916Y-115754562D01*
X133429715Y-115423776D01*
X133540500Y-115390084D01*
X133773234Y-115174942D01*
X133805083Y-114980903D01*
X134016463Y-114583692D01*
X134532105Y-114160571D01*
X134599246Y-114121007D01*
X135099236Y-113739372D01*
X135283790Y-113394742D01*
X135275568Y-113356657D01*
X135330176Y-113012122D01*
X135421444Y-112955116D01*
X135660856Y-112675136D01*
X135855904Y-112132214D01*
X135913646Y-111818209D01*
X121634250Y-111818209D01*
X121501958Y-111950500D01*
X121369666Y-111818209D01*
X121501958Y-111685917D01*
X121634250Y-111818209D01*
X135913646Y-111818209D01*
X135967900Y-111523182D01*
X135958152Y-111044873D01*
X135827740Y-110888115D01*
X135676919Y-110804119D01*
X135804480Y-110689678D01*
X136176058Y-110170610D01*
X136472240Y-109250868D01*
X136657974Y-108057405D01*
X136696389Y-107459251D01*
X136773983Y-106588456D01*
X136915926Y-105915064D01*
X137024859Y-105678840D01*
X137165181Y-105156691D01*
X137027945Y-104565735D01*
X136875142Y-103824665D01*
X136899071Y-103235881D01*
X136870174Y-102672857D01*
X132681879Y-102672857D01*
X132645688Y-102690083D01*
X132404233Y-102503822D01*
X132349875Y-102425500D01*
X132282454Y-102178144D01*
X132318645Y-102160917D01*
X132560100Y-102347178D01*
X132614458Y-102425500D01*
X132681879Y-102672857D01*
X136870174Y-102672857D01*
X136866467Y-102600642D01*
X136697595Y-102271634D01*
X136488474Y-101898402D01*
X136700862Y-101640985D01*
X136721992Y-101627738D01*
X136734036Y-101614523D01*
X131888129Y-101614523D01*
X131851938Y-101631750D01*
X131610483Y-101445489D01*
X131556125Y-101367167D01*
X131488704Y-101119810D01*
X131524895Y-101102583D01*
X131766350Y-101288845D01*
X131820708Y-101367167D01*
X131888129Y-101614523D01*
X136734036Y-101614523D01*
X136938362Y-101390332D01*
X136772378Y-101053538D01*
X136638833Y-100899465D01*
X136522956Y-100738105D01*
X131423833Y-100738105D01*
X131295131Y-100817302D01*
X130943401Y-100477417D01*
X130860917Y-100374979D01*
X130632093Y-100061582D01*
X130769106Y-100127283D01*
X130960812Y-100275084D01*
X131327250Y-100601473D01*
X131423833Y-100738105D01*
X136522956Y-100738105D01*
X136292109Y-100416650D01*
X136186333Y-100121959D01*
X136076856Y-99891030D01*
X130762375Y-99891030D01*
X129836333Y-99172275D01*
X128964546Y-98557391D01*
X128585387Y-98324458D01*
X126132166Y-98324458D01*
X125999875Y-98456750D01*
X125867583Y-98324458D01*
X125999875Y-98192167D01*
X126132166Y-98324458D01*
X128585387Y-98324458D01*
X128027037Y-97981442D01*
X127892464Y-97907511D01*
X127245470Y-97605327D01*
X126810575Y-97485115D01*
X126733229Y-97502910D01*
X126439176Y-97477190D01*
X126038539Y-97256784D01*
X125471553Y-96930891D01*
X125194304Y-96914429D01*
X125273190Y-97199928D01*
X125367606Y-97332271D01*
X125574420Y-97619143D01*
X125457122Y-97561048D01*
X125160966Y-97314383D01*
X124634355Y-96976499D01*
X123790835Y-96548052D01*
X122810449Y-96120291D01*
X122784276Y-96109808D01*
X121766770Y-95672519D01*
X120763846Y-95189967D01*
X120192147Y-94884875D01*
X117930083Y-94884875D01*
X117797791Y-95017167D01*
X117665500Y-94884875D01*
X117797791Y-94752584D01*
X117930083Y-94884875D01*
X120192147Y-94884875D01*
X119890373Y-94723831D01*
X119261219Y-94335789D01*
X118991253Y-94087522D01*
X118988416Y-94071605D01*
X119215225Y-94001538D01*
X119818425Y-94090145D01*
X120682176Y-94301870D01*
X121690638Y-94601154D01*
X122727973Y-94952439D01*
X123678339Y-95320169D01*
X124425897Y-95668784D01*
X124676958Y-95817737D01*
X125311121Y-96198527D01*
X126233079Y-96699294D01*
X127251135Y-97216185D01*
X127322791Y-97251137D01*
X128348760Y-97814407D01*
X129289389Y-98440964D01*
X129948153Y-98999318D01*
X129968625Y-99021395D01*
X130762375Y-99891030D01*
X136076856Y-99891030D01*
X136003420Y-99736127D01*
X135792371Y-99517501D01*
X135535815Y-99136247D01*
X135555508Y-98936351D01*
X135511103Y-98580063D01*
X135195146Y-98106435D01*
X134752502Y-97518188D01*
X134512748Y-97063717D01*
X134153629Y-96619383D01*
X133687046Y-96345503D01*
X133644407Y-96314780D01*
X130783707Y-96314780D01*
X130510413Y-96205403D01*
X129951962Y-95791969D01*
X129667972Y-95550156D01*
X129481212Y-95414042D01*
X129042583Y-95414042D01*
X128910291Y-95546334D01*
X128778000Y-95414042D01*
X128910291Y-95281750D01*
X129042583Y-95414042D01*
X129481212Y-95414042D01*
X128943571Y-95022201D01*
X128229324Y-94665020D01*
X128045543Y-94612085D01*
X127277954Y-94438937D01*
X126407138Y-94222137D01*
X126364439Y-94210904D01*
X125666195Y-94078668D01*
X124622562Y-93942299D01*
X123416644Y-93824361D01*
X122924856Y-93787055D01*
X121415684Y-93660954D01*
X120434675Y-93533961D01*
X119980949Y-93416762D01*
X120021816Y-93362379D01*
X117308415Y-93362379D01*
X117270181Y-93784816D01*
X117096593Y-94189423D01*
X117004041Y-94285511D01*
X116522165Y-94474549D01*
X116153272Y-94374467D01*
X116118491Y-94287583D01*
X110484153Y-94287583D01*
X110297040Y-94468957D01*
X109662244Y-94750849D01*
X108611896Y-95116572D01*
X108253595Y-95229896D01*
X107146059Y-95638099D01*
X106085640Y-96135142D01*
X105347909Y-96582463D01*
X104582431Y-97080199D01*
X104128711Y-97209927D01*
X104011684Y-96968777D01*
X104079321Y-96728485D01*
X104348280Y-96383463D01*
X104480256Y-96340084D01*
X104601692Y-96514359D01*
X104541820Y-96670813D01*
X104489070Y-96852815D01*
X104592351Y-96781056D01*
X104828700Y-96342784D01*
X104839146Y-96251889D01*
X105056202Y-96033570D01*
X105328718Y-96027050D01*
X105655300Y-95986399D01*
X105646398Y-95842370D01*
X105808710Y-95664552D01*
X106351820Y-95392235D01*
X107146371Y-95071496D01*
X108063006Y-94748414D01*
X108972369Y-94469063D01*
X109745104Y-94279522D01*
X110191450Y-94223417D01*
X110484153Y-94287583D01*
X116118491Y-94287583D01*
X116078000Y-94186439D01*
X116272403Y-93814393D01*
X116700780Y-93406871D01*
X117130879Y-93178703D01*
X117173081Y-93173498D01*
X117308415Y-93362379D01*
X120021816Y-93362379D01*
X120053631Y-93320042D01*
X120651840Y-93254488D01*
X121774701Y-93230785D01*
X122969213Y-93247110D01*
X124445048Y-93290484D01*
X125514895Y-93350340D01*
X126301916Y-93447330D01*
X126929275Y-93602108D01*
X127520133Y-93835325D01*
X128069151Y-94102296D01*
X129005222Y-94637247D01*
X129849025Y-95222097D01*
X130289419Y-95605004D01*
X130725492Y-96116011D01*
X130783707Y-96314780D01*
X133644407Y-96314780D01*
X133185787Y-95984328D01*
X132749732Y-95395649D01*
X132456762Y-94742420D01*
X132384759Y-94187597D01*
X132531742Y-93928194D01*
X132692057Y-93673085D01*
X132438732Y-93263724D01*
X132405500Y-93226549D01*
X132059044Y-92747365D01*
X132023282Y-92649711D01*
X114947958Y-92649711D01*
X114861377Y-93051628D01*
X114673774Y-93093883D01*
X114380694Y-92773855D01*
X114379774Y-92768209D01*
X98880083Y-92768209D01*
X98747791Y-92900500D01*
X98615500Y-92768209D01*
X98747791Y-92635917D01*
X98880083Y-92768209D01*
X114379774Y-92768209D01*
X114358208Y-92635917D01*
X114498483Y-92249031D01*
X114769441Y-92248869D01*
X114946284Y-92630174D01*
X114947958Y-92649711D01*
X132023282Y-92649711D01*
X131953000Y-92457799D01*
X131793596Y-92097920D01*
X131399517Y-91549062D01*
X131291865Y-91420299D01*
X130856739Y-90799341D01*
X130636896Y-90260539D01*
X130630406Y-90188521D01*
X130617905Y-90148972D01*
X128000449Y-90148972D01*
X127634599Y-90190724D01*
X127455083Y-90193283D01*
X126973722Y-90165698D01*
X126916992Y-90097018D01*
X126992062Y-90072283D01*
X127663106Y-90031135D01*
X127918104Y-90072283D01*
X128000449Y-90148972D01*
X130617905Y-90148972D01*
X130525865Y-89857792D01*
X119253000Y-89857792D01*
X119120708Y-89990084D01*
X118988416Y-89857792D01*
X119032513Y-89813695D01*
X112285639Y-89813695D01*
X112249319Y-89970989D01*
X112109250Y-89990084D01*
X111891468Y-89893277D01*
X111932861Y-89813695D01*
X112246859Y-89782029D01*
X112285639Y-89813695D01*
X119032513Y-89813695D01*
X119120708Y-89725500D01*
X119253000Y-89857792D01*
X130525865Y-89857792D01*
X130506286Y-89795855D01*
X130367547Y-89725500D01*
X130301852Y-89593209D01*
X120575916Y-89593209D01*
X120443625Y-89725500D01*
X120311333Y-89593209D01*
X120443625Y-89460917D01*
X120575916Y-89593209D01*
X130301852Y-89593209D01*
X130243115Y-89474931D01*
X130211164Y-89064042D01*
X120575916Y-89064042D01*
X120443625Y-89196334D01*
X120354324Y-89107033D01*
X111963341Y-89107033D01*
X111861335Y-89363170D01*
X111687093Y-89355535D01*
X111276136Y-89378046D01*
X111176067Y-89472472D01*
X110765634Y-89698819D01*
X110091036Y-89725210D01*
X109367846Y-89574997D01*
X108811637Y-89271535D01*
X108752173Y-89209887D01*
X108368298Y-88857540D01*
X108151606Y-88792594D01*
X108044930Y-88643767D01*
X108022745Y-88200508D01*
X108243653Y-87545759D01*
X108728206Y-87200515D01*
X109312055Y-87242616D01*
X109607094Y-87450130D01*
X109892176Y-87861272D01*
X109752900Y-88238743D01*
X109712572Y-88288882D01*
X109522517Y-88719930D01*
X109675083Y-88984667D01*
X110077578Y-89098991D01*
X110491856Y-88841121D01*
X110757565Y-88339251D01*
X110786333Y-88096294D01*
X110867798Y-87748636D01*
X111201628Y-87813954D01*
X111283123Y-87856089D01*
X111629483Y-88187386D01*
X111871140Y-88659736D01*
X111963341Y-89107033D01*
X120354324Y-89107033D01*
X120311333Y-89064042D01*
X120443625Y-88931750D01*
X120575916Y-89064042D01*
X130211164Y-89064042D01*
X130188407Y-88771409D01*
X130208721Y-87687212D01*
X130212504Y-87610388D01*
X130221366Y-87173863D01*
X120180234Y-87173863D01*
X120161723Y-87789798D01*
X120035507Y-88189307D01*
X119678034Y-88655821D01*
X119056711Y-88860971D01*
X118743775Y-88889564D01*
X117906774Y-88823585D01*
X117425091Y-88564004D01*
X117242633Y-88143077D01*
X117449371Y-87629566D01*
X117810962Y-87247236D01*
X114755083Y-87247236D01*
X114624635Y-87635190D01*
X114363229Y-87786302D01*
X114265604Y-87736715D01*
X114302119Y-87464891D01*
X114441993Y-87286924D01*
X114708372Y-87137766D01*
X114755083Y-87247236D01*
X117810962Y-87247236D01*
X117835674Y-87221107D01*
X118225194Y-87079179D01*
X118448975Y-87251515D01*
X118459250Y-87344250D01*
X118253845Y-87595886D01*
X118162270Y-87608833D01*
X118027570Y-87742937D01*
X118201980Y-88014520D01*
X118650786Y-88323569D01*
X119019008Y-88130354D01*
X119253000Y-87476542D01*
X119445711Y-86900050D01*
X119693568Y-86623909D01*
X120011511Y-86727224D01*
X120180234Y-87173863D01*
X130221366Y-87173863D01*
X130235568Y-86474344D01*
X130179043Y-85683866D01*
X130049380Y-85328071D01*
X130047245Y-85326705D01*
X129637770Y-85209893D01*
X128908895Y-85105135D01*
X128490065Y-85068136D01*
X127319311Y-84838223D01*
X126668902Y-84441402D01*
X126165752Y-84047369D01*
X125794093Y-83904667D01*
X125263428Y-83644009D01*
X124703582Y-82874410D01*
X124334834Y-82068198D01*
X103642583Y-82068198D01*
X103440774Y-82310041D01*
X103378000Y-82317167D01*
X103145798Y-82101806D01*
X103113416Y-81904677D01*
X103241684Y-81630818D01*
X103378000Y-81655709D01*
X103632491Y-81993967D01*
X103642583Y-82068198D01*
X124334834Y-82068198D01*
X124127289Y-81614434D01*
X124011400Y-81305837D01*
X123692798Y-80340338D01*
X123571231Y-79613481D01*
X123623066Y-78882949D01*
X123723982Y-78358754D01*
X123913033Y-77193893D01*
X123970558Y-76471111D01*
X123393604Y-76471111D01*
X123200652Y-77685740D01*
X122822562Y-78368059D01*
X122512266Y-78764402D01*
X122571939Y-78856531D01*
X122721521Y-78812738D01*
X123040842Y-78820069D01*
X123086017Y-79230895D01*
X123018090Y-79744640D01*
X122903576Y-79917897D01*
X122684279Y-79935917D01*
X122358142Y-79725550D01*
X122268260Y-79562920D01*
X121925531Y-79226125D01*
X121416929Y-79012176D01*
X120708732Y-78834430D01*
X121369928Y-78468507D01*
X121767061Y-78208357D01*
X121699515Y-78102522D01*
X121568104Y-78093209D01*
X121168949Y-77950022D01*
X121157153Y-77695152D01*
X121539258Y-77554755D01*
X121552528Y-77554667D01*
X121828512Y-77513218D01*
X121686604Y-77323139D01*
X121486382Y-77166206D01*
X121147781Y-76877724D01*
X121232654Y-76780160D01*
X121435812Y-76769331D01*
X121828713Y-76637166D01*
X121898833Y-76496334D01*
X122111837Y-76258654D01*
X122277879Y-76231750D01*
X122655140Y-76011396D01*
X122824875Y-75702584D01*
X123051564Y-75228083D01*
X123244513Y-75236387D01*
X123369413Y-75681134D01*
X123393604Y-76471111D01*
X123970558Y-76471111D01*
X124009290Y-75984468D01*
X124015245Y-74853019D01*
X123933394Y-73922086D01*
X123766230Y-73314210D01*
X123618033Y-73152203D01*
X122851183Y-73102899D01*
X121937574Y-73503683D01*
G36*
X117484759Y-114811307D02*
G01*
X117453217Y-115224819D01*
X117505647Y-115318426D01*
X117625904Y-115239517D01*
X117644612Y-114971160D01*
X117579995Y-114688841D01*
X117484759Y-114811307D01*
G37*
X117484759Y-114811307D02*
X117453217Y-115224819D01*
X117505647Y-115318426D01*
X117625904Y-115239517D01*
X117644612Y-114971160D01*
X117579995Y-114688841D01*
X117484759Y-114811307D01*
G36*
X116342583Y-115257792D02*
G01*
X116474875Y-115390084D01*
X116607166Y-115257792D01*
X116474875Y-115125500D01*
X116342583Y-115257792D01*
G37*
X116342583Y-115257792D02*
X116474875Y-115390084D01*
X116607166Y-115257792D01*
X116474875Y-115125500D01*
X116342583Y-115257792D01*
G36*
X103582060Y-105212696D02*
G01*
X103125701Y-105560177D01*
X103009886Y-105753249D01*
X102927705Y-106085708D01*
X103108819Y-106011504D01*
X103520596Y-105589114D01*
X103817886Y-105224407D01*
X103745449Y-105158304D01*
X103582060Y-105212696D01*
G37*
X103582060Y-105212696D02*
X103125701Y-105560177D01*
X103009886Y-105753249D01*
X102927705Y-106085708D01*
X103108819Y-106011504D01*
X103520596Y-105589114D01*
X103817886Y-105224407D01*
X103745449Y-105158304D01*
X103582060Y-105212696D01*
G36*
X119588080Y-101294084D02*
G01*
X119518532Y-101749718D01*
X119517583Y-101827802D01*
X119594427Y-102458564D01*
X119779604Y-102820718D01*
X119783138Y-102822975D01*
X119931461Y-103174950D01*
X119893991Y-103603476D01*
X119884924Y-104120958D01*
X120072714Y-104417412D01*
X120335137Y-104380698D01*
X120481350Y-104142389D01*
X120499778Y-103636177D01*
X120362105Y-102864775D01*
X120124820Y-102047578D01*
X119844410Y-101403985D01*
X119736161Y-101248104D01*
X119588080Y-101294084D01*
G37*
X119588080Y-101294084D02*
X119518532Y-101749718D01*
X119517583Y-101827802D01*
X119594427Y-102458564D01*
X119779604Y-102820718D01*
X119783138Y-102822975D01*
X119931461Y-103174950D01*
X119893991Y-103603476D01*
X119884924Y-104120958D01*
X120072714Y-104417412D01*
X120335137Y-104380698D01*
X120481350Y-104142389D01*
X120499778Y-103636177D01*
X120362105Y-102864775D01*
X120124820Y-102047578D01*
X119844410Y-101403985D01*
X119736161Y-101248104D01*
X119588080Y-101294084D01*
G36*
X103065555Y-103679453D02*
G01*
X102987182Y-103743390D01*
X102620235Y-104116291D01*
X102704811Y-104269172D01*
X102820526Y-104277583D01*
X103104676Y-104065520D01*
X103223458Y-103843285D01*
X103291301Y-103557649D01*
X103065555Y-103679453D01*
G37*
X103065555Y-103679453D02*
X102987182Y-103743390D01*
X102620235Y-104116291D01*
X102704811Y-104269172D01*
X102820526Y-104277583D01*
X103104676Y-104065520D01*
X103223458Y-103843285D01*
X103291301Y-103557649D01*
X103065555Y-103679453D01*
G36*
X101878694Y-103836611D02*
G01*
X101915014Y-103993906D01*
X102055083Y-104013000D01*
X102272865Y-103916193D01*
X102231472Y-103836611D01*
X101917474Y-103804946D01*
X101878694Y-103836611D01*
G37*
X101878694Y-103836611D02*
X101915014Y-103993906D01*
X102055083Y-104013000D01*
X102272865Y-103916193D01*
X102231472Y-103836611D01*
X101917474Y-103804946D01*
X101878694Y-103836611D01*
G36*
X103642583Y-103351542D02*
G01*
X103774875Y-103483833D01*
X103907166Y-103351542D01*
X103774875Y-103219250D01*
X103642583Y-103351542D01*
G37*
X103642583Y-103351542D02*
X103774875Y-103483833D01*
X103907166Y-103351542D01*
X103774875Y-103219250D01*
X103642583Y-103351542D01*
G36*
X102584250Y-102557792D02*
G01*
X102716541Y-102690083D01*
X102848833Y-102557792D01*
X102716541Y-102425500D01*
X102584250Y-102557792D01*
G37*
X102584250Y-102557792D02*
X102716541Y-102690083D01*
X102848833Y-102557792D01*
X102716541Y-102425500D01*
X102584250Y-102557792D01*
G36*
X101525916Y-102028625D02*
G01*
X101658208Y-102160917D01*
X101790500Y-102028625D01*
X101658208Y-101896333D01*
X101525916Y-102028625D01*
G37*
X101525916Y-102028625D02*
X101658208Y-102160917D01*
X101790500Y-102028625D01*
X101658208Y-101896333D01*
X101525916Y-102028625D01*
G36*
X102360547Y-100415860D02*
G01*
X102076505Y-100682267D01*
X102134772Y-100835425D01*
X102171760Y-100838000D01*
X102395549Y-100650072D01*
X102477224Y-100532536D01*
X102508408Y-100351483D01*
X102360547Y-100415860D01*
G37*
X102360547Y-100415860D02*
X102076505Y-100682267D01*
X102134772Y-100835425D01*
X102171760Y-100838000D01*
X102395549Y-100650072D01*
X102477224Y-100532536D01*
X102508408Y-100351483D01*
X102360547Y-100415860D01*
G36*
X123486333Y-100441125D02*
G01*
X123618625Y-100573417D01*
X123750917Y-100441125D01*
X123618625Y-100308833D01*
X123486333Y-100441125D01*
G37*
X123486333Y-100441125D02*
X123618625Y-100573417D01*
X123750917Y-100441125D01*
X123618625Y-100308833D01*
X123486333Y-100441125D01*
G36*
X107644574Y-98025712D02*
G01*
X107051943Y-98438394D01*
X107011530Y-98467682D01*
X106331541Y-98999953D01*
X105867451Y-99437428D01*
X105734915Y-99640761D01*
X105860455Y-99946988D01*
X106223389Y-99875371D01*
X106707514Y-99454021D01*
X107455020Y-98579600D01*
X107854664Y-98068571D01*
X107914998Y-97893190D01*
X107644574Y-98025712D01*
G37*
X107644574Y-98025712D02*
X107051943Y-98438394D01*
X107011530Y-98467682D01*
X106331541Y-98999953D01*
X105867451Y-99437428D01*
X105734915Y-99640761D01*
X105860455Y-99946988D01*
X106223389Y-99875371D01*
X106707514Y-99454021D01*
X107455020Y-98579600D01*
X107854664Y-98068571D01*
X107914998Y-97893190D01*
X107644574Y-98025712D01*
G36*
X106567344Y-97489615D02*
G01*
X106032750Y-97839988D01*
X105401460Y-98303726D01*
X104777931Y-98807131D01*
X104266618Y-99276507D01*
X104191775Y-99354684D01*
X103855965Y-99798263D01*
X103827967Y-100033063D01*
X103875961Y-100044250D01*
X104241395Y-99862802D01*
X104773438Y-99406847D01*
X104988057Y-99184354D01*
X105570753Y-98653885D01*
X106092235Y-98351169D01*
X106229913Y-98324109D01*
X106620242Y-98197106D01*
X106689167Y-98059875D01*
X106553000Y-98059875D01*
X106420708Y-98192167D01*
X106288417Y-98059875D01*
X106420708Y-97927583D01*
X106553000Y-98059875D01*
X106689167Y-98059875D01*
X106689343Y-98059526D01*
X106822963Y-97618044D01*
X106928614Y-97423757D01*
X106900784Y-97326306D01*
X106567344Y-97489615D01*
G37*
X106567344Y-97489615D02*
X106032750Y-97839988D01*
X105401460Y-98303726D01*
X104777931Y-98807131D01*
X104266618Y-99276507D01*
X104191775Y-99354684D01*
X103855965Y-99798263D01*
X103827967Y-100033063D01*
X103875961Y-100044250D01*
X104241395Y-99862802D01*
X104773438Y-99406847D01*
X104988057Y-99184354D01*
X105570753Y-98653885D01*
X106092235Y-98351169D01*
X106229913Y-98324109D01*
X106620242Y-98197106D01*
X106689167Y-98059875D01*
X106553000Y-98059875D01*
X106420708Y-98192167D01*
X106288417Y-98059875D01*
X106420708Y-97927583D01*
X106553000Y-98059875D01*
X106689167Y-98059875D01*
X106689343Y-98059526D01*
X106822963Y-97618044D01*
X106928614Y-97423757D01*
X106900784Y-97326306D01*
X106567344Y-97489615D01*
G36*
X115637028Y-98280361D02*
G01*
X115605362Y-98594360D01*
X115637028Y-98633139D01*
X115794322Y-98596820D01*
X115813416Y-98456750D01*
X115716610Y-98238968D01*
X115637028Y-98280361D01*
G37*
X115637028Y-98280361D02*
X115605362Y-98594360D01*
X115637028Y-98633139D01*
X115794322Y-98596820D01*
X115813416Y-98456750D01*
X115716610Y-98238968D01*
X115637028Y-98280361D01*
G36*
X107429760Y-97040157D02*
G01*
X107479042Y-97133833D01*
X107728336Y-97386511D01*
X107774855Y-97398417D01*
X107792907Y-97227510D01*
X107743625Y-97133833D01*
X107494331Y-96881156D01*
X107447812Y-96869250D01*
X107429760Y-97040157D01*
G37*
X107429760Y-97040157D02*
X107479042Y-97133833D01*
X107728336Y-97386511D01*
X107774855Y-97398417D01*
X107792907Y-97227510D01*
X107743625Y-97133833D01*
X107494331Y-96881156D01*
X107447812Y-96869250D01*
X107429760Y-97040157D01*
G36*
X109000396Y-96182653D02*
G01*
X108500458Y-96651768D01*
X108428281Y-96856086D01*
X108496368Y-96869250D01*
X108712447Y-96690821D01*
X109091680Y-96273938D01*
X109595708Y-95678625D01*
X109000396Y-96182653D01*
G37*
X109000396Y-96182653D02*
X108500458Y-96651768D01*
X108428281Y-96856086D01*
X108496368Y-96869250D01*
X108712447Y-96690821D01*
X109091680Y-96273938D01*
X109595708Y-95678625D01*
X109000396Y-96182653D01*
G36*
X103201611Y-78701195D02*
G01*
X103237930Y-78858489D01*
X103378000Y-78877583D01*
X103595782Y-78780777D01*
X103554389Y-78701195D01*
X103240390Y-78669529D01*
X103201611Y-78701195D01*
G37*
X103201611Y-78701195D02*
X103237930Y-78858489D01*
X103378000Y-78877583D01*
X103595782Y-78780777D01*
X103554389Y-78701195D01*
X103240390Y-78669529D01*
X103201611Y-78701195D01*
G36*
X103907166Y-78480708D02*
G01*
X104039458Y-78613000D01*
X104171750Y-78480708D01*
X104039458Y-78348417D01*
X103907166Y-78480708D01*
G37*
X103907166Y-78480708D02*
X104039458Y-78613000D01*
X104171750Y-78480708D01*
X104039458Y-78348417D01*
X103907166Y-78480708D01*
G36*
X102672444Y-78172028D02*
G01*
X102708764Y-78329322D01*
X102848833Y-78348417D01*
X103066615Y-78251610D01*
X103025222Y-78172028D01*
X102711224Y-78140362D01*
X102672444Y-78172028D01*
G37*
X102672444Y-78172028D02*
X102708764Y-78329322D01*
X102848833Y-78348417D01*
X103066615Y-78251610D01*
X103025222Y-78172028D01*
X102711224Y-78140362D01*
X102672444Y-78172028D01*
G36*
X102584250Y-77686958D02*
G01*
X102716541Y-77819250D01*
X102848833Y-77686958D01*
X102716541Y-77554667D01*
X102584250Y-77686958D01*
G37*
X102584250Y-77686958D02*
X102716541Y-77819250D01*
X102848833Y-77686958D01*
X102716541Y-77554667D01*
X102584250Y-77686958D01*
G36*
X124015500Y-95943209D02*
G01*
X124147792Y-96075500D01*
X124280083Y-95943209D01*
X124147792Y-95810917D01*
X124015500Y-95943209D01*
G37*
X124015500Y-95943209D02*
X124147792Y-96075500D01*
X124280083Y-95943209D01*
X124147792Y-95810917D01*
X124015500Y-95943209D01*
G36*
X123486333Y-95678625D02*
G01*
X123618625Y-95810917D01*
X123750917Y-95678625D01*
X123618625Y-95546334D01*
X123486333Y-95678625D01*
G37*
X123486333Y-95678625D02*
X123618625Y-95810917D01*
X123750917Y-95678625D01*
X123618625Y-95546334D01*
X123486333Y-95678625D01*
G36*
X122957167Y-95678625D02*
G01*
X123089458Y-95810917D01*
X123221750Y-95678625D01*
X123089458Y-95546334D01*
X122957167Y-95678625D01*
G37*
X122957167Y-95678625D02*
X123089458Y-95810917D01*
X123221750Y-95678625D01*
X123089458Y-95546334D01*
X122957167Y-95678625D01*
G36*
X121054369Y-94940233D02*
G01*
X121105083Y-94972528D01*
X121670865Y-95233177D01*
X122163417Y-95394671D01*
X122561599Y-95472297D01*
X122478714Y-95358684D01*
X122428000Y-95326389D01*
X121862218Y-95065740D01*
X121369666Y-94904246D01*
X120971484Y-94826620D01*
X121054369Y-94940233D01*
G37*
X121054369Y-94940233D02*
X121105083Y-94972528D01*
X121670865Y-95233177D01*
X122163417Y-95394671D01*
X122561599Y-95472297D01*
X122478714Y-95358684D01*
X122428000Y-95326389D01*
X121862218Y-95065740D01*
X121369666Y-94904246D01*
X120971484Y-94826620D01*
X121054369Y-94940233D01*
G36*
X104171750Y-97001542D02*
G01*
X104304041Y-97133833D01*
X104436333Y-97001542D01*
X104304041Y-96869250D01*
X104171750Y-97001542D01*
G37*
X104171750Y-97001542D02*
X104304041Y-97133833D01*
X104436333Y-97001542D01*
X104304041Y-96869250D01*
X104171750Y-97001542D01*
G36*
X122251611Y-77907445D02*
G01*
X122219945Y-78221443D01*
X122251611Y-78260222D01*
X122408905Y-78223903D01*
X122428000Y-78083833D01*
X122331193Y-77866051D01*
X122251611Y-77907445D01*
G37*
X122251611Y-77907445D02*
X122219945Y-78221443D01*
X122251611Y-78260222D01*
X122408905Y-78223903D01*
X122428000Y-78083833D01*
X122331193Y-77866051D01*
X122251611Y-77907445D01*
%TD*%
M02*
