%TF.GenerationSoftware,KiCad,Pcbnew,(5.1.9)-1*%
%TF.CreationDate,2021-06-30T11:05:27-04:00*%
%TF.ProjectId,charging_board_relay,63686172-6769-46e6-975f-626f6172645f,rev?*%
%TF.SameCoordinates,Original*%
%TF.FileFunction,Soldermask,Bot*%
%TF.FilePolarity,Negative*%
%FSLAX46Y46*%
G04 Gerber Fmt 4.6, Leading zero omitted, Abs format (unit mm)*
G04 Created by KiCad (PCBNEW (5.1.9)-1) date 2021-06-30 11:05:27*
%MOMM*%
%LPD*%
G01*
G04 APERTURE LIST*
%ADD10C,2.000000*%
%ADD11C,2.300000*%
%ADD12C,1.350000*%
%ADD13C,1.651000*%
%ADD14C,6.500000*%
%ADD15O,1.700000X1.700000*%
%ADD16R,1.700000X1.700000*%
%ADD17C,1.700000*%
G04 APERTURE END LIST*
D10*
%TO.C,K3*%
X100584000Y-110490000D03*
X100584000Y-102890000D03*
D11*
X120584000Y-110490000D03*
X117084000Y-102890000D03*
X124084000Y-102890000D03*
%TD*%
D12*
%TO.C,F1*%
X74168000Y-139700000D03*
X74168000Y-134620000D03*
%TD*%
D13*
%TO.C,J1*%
X75692000Y-148336000D03*
%TD*%
D14*
%TO.C,J2*%
X81534000Y-146304000D03*
X88784000Y-146304000D03*
%TD*%
D13*
%TO.C,J3*%
X94742000Y-148336000D03*
%TD*%
%TO.C,J4*%
X66040000Y-72390000D03*
X66040000Y-69850000D03*
X66040000Y-67310000D03*
X66040000Y-64770000D03*
X66040000Y-62230000D03*
X66040000Y-59690000D03*
%TD*%
%TO.C,J5*%
X88900000Y-52578000D03*
X86360000Y-52578000D03*
X83820000Y-52578000D03*
X81280000Y-52578000D03*
X78740000Y-52578000D03*
X76200000Y-52578000D03*
%TD*%
D11*
%TO.C,K1*%
X124084000Y-54122000D03*
X117084000Y-54122000D03*
X120584000Y-61722000D03*
D10*
X100584000Y-54122000D03*
X100584000Y-61722000D03*
%TD*%
D11*
%TO.C,K2*%
X124084000Y-78506000D03*
X117084000Y-78506000D03*
X120584000Y-86106000D03*
D10*
X100584000Y-78506000D03*
X100584000Y-86106000D03*
%TD*%
%TO.C,K4*%
X100584000Y-134874000D03*
X100584000Y-127274000D03*
D11*
X120584000Y-134874000D03*
X117084000Y-127274000D03*
X124084000Y-127274000D03*
%TD*%
%TO.C,K5*%
X153802000Y-54122000D03*
X146802000Y-54122000D03*
X150302000Y-61722000D03*
D10*
X130302000Y-54122000D03*
X130302000Y-61722000D03*
%TD*%
%TO.C,K7*%
X130302000Y-110490000D03*
X130302000Y-102890000D03*
D11*
X150302000Y-110490000D03*
X146802000Y-102890000D03*
X153802000Y-102890000D03*
%TD*%
D10*
%TO.C,K8*%
X130302000Y-134874000D03*
X130302000Y-127274000D03*
D11*
X150302000Y-134874000D03*
X146802000Y-127274000D03*
X153802000Y-127274000D03*
%TD*%
D15*
%TO.C,U1*%
X66802000Y-121666000D03*
X66802000Y-119126000D03*
X66802000Y-116586000D03*
X66802000Y-114046000D03*
X66802000Y-111506000D03*
X66802000Y-108966000D03*
X66802000Y-106426000D03*
X66802000Y-103886000D03*
X66802000Y-101346000D03*
X66802000Y-98806000D03*
X66802000Y-96266000D03*
X66802000Y-93726000D03*
X66802000Y-91186000D03*
X66802000Y-88646000D03*
X66802000Y-86106000D03*
X66802000Y-83566000D03*
X66802000Y-81026000D03*
D16*
X66802000Y-78486000D03*
D15*
X89662000Y-81026000D03*
X89662000Y-114046000D03*
X89662000Y-93726000D03*
X89662000Y-106426000D03*
X89662000Y-119126000D03*
X89662000Y-108966000D03*
X89662000Y-91186000D03*
X89662000Y-96266000D03*
X89662000Y-116586000D03*
X89662000Y-121666000D03*
D17*
X89662000Y-78486000D03*
D15*
X89662000Y-83566000D03*
X89662000Y-103886000D03*
X89662000Y-101346000D03*
X89662000Y-111506000D03*
X89662000Y-86106000D03*
X89662000Y-88646000D03*
X89662000Y-98806000D03*
%TD*%
D13*
%TO.C,J6*%
X161798000Y-63246000D03*
X161798000Y-60579000D03*
%TD*%
%TO.C,J7*%
X161798000Y-85217000D03*
X161798000Y-87884000D03*
%TD*%
%TO.C,J8*%
X161798000Y-109728000D03*
X161798000Y-112395000D03*
%TD*%
%TO.C,J9*%
X161798000Y-136525000D03*
X161798000Y-133858000D03*
%TD*%
D10*
%TO.C,K6*%
X130302000Y-86106000D03*
X130302000Y-78506000D03*
D11*
X150302000Y-86106000D03*
X146802000Y-78506000D03*
X153802000Y-78506000D03*
%TD*%
M02*
