%TF.GenerationSoftware,KiCad,Pcbnew,(5.1.9)-1*%
%TF.CreationDate,2021-06-30T11:05:27-04:00*%
%TF.ProjectId,charging_board_relay,63686172-6769-46e6-975f-626f6172645f,rev?*%
%TF.SameCoordinates,Original*%
%TF.FileFunction,Legend,Top*%
%TF.FilePolarity,Positive*%
%FSLAX46Y46*%
G04 Gerber Fmt 4.6, Leading zero omitted, Abs format (unit mm)*
G04 Created by KiCad (PCBNEW (5.1.9)-1) date 2021-06-30 11:05:27*
%MOMM*%
%LPD*%
G01*
G04 APERTURE LIST*
%ADD10C,0.150000*%
%ADD11C,0.300000*%
%ADD12C,0.120000*%
%ADD13C,0.127000*%
%ADD14C,0.200000*%
G04 APERTURE END LIST*
D10*
X88400000Y-56641904D02*
X88352380Y-56737142D01*
X88352380Y-56880000D01*
X88400000Y-57022857D01*
X88495238Y-57118095D01*
X88590476Y-57165714D01*
X88780952Y-57213333D01*
X88923809Y-57213333D01*
X89114285Y-57165714D01*
X89209523Y-57118095D01*
X89304761Y-57022857D01*
X89352380Y-56880000D01*
X89352380Y-56784761D01*
X89304761Y-56641904D01*
X89257142Y-56594285D01*
X88923809Y-56594285D01*
X88923809Y-56784761D01*
X89352380Y-56165714D02*
X88352380Y-56165714D01*
X89352380Y-55594285D01*
X88352380Y-55594285D01*
X89352380Y-55118095D02*
X88352380Y-55118095D01*
X88352380Y-54880000D01*
X88400000Y-54737142D01*
X88495238Y-54641904D01*
X88590476Y-54594285D01*
X88780952Y-54546666D01*
X88923809Y-54546666D01*
X89114285Y-54594285D01*
X89209523Y-54641904D01*
X89304761Y-54737142D01*
X89352380Y-54880000D01*
X89352380Y-55118095D01*
X85860000Y-58880142D02*
X85812380Y-58975380D01*
X85812380Y-59118238D01*
X85860000Y-59261095D01*
X85955238Y-59356333D01*
X86050476Y-59403952D01*
X86240952Y-59451571D01*
X86383809Y-59451571D01*
X86574285Y-59403952D01*
X86669523Y-59356333D01*
X86764761Y-59261095D01*
X86812380Y-59118238D01*
X86812380Y-59023000D01*
X86764761Y-58880142D01*
X86717142Y-58832523D01*
X86383809Y-58832523D01*
X86383809Y-59023000D01*
X86812380Y-58403952D02*
X85812380Y-58403952D01*
X85812380Y-58023000D01*
X85860000Y-57927761D01*
X85907619Y-57880142D01*
X86002857Y-57832523D01*
X86145714Y-57832523D01*
X86240952Y-57880142D01*
X86288571Y-57927761D01*
X86336190Y-58023000D01*
X86336190Y-58403952D01*
X86812380Y-57403952D02*
X85812380Y-57403952D01*
X85812380Y-56737285D02*
X85812380Y-56546809D01*
X85860000Y-56451571D01*
X85955238Y-56356333D01*
X86145714Y-56308714D01*
X86479047Y-56308714D01*
X86669523Y-56356333D01*
X86764761Y-56451571D01*
X86812380Y-56546809D01*
X86812380Y-56737285D01*
X86764761Y-56832523D01*
X86669523Y-56927761D01*
X86479047Y-56975380D01*
X86145714Y-56975380D01*
X85955238Y-56927761D01*
X85860000Y-56832523D01*
X85812380Y-56737285D01*
X85812380Y-54927761D02*
X85812380Y-54832523D01*
X85860000Y-54737285D01*
X85907619Y-54689666D01*
X86002857Y-54642047D01*
X86193333Y-54594428D01*
X86431428Y-54594428D01*
X86621904Y-54642047D01*
X86717142Y-54689666D01*
X86764761Y-54737285D01*
X86812380Y-54832523D01*
X86812380Y-54927761D01*
X86764761Y-55023000D01*
X86717142Y-55070619D01*
X86621904Y-55118238D01*
X86431428Y-55165857D01*
X86193333Y-55165857D01*
X86002857Y-55118238D01*
X85907619Y-55070619D01*
X85860000Y-55023000D01*
X85812380Y-54927761D01*
X83986666Y-59721428D02*
X83986666Y-59245238D01*
X84272380Y-59816666D02*
X83272380Y-59483333D01*
X84272380Y-59150000D01*
X84272380Y-58816666D02*
X83272380Y-58816666D01*
X83272380Y-58578571D01*
X83320000Y-58435714D01*
X83415238Y-58340476D01*
X83510476Y-58292857D01*
X83700952Y-58245238D01*
X83843809Y-58245238D01*
X84034285Y-58292857D01*
X84129523Y-58340476D01*
X84224761Y-58435714D01*
X84272380Y-58578571D01*
X84272380Y-58816666D01*
X84177142Y-57245238D02*
X84224761Y-57292857D01*
X84272380Y-57435714D01*
X84272380Y-57530952D01*
X84224761Y-57673809D01*
X84129523Y-57769047D01*
X84034285Y-57816666D01*
X83843809Y-57864285D01*
X83700952Y-57864285D01*
X83510476Y-57816666D01*
X83415238Y-57769047D01*
X83320000Y-57673809D01*
X83272380Y-57530952D01*
X83272380Y-57435714D01*
X83320000Y-57292857D01*
X83367619Y-57245238D01*
X84272380Y-56292857D02*
X84272380Y-56864285D01*
X84272380Y-56578571D02*
X83272380Y-56578571D01*
X83415238Y-56673809D01*
X83510476Y-56769047D01*
X83558095Y-56864285D01*
X83272380Y-55197619D02*
X83272380Y-54530952D01*
X84272380Y-54959523D01*
X80859380Y-56991095D02*
X80859380Y-56372047D01*
X81240333Y-56705380D01*
X81240333Y-56562523D01*
X81287952Y-56467285D01*
X81335571Y-56419666D01*
X81430809Y-56372047D01*
X81668904Y-56372047D01*
X81764142Y-56419666D01*
X81811761Y-56467285D01*
X81859380Y-56562523D01*
X81859380Y-56848238D01*
X81811761Y-56943476D01*
X81764142Y-56991095D01*
X80859380Y-56086333D02*
X81859380Y-55753000D01*
X80859380Y-55419666D01*
X80859380Y-55181571D02*
X80859380Y-54562523D01*
X81240333Y-54895857D01*
X81240333Y-54753000D01*
X81287952Y-54657761D01*
X81335571Y-54610142D01*
X81430809Y-54562523D01*
X81668904Y-54562523D01*
X81764142Y-54610142D01*
X81811761Y-54657761D01*
X81859380Y-54753000D01*
X81859380Y-55038714D01*
X81811761Y-55133952D01*
X81764142Y-55181571D01*
X78319380Y-56991095D02*
X78319380Y-56372047D01*
X78700333Y-56705380D01*
X78700333Y-56562523D01*
X78747952Y-56467285D01*
X78795571Y-56419666D01*
X78890809Y-56372047D01*
X79128904Y-56372047D01*
X79224142Y-56419666D01*
X79271761Y-56467285D01*
X79319380Y-56562523D01*
X79319380Y-56848238D01*
X79271761Y-56943476D01*
X79224142Y-56991095D01*
X78319380Y-56086333D02*
X79319380Y-55753000D01*
X78319380Y-55419666D01*
X78319380Y-55181571D02*
X78319380Y-54562523D01*
X78700333Y-54895857D01*
X78700333Y-54753000D01*
X78747952Y-54657761D01*
X78795571Y-54610142D01*
X78890809Y-54562523D01*
X79128904Y-54562523D01*
X79224142Y-54610142D01*
X79271761Y-54657761D01*
X79319380Y-54753000D01*
X79319380Y-55038714D01*
X79271761Y-55133952D01*
X79224142Y-55181571D01*
X75652380Y-55562476D02*
X75652380Y-56038666D01*
X76128571Y-56086285D01*
X76080952Y-56038666D01*
X76033333Y-55943428D01*
X76033333Y-55705333D01*
X76080952Y-55610095D01*
X76128571Y-55562476D01*
X76223809Y-55514857D01*
X76461904Y-55514857D01*
X76557142Y-55562476D01*
X76604761Y-55610095D01*
X76652380Y-55705333D01*
X76652380Y-55943428D01*
X76604761Y-56038666D01*
X76557142Y-56086285D01*
X75652380Y-55229142D02*
X76652380Y-54895809D01*
X75652380Y-54562476D01*
X67826142Y-71969380D02*
X68159476Y-72969380D01*
X68492809Y-71969380D01*
X68826142Y-72445571D02*
X69159476Y-72445571D01*
X69302333Y-72969380D02*
X68826142Y-72969380D01*
X68826142Y-71969380D01*
X69302333Y-71969380D01*
X69635666Y-71969380D02*
X70302333Y-72969380D01*
X70302333Y-71969380D02*
X69635666Y-72969380D01*
X70540428Y-71969380D02*
X71111857Y-71969380D01*
X70826142Y-72969380D02*
X70826142Y-71969380D01*
X68540380Y-70429380D02*
X68207047Y-69953190D01*
X67968952Y-70429380D02*
X67968952Y-69429380D01*
X68349904Y-69429380D01*
X68445142Y-69477000D01*
X68492761Y-69524619D01*
X68540380Y-69619857D01*
X68540380Y-69762714D01*
X68492761Y-69857952D01*
X68445142Y-69905571D01*
X68349904Y-69953190D01*
X67968952Y-69953190D01*
X68921333Y-70381761D02*
X69064190Y-70429380D01*
X69302285Y-70429380D01*
X69397523Y-70381761D01*
X69445142Y-70334142D01*
X69492761Y-70238904D01*
X69492761Y-70143666D01*
X69445142Y-70048428D01*
X69397523Y-70000809D01*
X69302285Y-69953190D01*
X69111809Y-69905571D01*
X69016571Y-69857952D01*
X68968952Y-69810333D01*
X68921333Y-69715095D01*
X68921333Y-69619857D01*
X68968952Y-69524619D01*
X69016571Y-69477000D01*
X69111809Y-69429380D01*
X69349904Y-69429380D01*
X69492761Y-69477000D01*
X69778476Y-69429380D02*
X70349904Y-69429380D01*
X70064190Y-70429380D02*
X70064190Y-69429380D01*
X67897523Y-67841761D02*
X68040380Y-67889380D01*
X68278476Y-67889380D01*
X68373714Y-67841761D01*
X68421333Y-67794142D01*
X68468952Y-67698904D01*
X68468952Y-67603666D01*
X68421333Y-67508428D01*
X68373714Y-67460809D01*
X68278476Y-67413190D01*
X68088000Y-67365571D01*
X67992761Y-67317952D01*
X67945142Y-67270333D01*
X67897523Y-67175095D01*
X67897523Y-67079857D01*
X67945142Y-66984619D01*
X67992761Y-66937000D01*
X68088000Y-66889380D01*
X68326095Y-66889380D01*
X68468952Y-66937000D01*
X69468952Y-67794142D02*
X69421333Y-67841761D01*
X69278476Y-67889380D01*
X69183238Y-67889380D01*
X69040380Y-67841761D01*
X68945142Y-67746523D01*
X68897523Y-67651285D01*
X68849904Y-67460809D01*
X68849904Y-67317952D01*
X68897523Y-67127476D01*
X68945142Y-67032238D01*
X69040380Y-66937000D01*
X69183238Y-66889380D01*
X69278476Y-66889380D01*
X69421333Y-66937000D01*
X69468952Y-66984619D01*
X70373714Y-67889380D02*
X69897523Y-67889380D01*
X69897523Y-66889380D01*
X67873714Y-65301761D02*
X68016571Y-65349380D01*
X68254666Y-65349380D01*
X68349904Y-65301761D01*
X68397523Y-65254142D01*
X68445142Y-65158904D01*
X68445142Y-65063666D01*
X68397523Y-64968428D01*
X68349904Y-64920809D01*
X68254666Y-64873190D01*
X68064190Y-64825571D01*
X67968952Y-64777952D01*
X67921333Y-64730333D01*
X67873714Y-64635095D01*
X67873714Y-64539857D01*
X67921333Y-64444619D01*
X67968952Y-64397000D01*
X68064190Y-64349380D01*
X68302285Y-64349380D01*
X68445142Y-64397000D01*
X68873714Y-65349380D02*
X68873714Y-64349380D01*
X69111809Y-64349380D01*
X69254666Y-64397000D01*
X69349904Y-64492238D01*
X69397523Y-64587476D01*
X69445142Y-64777952D01*
X69445142Y-64920809D01*
X69397523Y-65111285D01*
X69349904Y-65206523D01*
X69254666Y-65301761D01*
X69111809Y-65349380D01*
X68873714Y-65349380D01*
X69826095Y-65063666D02*
X70302285Y-65063666D01*
X69730857Y-65349380D02*
X70064190Y-64349380D01*
X70397523Y-65349380D01*
X68453095Y-61730000D02*
X68357857Y-61682380D01*
X68215000Y-61682380D01*
X68072142Y-61730000D01*
X67976904Y-61825238D01*
X67929285Y-61920476D01*
X67881666Y-62110952D01*
X67881666Y-62253809D01*
X67929285Y-62444285D01*
X67976904Y-62539523D01*
X68072142Y-62634761D01*
X68215000Y-62682380D01*
X68310238Y-62682380D01*
X68453095Y-62634761D01*
X68500714Y-62587142D01*
X68500714Y-62253809D01*
X68310238Y-62253809D01*
X68929285Y-62682380D02*
X68929285Y-61682380D01*
X69500714Y-62682380D01*
X69500714Y-61682380D01*
X69976904Y-62682380D02*
X69976904Y-61682380D01*
X70215000Y-61682380D01*
X70357857Y-61730000D01*
X70453095Y-61825238D01*
X70500714Y-61920476D01*
X70548333Y-62110952D01*
X70548333Y-62253809D01*
X70500714Y-62444285D01*
X70453095Y-62539523D01*
X70357857Y-62634761D01*
X70215000Y-62682380D01*
X69976904Y-62682380D01*
X68453095Y-59317000D02*
X68357857Y-59269380D01*
X68215000Y-59269380D01*
X68072142Y-59317000D01*
X67976904Y-59412238D01*
X67929285Y-59507476D01*
X67881666Y-59697952D01*
X67881666Y-59840809D01*
X67929285Y-60031285D01*
X67976904Y-60126523D01*
X68072142Y-60221761D01*
X68215000Y-60269380D01*
X68310238Y-60269380D01*
X68453095Y-60221761D01*
X68500714Y-60174142D01*
X68500714Y-59840809D01*
X68310238Y-59840809D01*
X68929285Y-60269380D02*
X68929285Y-59269380D01*
X69500714Y-60269380D01*
X69500714Y-59269380D01*
X69976904Y-60269380D02*
X69976904Y-59269380D01*
X70215000Y-59269380D01*
X70357857Y-59317000D01*
X70453095Y-59412238D01*
X70500714Y-59507476D01*
X70548333Y-59697952D01*
X70548333Y-59840809D01*
X70500714Y-60031285D01*
X70453095Y-60126523D01*
X70357857Y-60221761D01*
X70215000Y-60269380D01*
X69976904Y-60269380D01*
D11*
X108202571Y-147260571D02*
X108559714Y-148760571D01*
X108845428Y-147689142D01*
X109131142Y-148760571D01*
X109488285Y-147260571D01*
X110059714Y-148760571D02*
X110059714Y-147760571D01*
X110059714Y-147260571D02*
X109988285Y-147332000D01*
X110059714Y-147403428D01*
X110131142Y-147332000D01*
X110059714Y-147260571D01*
X110059714Y-147403428D01*
X110988285Y-148760571D02*
X110845428Y-148689142D01*
X110774000Y-148546285D01*
X110774000Y-147260571D01*
X111774000Y-148760571D02*
X111631142Y-148689142D01*
X111559714Y-148546285D01*
X111559714Y-147260571D01*
X113988285Y-147974857D02*
X113488285Y-147974857D01*
X113488285Y-148760571D02*
X113488285Y-147260571D01*
X114202571Y-147260571D01*
X115916857Y-148189142D02*
X117059714Y-148189142D01*
X118916857Y-148760571D02*
X118916857Y-147260571D01*
X118916857Y-147974857D02*
X119774000Y-147974857D01*
X119774000Y-148760571D02*
X119774000Y-147260571D01*
X120988285Y-147974857D02*
X121202571Y-148046285D01*
X121274000Y-148117714D01*
X121345428Y-148260571D01*
X121345428Y-148474857D01*
X121274000Y-148617714D01*
X121202571Y-148689142D01*
X121059714Y-148760571D01*
X120488285Y-148760571D01*
X120488285Y-147260571D01*
X120988285Y-147260571D01*
X121131142Y-147332000D01*
X121202571Y-147403428D01*
X121274000Y-147546285D01*
X121274000Y-147689142D01*
X121202571Y-147832000D01*
X121131142Y-147903428D01*
X120988285Y-147974857D01*
X120488285Y-147974857D01*
X122274000Y-147260571D02*
X122559714Y-147260571D01*
X122702571Y-147332000D01*
X122845428Y-147474857D01*
X122916857Y-147760571D01*
X122916857Y-148260571D01*
X122845428Y-148546285D01*
X122702571Y-148689142D01*
X122559714Y-148760571D01*
X122274000Y-148760571D01*
X122131142Y-148689142D01*
X121988285Y-148546285D01*
X121916857Y-148260571D01*
X121916857Y-147760571D01*
X121988285Y-147474857D01*
X122131142Y-147332000D01*
X122274000Y-147260571D01*
X123559714Y-148760571D02*
X123559714Y-147260571D01*
X125416857Y-148189142D02*
X126559714Y-148189142D01*
X129274000Y-148760571D02*
X128774000Y-148046285D01*
X128416857Y-148760571D02*
X128416857Y-147260571D01*
X128988285Y-147260571D01*
X129131142Y-147332000D01*
X129202571Y-147403428D01*
X129274000Y-147546285D01*
X129274000Y-147760571D01*
X129202571Y-147903428D01*
X129131142Y-147974857D01*
X128988285Y-148046285D01*
X128416857Y-148046285D01*
X129916857Y-147974857D02*
X130416857Y-147974857D01*
X130631142Y-148760571D02*
X129916857Y-148760571D01*
X129916857Y-147260571D01*
X130631142Y-147260571D01*
X131059714Y-147260571D02*
X131559714Y-148760571D01*
X132059714Y-147260571D01*
X134488285Y-148760571D02*
X133631142Y-148760571D01*
X134059714Y-148760571D02*
X134059714Y-147260571D01*
X133916857Y-147474857D01*
X133774000Y-147617714D01*
X133631142Y-147689142D01*
X136274000Y-148189142D02*
X137416857Y-148189142D01*
X139559714Y-147260571D02*
X139702571Y-147260571D01*
X139845428Y-147332000D01*
X139916857Y-147403428D01*
X139988285Y-147546285D01*
X140059714Y-147832000D01*
X140059714Y-148189142D01*
X139988285Y-148474857D01*
X139916857Y-148617714D01*
X139845428Y-148689142D01*
X139702571Y-148760571D01*
X139559714Y-148760571D01*
X139416857Y-148689142D01*
X139345428Y-148617714D01*
X139274000Y-148474857D01*
X139202571Y-148189142D01*
X139202571Y-147832000D01*
X139274000Y-147546285D01*
X139345428Y-147403428D01*
X139416857Y-147332000D01*
X139559714Y-147260571D01*
X141345428Y-147260571D02*
X141059714Y-147260571D01*
X140916857Y-147332000D01*
X140845428Y-147403428D01*
X140702571Y-147617714D01*
X140631142Y-147903428D01*
X140631142Y-148474857D01*
X140702571Y-148617714D01*
X140774000Y-148689142D01*
X140916857Y-148760571D01*
X141202571Y-148760571D01*
X141345428Y-148689142D01*
X141416857Y-148617714D01*
X141488285Y-148474857D01*
X141488285Y-148117714D01*
X141416857Y-147974857D01*
X141345428Y-147903428D01*
X141202571Y-147832000D01*
X140916857Y-147832000D01*
X140774000Y-147903428D01*
X140702571Y-147974857D01*
X140631142Y-148117714D01*
X143202571Y-147189142D02*
X141916857Y-149117714D01*
X143631142Y-147403428D02*
X143702571Y-147332000D01*
X143845428Y-147260571D01*
X144202571Y-147260571D01*
X144345428Y-147332000D01*
X144416857Y-147403428D01*
X144488285Y-147546285D01*
X144488285Y-147689142D01*
X144416857Y-147903428D01*
X143559714Y-148760571D01*
X144488285Y-148760571D01*
X145416857Y-147260571D02*
X145559714Y-147260571D01*
X145702571Y-147332000D01*
X145774000Y-147403428D01*
X145845428Y-147546285D01*
X145916857Y-147832000D01*
X145916857Y-148189142D01*
X145845428Y-148474857D01*
X145774000Y-148617714D01*
X145702571Y-148689142D01*
X145559714Y-148760571D01*
X145416857Y-148760571D01*
X145274000Y-148689142D01*
X145202571Y-148617714D01*
X145131142Y-148474857D01*
X145059714Y-148189142D01*
X145059714Y-147832000D01*
X145131142Y-147546285D01*
X145202571Y-147403428D01*
X145274000Y-147332000D01*
X145416857Y-147260571D01*
X146488285Y-147403428D02*
X146559714Y-147332000D01*
X146702571Y-147260571D01*
X147059714Y-147260571D01*
X147202571Y-147332000D01*
X147274000Y-147403428D01*
X147345428Y-147546285D01*
X147345428Y-147689142D01*
X147274000Y-147903428D01*
X146416857Y-148760571D01*
X147345428Y-148760571D01*
X148774000Y-148760571D02*
X147916857Y-148760571D01*
X148345428Y-148760571D02*
X148345428Y-147260571D01*
X148202571Y-147474857D01*
X148059714Y-147617714D01*
X147916857Y-147689142D01*
D12*
%TO.C,K9*%
X157530800Y-64940400D02*
X161930800Y-64940400D01*
X161930800Y-69240400D02*
X161930800Y-64940400D01*
X157530800Y-69240400D02*
X157530800Y-64940400D01*
X157530800Y-69240400D02*
X161930800Y-69240400D01*
%TO.C,K10*%
X157530800Y-89578400D02*
X161930800Y-89578400D01*
X161930800Y-93878400D02*
X161930800Y-89578400D01*
X157530800Y-93878400D02*
X157530800Y-89578400D01*
X157530800Y-93878400D02*
X161930800Y-93878400D01*
%TO.C,K11*%
X157530800Y-113962400D02*
X161930800Y-113962400D01*
X161930800Y-118262400D02*
X161930800Y-113962400D01*
X157530800Y-118262400D02*
X157530800Y-113962400D01*
X157530800Y-118262400D02*
X161930800Y-118262400D01*
%TO.C,D7*%
X129819400Y-117528340D02*
X129819400Y-117856000D01*
X134645400Y-114119660D02*
X134645400Y-113792000D01*
X134645400Y-117856000D02*
X134645400Y-117528340D01*
X129819400Y-117856000D02*
X134645400Y-117856000D01*
X129819400Y-113792000D02*
X129819400Y-114119660D01*
X134645400Y-113792000D02*
X129819400Y-113792000D01*
X135547100Y-116459000D02*
X135547100Y-115189000D01*
X136309100Y-115824000D02*
X135547100Y-115697000D01*
X136309100Y-115824000D02*
X135547100Y-115570000D01*
X136309100Y-115824000D02*
X135547100Y-115443000D01*
X136309100Y-115824000D02*
X135547100Y-115316000D01*
X136309100Y-115824000D02*
X135547100Y-115189000D01*
X136309100Y-115824000D02*
X135547100Y-115951000D01*
X136309100Y-115824000D02*
X135547100Y-116078000D01*
X136309100Y-115824000D02*
X135547100Y-116205000D01*
X136309100Y-115824000D02*
X135547100Y-116332000D01*
X136309100Y-115824000D02*
X135547100Y-116459000D01*
X136309100Y-116459000D02*
X136309100Y-115189000D01*
X135321040Y-115824000D02*
X136563100Y-115824000D01*
%TO.C,D3*%
X104180640Y-115570000D02*
X105422700Y-115570000D01*
X105168700Y-116205000D02*
X105168700Y-114935000D01*
X105168700Y-115570000D02*
X104406700Y-116205000D01*
X105168700Y-115570000D02*
X104406700Y-116078000D01*
X105168700Y-115570000D02*
X104406700Y-115951000D01*
X105168700Y-115570000D02*
X104406700Y-115824000D01*
X105168700Y-115570000D02*
X104406700Y-115697000D01*
X105168700Y-115570000D02*
X104406700Y-114935000D01*
X105168700Y-115570000D02*
X104406700Y-115062000D01*
X105168700Y-115570000D02*
X104406700Y-115189000D01*
X105168700Y-115570000D02*
X104406700Y-115316000D01*
X105168700Y-115570000D02*
X104406700Y-115443000D01*
X104406700Y-116205000D02*
X104406700Y-114935000D01*
X103505000Y-113538000D02*
X98679000Y-113538000D01*
X98679000Y-113538000D02*
X98679000Y-113865660D01*
X98679000Y-117602000D02*
X103505000Y-117602000D01*
X103505000Y-117602000D02*
X103505000Y-117274340D01*
X103505000Y-113865660D02*
X103505000Y-113538000D01*
X98679000Y-117274340D02*
X98679000Y-117602000D01*
%TO.C,R17*%
X133910000Y-71115422D02*
X133910000Y-71632578D01*
X135330000Y-71115422D02*
X135330000Y-71632578D01*
D11*
%TO.C,K3*%
X119888000Y-108966000D02*
X117792500Y-104394000D01*
D12*
X127734000Y-113090000D02*
X127734000Y-100290000D01*
X98534000Y-113090000D02*
X127734000Y-113090000D01*
X98534000Y-100290000D02*
X127734000Y-100290000D01*
X98534000Y-113090000D02*
X98534000Y-100290000D01*
%TO.C,C1*%
X78494000Y-125183000D02*
X79494000Y-125183000D01*
X79494000Y-123483000D02*
X78494000Y-123483000D01*
%TO.C,C2*%
X162775000Y-78097000D02*
X162775000Y-77097000D01*
X161075000Y-77097000D02*
X161075000Y-78097000D01*
%TO.C,C3*%
X162775000Y-102100000D02*
X162775000Y-101100000D01*
X161075000Y-101100000D02*
X161075000Y-102100000D01*
%TO.C,C4*%
X161710000Y-125484000D02*
X161710000Y-126484000D01*
X163410000Y-126484000D02*
X163410000Y-125484000D01*
%TO.C,D1*%
X104180640Y-66548000D02*
X105422700Y-66548000D01*
X105168700Y-67183000D02*
X105168700Y-65913000D01*
X105168700Y-66548000D02*
X104406700Y-67183000D01*
X105168700Y-66548000D02*
X104406700Y-67056000D01*
X105168700Y-66548000D02*
X104406700Y-66929000D01*
X105168700Y-66548000D02*
X104406700Y-66802000D01*
X105168700Y-66548000D02*
X104406700Y-66675000D01*
X105168700Y-66548000D02*
X104406700Y-65913000D01*
X105168700Y-66548000D02*
X104406700Y-66040000D01*
X105168700Y-66548000D02*
X104406700Y-66167000D01*
X105168700Y-66548000D02*
X104406700Y-66294000D01*
X105168700Y-66548000D02*
X104406700Y-66421000D01*
X104406700Y-67183000D02*
X104406700Y-65913000D01*
X103505000Y-64516000D02*
X98679000Y-64516000D01*
X98679000Y-64516000D02*
X98679000Y-64843660D01*
X98679000Y-68580000D02*
X103505000Y-68580000D01*
X103505000Y-68580000D02*
X103505000Y-68252340D01*
X103505000Y-64843660D02*
X103505000Y-64516000D01*
X98679000Y-68252340D02*
X98679000Y-68580000D01*
%TO.C,D2*%
X104180640Y-91186000D02*
X105422700Y-91186000D01*
X105168700Y-91821000D02*
X105168700Y-90551000D01*
X105168700Y-91186000D02*
X104406700Y-91821000D01*
X105168700Y-91186000D02*
X104406700Y-91694000D01*
X105168700Y-91186000D02*
X104406700Y-91567000D01*
X105168700Y-91186000D02*
X104406700Y-91440000D01*
X105168700Y-91186000D02*
X104406700Y-91313000D01*
X105168700Y-91186000D02*
X104406700Y-90551000D01*
X105168700Y-91186000D02*
X104406700Y-90678000D01*
X105168700Y-91186000D02*
X104406700Y-90805000D01*
X105168700Y-91186000D02*
X104406700Y-90932000D01*
X105168700Y-91186000D02*
X104406700Y-91059000D01*
X104406700Y-91821000D02*
X104406700Y-90551000D01*
X103505000Y-89154000D02*
X98679000Y-89154000D01*
X98679000Y-89154000D02*
X98679000Y-89481660D01*
X98679000Y-93218000D02*
X103505000Y-93218000D01*
X103505000Y-93218000D02*
X103505000Y-92890340D01*
X103505000Y-89481660D02*
X103505000Y-89154000D01*
X98679000Y-92890340D02*
X98679000Y-93218000D01*
%TO.C,D4*%
X97876360Y-140716000D02*
X96634300Y-140716000D01*
X96888300Y-140081000D02*
X96888300Y-141351000D01*
X96888300Y-140716000D02*
X97650300Y-140081000D01*
X96888300Y-140716000D02*
X97650300Y-140208000D01*
X96888300Y-140716000D02*
X97650300Y-140335000D01*
X96888300Y-140716000D02*
X97650300Y-140462000D01*
X96888300Y-140716000D02*
X97650300Y-140589000D01*
X96888300Y-140716000D02*
X97650300Y-141351000D01*
X96888300Y-140716000D02*
X97650300Y-141224000D01*
X96888300Y-140716000D02*
X97650300Y-141097000D01*
X96888300Y-140716000D02*
X97650300Y-140970000D01*
X96888300Y-140716000D02*
X97650300Y-140843000D01*
X97650300Y-140081000D02*
X97650300Y-141351000D01*
X98552000Y-142748000D02*
X103378000Y-142748000D01*
X103378000Y-142748000D02*
X103378000Y-142420340D01*
X103378000Y-138684000D02*
X98552000Y-138684000D01*
X98552000Y-138684000D02*
X98552000Y-139011660D01*
X98552000Y-142420340D02*
X98552000Y-142748000D01*
X103378000Y-139011660D02*
X103378000Y-138684000D01*
%TO.C,D5*%
X131191000Y-69014340D02*
X131191000Y-69342000D01*
X136017000Y-65605660D02*
X136017000Y-65278000D01*
X136017000Y-69342000D02*
X136017000Y-69014340D01*
X131191000Y-69342000D02*
X136017000Y-69342000D01*
X131191000Y-65278000D02*
X131191000Y-65605660D01*
X136017000Y-65278000D02*
X131191000Y-65278000D01*
X136918700Y-67945000D02*
X136918700Y-66675000D01*
X137680700Y-67310000D02*
X136918700Y-67183000D01*
X137680700Y-67310000D02*
X136918700Y-67056000D01*
X137680700Y-67310000D02*
X136918700Y-66929000D01*
X137680700Y-67310000D02*
X136918700Y-66802000D01*
X137680700Y-67310000D02*
X136918700Y-66675000D01*
X137680700Y-67310000D02*
X136918700Y-67437000D01*
X137680700Y-67310000D02*
X136918700Y-67564000D01*
X137680700Y-67310000D02*
X136918700Y-67691000D01*
X137680700Y-67310000D02*
X136918700Y-67818000D01*
X137680700Y-67310000D02*
X136918700Y-67945000D01*
X137680700Y-67945000D02*
X137680700Y-66675000D01*
X136692640Y-67310000D02*
X137934700Y-67310000D01*
%TO.C,D6*%
X130530600Y-93271340D02*
X130530600Y-93599000D01*
X135356600Y-89862660D02*
X135356600Y-89535000D01*
X135356600Y-93599000D02*
X135356600Y-93271340D01*
X130530600Y-93599000D02*
X135356600Y-93599000D01*
X130530600Y-89535000D02*
X130530600Y-89862660D01*
X135356600Y-89535000D02*
X130530600Y-89535000D01*
X136258300Y-92202000D02*
X136258300Y-90932000D01*
X137020300Y-91567000D02*
X136258300Y-91440000D01*
X137020300Y-91567000D02*
X136258300Y-91313000D01*
X137020300Y-91567000D02*
X136258300Y-91186000D01*
X137020300Y-91567000D02*
X136258300Y-91059000D01*
X137020300Y-91567000D02*
X136258300Y-90932000D01*
X137020300Y-91567000D02*
X136258300Y-91694000D01*
X137020300Y-91567000D02*
X136258300Y-91821000D01*
X137020300Y-91567000D02*
X136258300Y-91948000D01*
X137020300Y-91567000D02*
X136258300Y-92075000D01*
X137020300Y-91567000D02*
X136258300Y-92202000D01*
X137020300Y-92202000D02*
X137020300Y-90932000D01*
X136032240Y-91567000D02*
X137274300Y-91567000D01*
%TO.C,D8*%
X129540000Y-142420340D02*
X129540000Y-142748000D01*
X134366000Y-139011660D02*
X134366000Y-138684000D01*
X134366000Y-142748000D02*
X134366000Y-142420340D01*
X129540000Y-142748000D02*
X134366000Y-142748000D01*
X129540000Y-138684000D02*
X129540000Y-139011660D01*
X134366000Y-138684000D02*
X129540000Y-138684000D01*
X135267700Y-141351000D02*
X135267700Y-140081000D01*
X136029700Y-140716000D02*
X135267700Y-140589000D01*
X136029700Y-140716000D02*
X135267700Y-140462000D01*
X136029700Y-140716000D02*
X135267700Y-140335000D01*
X136029700Y-140716000D02*
X135267700Y-140208000D01*
X136029700Y-140716000D02*
X135267700Y-140081000D01*
X136029700Y-140716000D02*
X135267700Y-140843000D01*
X136029700Y-140716000D02*
X135267700Y-140970000D01*
X136029700Y-140716000D02*
X135267700Y-141097000D01*
X136029700Y-140716000D02*
X135267700Y-141224000D01*
X136029700Y-140716000D02*
X135267700Y-141351000D01*
X136029700Y-141351000D02*
X136029700Y-140081000D01*
X135041640Y-140716000D02*
X136283700Y-140716000D01*
%TO.C,D9*%
X65998000Y-128122000D02*
X67098000Y-128122000D01*
X67098000Y-128122000D02*
X67098000Y-125522000D01*
X65998000Y-128122000D02*
X65998000Y-125522000D01*
D13*
%TO.C,F1*%
X72168000Y-141335000D02*
X76168000Y-141335000D01*
X76168000Y-132985000D02*
X72168000Y-132985000D01*
X72168000Y-132985000D02*
X72168000Y-141335000D01*
X76168000Y-141335000D02*
X76168000Y-132985000D01*
D11*
%TO.C,J2*%
X77359000Y-142179000D02*
X89859000Y-142179000D01*
X77359000Y-150429000D02*
X89859000Y-150429000D01*
X77359000Y-142179000D02*
X77359000Y-150429000D01*
X89859000Y-142179000D02*
X92959000Y-144554000D01*
X92959000Y-144554000D02*
X92959000Y-148054000D01*
X89859000Y-150429000D02*
X92959000Y-148054000D01*
D14*
X78159000Y-142904000D02*
X78159000Y-149704000D01*
X78159000Y-149704000D02*
X89659000Y-149704000D01*
X89659000Y-149704000D02*
X92159000Y-147804000D01*
X89659000Y-142904000D02*
X92159000Y-144804000D01*
X92159000Y-144804000D02*
X92159000Y-147804000D01*
X84259000Y-142904000D02*
X84259000Y-144154000D01*
X84259000Y-144154000D02*
X86059000Y-144154000D01*
X86059000Y-144154000D02*
X86059000Y-142904000D01*
X86059000Y-142904000D02*
X89659000Y-142904000D01*
X78159000Y-142904000D02*
X84259000Y-142904000D01*
D12*
%TO.C,K1*%
X98534000Y-64322000D02*
X98534000Y-51522000D01*
X98534000Y-51522000D02*
X127734000Y-51522000D01*
X98534000Y-64322000D02*
X127734000Y-64322000D01*
X127734000Y-64322000D02*
X127734000Y-51522000D01*
D11*
X119888000Y-60198000D02*
X117792500Y-55626000D01*
D12*
%TO.C,K2*%
X98534000Y-88706000D02*
X98534000Y-75906000D01*
X98534000Y-75906000D02*
X127734000Y-75906000D01*
X98534000Y-88706000D02*
X127734000Y-88706000D01*
X127734000Y-88706000D02*
X127734000Y-75906000D01*
D11*
X119888000Y-84582000D02*
X117792500Y-80010000D01*
%TO.C,K4*%
X119888000Y-133350000D02*
X117792500Y-128778000D01*
D12*
X127734000Y-137474000D02*
X127734000Y-124674000D01*
X98534000Y-137474000D02*
X127734000Y-137474000D01*
X98534000Y-124674000D02*
X127734000Y-124674000D01*
X98534000Y-137474000D02*
X98534000Y-124674000D01*
%TO.C,K5*%
X128252000Y-64322000D02*
X128252000Y-51522000D01*
X128252000Y-51522000D02*
X157452000Y-51522000D01*
X128252000Y-64322000D02*
X157452000Y-64322000D01*
X157452000Y-64322000D02*
X157452000Y-51522000D01*
D11*
X149606000Y-60198000D02*
X147510500Y-55626000D01*
%TO.C,K7*%
X149606000Y-108966000D02*
X147510500Y-104394000D01*
D12*
X157452000Y-113090000D02*
X157452000Y-100290000D01*
X128252000Y-113090000D02*
X157452000Y-113090000D01*
X128252000Y-100290000D02*
X157452000Y-100290000D01*
X128252000Y-113090000D02*
X128252000Y-100290000D01*
D11*
%TO.C,K8*%
X149606000Y-133350000D02*
X147510500Y-128778000D01*
D12*
X157452000Y-137474000D02*
X157452000Y-124674000D01*
X128252000Y-137474000D02*
X157452000Y-137474000D01*
X128252000Y-124674000D02*
X157452000Y-124674000D01*
X128252000Y-137474000D02*
X128252000Y-124674000D01*
%TO.C,R2*%
X96445000Y-106684578D02*
X96445000Y-106167422D01*
X97865000Y-106684578D02*
X97865000Y-106167422D01*
%TO.C,R3*%
X95833000Y-106684578D02*
X95833000Y-106167422D01*
X94413000Y-106684578D02*
X94413000Y-106167422D01*
%TO.C,R4*%
X78082400Y-134502200D02*
X79682400Y-134502200D01*
X78082400Y-134502200D02*
X78082400Y-131302200D01*
X78082400Y-131302200D02*
X79682400Y-131302200D01*
X79682400Y-134502200D02*
X79682400Y-131302200D01*
%TO.C,R9*%
X102287000Y-70226422D02*
X102287000Y-70743578D01*
X103707000Y-70226422D02*
X103707000Y-70743578D01*
%TO.C,R10*%
X102414000Y-95004122D02*
X102414000Y-95521278D01*
X103834000Y-95004122D02*
X103834000Y-95521278D01*
%TO.C,R11*%
X102693400Y-119377722D02*
X102693400Y-119894878D01*
X104113400Y-119377722D02*
X104113400Y-119894878D01*
%TO.C,R12*%
X109907000Y-140711422D02*
X109907000Y-141228578D01*
X111327000Y-140711422D02*
X111327000Y-141228578D01*
%TO.C,R18*%
X133605200Y-95395522D02*
X133605200Y-95912678D01*
X135025200Y-95395522D02*
X135025200Y-95912678D01*
%TO.C,R19*%
X134949000Y-119629422D02*
X134949000Y-120146578D01*
X133529000Y-119629422D02*
X133529000Y-120146578D01*
%TO.C,R20*%
X121400500Y-139710422D02*
X121400500Y-140227578D01*
X122820500Y-139710422D02*
X122820500Y-140227578D01*
%TO.C,R22*%
X148512800Y-75253200D02*
X150012800Y-75253200D01*
X150012800Y-75253200D02*
X150012800Y-73443200D01*
X150012800Y-73443200D02*
X155137800Y-73443200D01*
X148512800Y-64853200D02*
X150012800Y-64853200D01*
X150012800Y-64853200D02*
X150012800Y-66663200D01*
X150012800Y-66663200D02*
X151112800Y-66663200D01*
%TO.C,R24*%
X150089000Y-91098000D02*
X151189000Y-91098000D01*
X150089000Y-89288000D02*
X150089000Y-91098000D01*
X148589000Y-89288000D02*
X150089000Y-89288000D01*
X150089000Y-97878000D02*
X155214000Y-97878000D01*
X150089000Y-99688000D02*
X150089000Y-97878000D01*
X148589000Y-99688000D02*
X150089000Y-99688000D01*
%TO.C,R26*%
X148450000Y-123926000D02*
X149950000Y-123926000D01*
X149950000Y-123926000D02*
X149950000Y-122116000D01*
X149950000Y-122116000D02*
X155075000Y-122116000D01*
X148450000Y-113526000D02*
X149950000Y-113526000D01*
X149950000Y-113526000D02*
X149950000Y-115336000D01*
X149950000Y-115336000D02*
X151050000Y-115336000D01*
%TO.C,R27*%
X65838000Y-129789422D02*
X65838000Y-130306578D01*
X67258000Y-129789422D02*
X67258000Y-130306578D01*
%TO.C,U1*%
X90992000Y-77216000D02*
X90992000Y-122996000D01*
X88332000Y-122996000D02*
X90992000Y-122996000D01*
X88332000Y-77216000D02*
X90992000Y-77216000D01*
X88332000Y-77216000D02*
X88332000Y-122996000D01*
X65472000Y-77156000D02*
X66802000Y-77156000D01*
X65472000Y-78486000D02*
X65472000Y-77156000D01*
X65472000Y-79756000D02*
X68132000Y-79756000D01*
X68132000Y-79756000D02*
X68132000Y-122996000D01*
X65472000Y-79756000D02*
X65472000Y-122996000D01*
X65472000Y-122996000D02*
X68132000Y-122996000D01*
D10*
%TO.C,U2*%
X81069000Y-130591000D02*
X81069000Y-130541000D01*
X76919000Y-130591000D02*
X76919000Y-130446000D01*
X76919000Y-125441000D02*
X76919000Y-125586000D01*
X81069000Y-125441000D02*
X81069000Y-125586000D01*
X81069000Y-130591000D02*
X76919000Y-130591000D01*
X81069000Y-125441000D02*
X76919000Y-125441000D01*
X81069000Y-130541000D02*
X82469000Y-130541000D01*
%TO.C,U3*%
X161841000Y-74661000D02*
X163241000Y-74661000D01*
X161841000Y-69561000D02*
X157691000Y-69561000D01*
X161841000Y-74711000D02*
X157691000Y-74711000D01*
X161841000Y-69561000D02*
X161841000Y-69706000D01*
X157691000Y-69561000D02*
X157691000Y-69706000D01*
X157691000Y-74711000D02*
X157691000Y-74566000D01*
X161841000Y-74711000D02*
X161841000Y-74661000D01*
%TO.C,U4*%
X161841000Y-99349000D02*
X161841000Y-99299000D01*
X157691000Y-99349000D02*
X157691000Y-99204000D01*
X157691000Y-94199000D02*
X157691000Y-94344000D01*
X161841000Y-94199000D02*
X161841000Y-94344000D01*
X161841000Y-99349000D02*
X157691000Y-99349000D01*
X161841000Y-94199000D02*
X157691000Y-94199000D01*
X161841000Y-99299000D02*
X163241000Y-99299000D01*
%TO.C,U5*%
X162095000Y-123683000D02*
X163495000Y-123683000D01*
X162095000Y-118583000D02*
X157945000Y-118583000D01*
X162095000Y-123733000D02*
X157945000Y-123733000D01*
X162095000Y-118583000D02*
X162095000Y-118728000D01*
X157945000Y-118583000D02*
X157945000Y-118728000D01*
X157945000Y-123733000D02*
X157945000Y-123588000D01*
X162095000Y-123733000D02*
X162095000Y-123683000D01*
D11*
%TO.C,K6*%
X149606000Y-84582000D02*
X147510500Y-80010000D01*
D12*
X157452000Y-88706000D02*
X157452000Y-75906000D01*
X128252000Y-88706000D02*
X157452000Y-88706000D01*
X128252000Y-75906000D02*
X157452000Y-75906000D01*
X128252000Y-88706000D02*
X128252000Y-75906000D01*
%TO.C,Q1*%
X99712000Y-71165000D02*
X99712000Y-69755000D01*
X97392000Y-69755000D02*
X97392000Y-71785000D01*
X97392000Y-69755000D02*
X98052000Y-69755000D01*
X99052000Y-69755000D02*
X99712000Y-69755000D01*
%TO.C,Q2*%
X99179000Y-94520000D02*
X99839000Y-94520000D01*
X97519000Y-94520000D02*
X98179000Y-94520000D01*
X97519000Y-94520000D02*
X97519000Y-96550000D01*
X99839000Y-95930000D02*
X99839000Y-94520000D01*
%TO.C,Q3*%
X100093000Y-120314000D02*
X100093000Y-118904000D01*
X97773000Y-118904000D02*
X97773000Y-120934000D01*
X97773000Y-118904000D02*
X98433000Y-118904000D01*
X99433000Y-118904000D02*
X100093000Y-118904000D01*
%TO.C,Q4*%
X105077000Y-140467500D02*
X105077000Y-139807500D01*
X105077000Y-142127500D02*
X105077000Y-141467500D01*
X105077000Y-142127500D02*
X107107000Y-142127500D01*
X106487000Y-139807500D02*
X105077000Y-139807500D01*
%TO.C,Q5*%
X131335000Y-72054000D02*
X131335000Y-70644000D01*
X129015000Y-70644000D02*
X129015000Y-72674000D01*
X129015000Y-70644000D02*
X129675000Y-70644000D01*
X130675000Y-70644000D02*
X131335000Y-70644000D01*
%TO.C,Q6*%
X130421000Y-94926400D02*
X131081000Y-94926400D01*
X128761000Y-94926400D02*
X129421000Y-94926400D01*
X128761000Y-94926400D02*
X128761000Y-96956400D01*
X131081000Y-96336400D02*
X131081000Y-94926400D01*
%TO.C,Q7*%
X130294000Y-119158000D02*
X130954000Y-119158000D01*
X128634000Y-119158000D02*
X129294000Y-119158000D01*
X128634000Y-119158000D02*
X128634000Y-121188000D01*
X130954000Y-120568000D02*
X130954000Y-119158000D01*
%TO.C,Q8*%
X126320000Y-141114000D02*
X127730000Y-141114000D01*
X127730000Y-138794000D02*
X125700000Y-138794000D01*
X127730000Y-138794000D02*
X127730000Y-139454000D01*
X127730000Y-140454000D02*
X127730000Y-141114000D01*
%TO.C,Q9*%
X150791001Y-140890001D02*
X150791001Y-141550001D01*
X150791001Y-139230001D02*
X150791001Y-139890001D01*
X150791001Y-139230001D02*
X148761001Y-139230001D01*
X149381001Y-141550001D02*
X150791001Y-141550001D01*
%TO.C,R1*%
X145871000Y-140076422D02*
X145871000Y-140593578D01*
X144451000Y-140076422D02*
X144451000Y-140593578D01*
%TO.C,R5*%
X101675000Y-70211422D02*
X101675000Y-70728578D01*
X100255000Y-70211422D02*
X100255000Y-70728578D01*
%TO.C,R6*%
X101802000Y-94991422D02*
X101802000Y-95508578D01*
X100382000Y-94991422D02*
X100382000Y-95508578D01*
%TO.C,R7*%
X102056000Y-119375422D02*
X102056000Y-119892578D01*
X100636000Y-119375422D02*
X100636000Y-119892578D01*
%TO.C,R8*%
X109295000Y-141228578D02*
X109295000Y-140711422D01*
X107875000Y-141228578D02*
X107875000Y-140711422D01*
%TO.C,R13*%
X131878000Y-71115422D02*
X131878000Y-71632578D01*
X133298000Y-71115422D02*
X133298000Y-71632578D01*
%TO.C,R14*%
X131573200Y-95397822D02*
X131573200Y-95914978D01*
X132993200Y-95397822D02*
X132993200Y-95914978D01*
%TO.C,R15*%
X131497000Y-119614422D02*
X131497000Y-120131578D01*
X132917000Y-119614422D02*
X132917000Y-120131578D01*
%TO.C,R16*%
X124916000Y-139718522D02*
X124916000Y-140235678D01*
X123496000Y-139718522D02*
X123496000Y-140235678D01*
%TO.C,R28*%
X146483000Y-140593578D02*
X146483000Y-140076422D01*
X147903000Y-140593578D02*
X147903000Y-140076422D01*
%TO.C,R29*%
X152198000Y-140076422D02*
X152198000Y-140593578D01*
X153618000Y-140076422D02*
X153618000Y-140593578D01*
%TO.C,K9*%
D10*
X152931904Y-66238380D02*
X152931904Y-65238380D01*
X153503333Y-66238380D02*
X153074761Y-65666952D01*
X153503333Y-65238380D02*
X152931904Y-65809809D01*
X153979523Y-66238380D02*
X154170000Y-66238380D01*
X154265238Y-66190761D01*
X154312857Y-66143142D01*
X154408095Y-66000285D01*
X154455714Y-65809809D01*
X154455714Y-65428857D01*
X154408095Y-65333619D01*
X154360476Y-65286000D01*
X154265238Y-65238380D01*
X154074761Y-65238380D01*
X153979523Y-65286000D01*
X153931904Y-65333619D01*
X153884285Y-65428857D01*
X153884285Y-65666952D01*
X153931904Y-65762190D01*
X153979523Y-65809809D01*
X154074761Y-65857428D01*
X154265238Y-65857428D01*
X154360476Y-65809809D01*
X154408095Y-65762190D01*
X154455714Y-65666952D01*
%TO.C,K10*%
X156773714Y-88336380D02*
X156773714Y-87336380D01*
X157345142Y-88336380D02*
X156916571Y-87764952D01*
X157345142Y-87336380D02*
X156773714Y-87907809D01*
X158297523Y-88336380D02*
X157726095Y-88336380D01*
X158011809Y-88336380D02*
X158011809Y-87336380D01*
X157916571Y-87479238D01*
X157821333Y-87574476D01*
X157726095Y-87622095D01*
X158916571Y-87336380D02*
X159011809Y-87336380D01*
X159107047Y-87384000D01*
X159154666Y-87431619D01*
X159202285Y-87526857D01*
X159249904Y-87717333D01*
X159249904Y-87955428D01*
X159202285Y-88145904D01*
X159154666Y-88241142D01*
X159107047Y-88288761D01*
X159011809Y-88336380D01*
X158916571Y-88336380D01*
X158821333Y-88288761D01*
X158773714Y-88241142D01*
X158726095Y-88145904D01*
X158678476Y-87955428D01*
X158678476Y-87717333D01*
X158726095Y-87526857D01*
X158773714Y-87431619D01*
X158821333Y-87384000D01*
X158916571Y-87336380D01*
%TO.C,K11*%
X152709714Y-115006380D02*
X152709714Y-114006380D01*
X153281142Y-115006380D02*
X152852571Y-114434952D01*
X153281142Y-114006380D02*
X152709714Y-114577809D01*
X154233523Y-115006380D02*
X153662095Y-115006380D01*
X153947809Y-115006380D02*
X153947809Y-114006380D01*
X153852571Y-114149238D01*
X153757333Y-114244476D01*
X153662095Y-114292095D01*
X155185904Y-115006380D02*
X154614476Y-115006380D01*
X154900190Y-115006380D02*
X154900190Y-114006380D01*
X154804952Y-114149238D01*
X154709714Y-114244476D01*
X154614476Y-114292095D01*
%TO.C,D7*%
X126769904Y-115006380D02*
X126769904Y-114006380D01*
X127008000Y-114006380D01*
X127150857Y-114054000D01*
X127246095Y-114149238D01*
X127293714Y-114244476D01*
X127341333Y-114434952D01*
X127341333Y-114577809D01*
X127293714Y-114768285D01*
X127246095Y-114863523D01*
X127150857Y-114958761D01*
X127008000Y-115006380D01*
X126769904Y-115006380D01*
X127674666Y-114006380D02*
X128341333Y-114006380D01*
X127912761Y-115006380D01*
X135280400Y-117308380D02*
X135280400Y-117546476D01*
X135042304Y-117451238D02*
X135280400Y-117546476D01*
X135518495Y-117451238D01*
X135137542Y-117736952D02*
X135280400Y-117546476D01*
X135423257Y-117736952D01*
%TO.C,D3*%
X95908904Y-114498380D02*
X95908904Y-113498380D01*
X96147000Y-113498380D01*
X96289857Y-113546000D01*
X96385095Y-113641238D01*
X96432714Y-113736476D01*
X96480333Y-113926952D01*
X96480333Y-114069809D01*
X96432714Y-114260285D01*
X96385095Y-114355523D01*
X96289857Y-114450761D01*
X96147000Y-114498380D01*
X95908904Y-114498380D01*
X96813666Y-113498380D02*
X97432714Y-113498380D01*
X97099380Y-113879333D01*
X97242238Y-113879333D01*
X97337476Y-113926952D01*
X97385095Y-113974571D01*
X97432714Y-114069809D01*
X97432714Y-114307904D01*
X97385095Y-114403142D01*
X97337476Y-114450761D01*
X97242238Y-114498380D01*
X96956523Y-114498380D01*
X96861285Y-114450761D01*
X96813666Y-114403142D01*
X104140000Y-117054380D02*
X104140000Y-117292476D01*
X103901904Y-117197238D02*
X104140000Y-117292476D01*
X104378095Y-117197238D01*
X103997142Y-117482952D02*
X104140000Y-117292476D01*
X104282857Y-117482952D01*
%TO.C,R17*%
X135374142Y-75382380D02*
X135040809Y-74906190D01*
X134802714Y-75382380D02*
X134802714Y-74382380D01*
X135183666Y-74382380D01*
X135278904Y-74430000D01*
X135326523Y-74477619D01*
X135374142Y-74572857D01*
X135374142Y-74715714D01*
X135326523Y-74810952D01*
X135278904Y-74858571D01*
X135183666Y-74906190D01*
X134802714Y-74906190D01*
X136326523Y-75382380D02*
X135755095Y-75382380D01*
X136040809Y-75382380D02*
X136040809Y-74382380D01*
X135945571Y-74525238D01*
X135850333Y-74620476D01*
X135755095Y-74668095D01*
X136659857Y-74382380D02*
X137326523Y-74382380D01*
X136897952Y-75382380D01*
%TO.C,K3*%
X96289904Y-101925380D02*
X96289904Y-100925380D01*
X96861333Y-101925380D02*
X96432761Y-101353952D01*
X96861333Y-100925380D02*
X96289904Y-101496809D01*
X97194666Y-100925380D02*
X97813714Y-100925380D01*
X97480380Y-101306333D01*
X97623238Y-101306333D01*
X97718476Y-101353952D01*
X97766095Y-101401571D01*
X97813714Y-101496809D01*
X97813714Y-101734904D01*
X97766095Y-101830142D01*
X97718476Y-101877761D01*
X97623238Y-101925380D01*
X97337523Y-101925380D01*
X97242285Y-101877761D01*
X97194666Y-101830142D01*
%TO.C,C1*%
X78954333Y-122912142D02*
X78906714Y-122959761D01*
X78763857Y-123007380D01*
X78668619Y-123007380D01*
X78525761Y-122959761D01*
X78430523Y-122864523D01*
X78382904Y-122769285D01*
X78335285Y-122578809D01*
X78335285Y-122435952D01*
X78382904Y-122245476D01*
X78430523Y-122150238D01*
X78525761Y-122055000D01*
X78668619Y-122007380D01*
X78763857Y-122007380D01*
X78906714Y-122055000D01*
X78954333Y-122102619D01*
X79906714Y-123007380D02*
X79335285Y-123007380D01*
X79621000Y-123007380D02*
X79621000Y-122007380D01*
X79525761Y-122150238D01*
X79430523Y-122245476D01*
X79335285Y-122293095D01*
%TO.C,C2*%
X162012333Y-80494142D02*
X161964714Y-80541761D01*
X161821857Y-80589380D01*
X161726619Y-80589380D01*
X161583761Y-80541761D01*
X161488523Y-80446523D01*
X161440904Y-80351285D01*
X161393285Y-80160809D01*
X161393285Y-80017952D01*
X161440904Y-79827476D01*
X161488523Y-79732238D01*
X161583761Y-79637000D01*
X161726619Y-79589380D01*
X161821857Y-79589380D01*
X161964714Y-79637000D01*
X162012333Y-79684619D01*
X162393285Y-79684619D02*
X162440904Y-79637000D01*
X162536142Y-79589380D01*
X162774238Y-79589380D01*
X162869476Y-79637000D01*
X162917095Y-79684619D01*
X162964714Y-79779857D01*
X162964714Y-79875095D01*
X162917095Y-80017952D01*
X162345666Y-80589380D01*
X162964714Y-80589380D01*
%TO.C,C3*%
X161885333Y-106402142D02*
X161837714Y-106449761D01*
X161694857Y-106497380D01*
X161599619Y-106497380D01*
X161456761Y-106449761D01*
X161361523Y-106354523D01*
X161313904Y-106259285D01*
X161266285Y-106068809D01*
X161266285Y-105925952D01*
X161313904Y-105735476D01*
X161361523Y-105640238D01*
X161456761Y-105545000D01*
X161599619Y-105497380D01*
X161694857Y-105497380D01*
X161837714Y-105545000D01*
X161885333Y-105592619D01*
X162218666Y-105497380D02*
X162837714Y-105497380D01*
X162504380Y-105878333D01*
X162647238Y-105878333D01*
X162742476Y-105925952D01*
X162790095Y-105973571D01*
X162837714Y-106068809D01*
X162837714Y-106306904D01*
X162790095Y-106402142D01*
X162742476Y-106449761D01*
X162647238Y-106497380D01*
X162361523Y-106497380D01*
X162266285Y-106449761D01*
X162218666Y-106402142D01*
%TO.C,C4*%
X162393333Y-129897142D02*
X162345714Y-129944761D01*
X162202857Y-129992380D01*
X162107619Y-129992380D01*
X161964761Y-129944761D01*
X161869523Y-129849523D01*
X161821904Y-129754285D01*
X161774285Y-129563809D01*
X161774285Y-129420952D01*
X161821904Y-129230476D01*
X161869523Y-129135238D01*
X161964761Y-129040000D01*
X162107619Y-128992380D01*
X162202857Y-128992380D01*
X162345714Y-129040000D01*
X162393333Y-129087619D01*
X163250476Y-129325714D02*
X163250476Y-129992380D01*
X163012380Y-128944761D02*
X162774285Y-129659047D01*
X163393333Y-129659047D01*
%TO.C,D1*%
X96035904Y-68270380D02*
X96035904Y-67270380D01*
X96274000Y-67270380D01*
X96416857Y-67318000D01*
X96512095Y-67413238D01*
X96559714Y-67508476D01*
X96607333Y-67698952D01*
X96607333Y-67841809D01*
X96559714Y-68032285D01*
X96512095Y-68127523D01*
X96416857Y-68222761D01*
X96274000Y-68270380D01*
X96035904Y-68270380D01*
X97559714Y-68270380D02*
X96988285Y-68270380D01*
X97274000Y-68270380D02*
X97274000Y-67270380D01*
X97178761Y-67413238D01*
X97083523Y-67508476D01*
X96988285Y-67556095D01*
X104140000Y-68032380D02*
X104140000Y-68270476D01*
X103901904Y-68175238D02*
X104140000Y-68270476D01*
X104378095Y-68175238D01*
X103997142Y-68460952D02*
X104140000Y-68270476D01*
X104282857Y-68460952D01*
%TO.C,D2*%
X95527904Y-89987380D02*
X95527904Y-88987380D01*
X95766000Y-88987380D01*
X95908857Y-89035000D01*
X96004095Y-89130238D01*
X96051714Y-89225476D01*
X96099333Y-89415952D01*
X96099333Y-89558809D01*
X96051714Y-89749285D01*
X96004095Y-89844523D01*
X95908857Y-89939761D01*
X95766000Y-89987380D01*
X95527904Y-89987380D01*
X96480285Y-89082619D02*
X96527904Y-89035000D01*
X96623142Y-88987380D01*
X96861238Y-88987380D01*
X96956476Y-89035000D01*
X97004095Y-89082619D01*
X97051714Y-89177857D01*
X97051714Y-89273095D01*
X97004095Y-89415952D01*
X96432666Y-89987380D01*
X97051714Y-89987380D01*
X104140000Y-92670380D02*
X104140000Y-92908476D01*
X103901904Y-92813238D02*
X104140000Y-92908476D01*
X104378095Y-92813238D01*
X103997142Y-93098952D02*
X104140000Y-92908476D01*
X104282857Y-93098952D01*
%TO.C,D4*%
X101877904Y-144343380D02*
X101877904Y-143343380D01*
X102116000Y-143343380D01*
X102258857Y-143391000D01*
X102354095Y-143486238D01*
X102401714Y-143581476D01*
X102449333Y-143771952D01*
X102449333Y-143914809D01*
X102401714Y-144105285D01*
X102354095Y-144200523D01*
X102258857Y-144295761D01*
X102116000Y-144343380D01*
X101877904Y-144343380D01*
X103306476Y-143676714D02*
X103306476Y-144343380D01*
X103068380Y-143295761D02*
X102830285Y-144010047D01*
X103449333Y-144010047D01*
X97917000Y-138136380D02*
X97917000Y-138374476D01*
X97678904Y-138279238D02*
X97917000Y-138374476D01*
X98155095Y-138279238D01*
X97774142Y-138564952D02*
X97917000Y-138374476D01*
X98059857Y-138564952D01*
%TO.C,D5*%
X127023904Y-66492380D02*
X127023904Y-65492380D01*
X127262000Y-65492380D01*
X127404857Y-65540000D01*
X127500095Y-65635238D01*
X127547714Y-65730476D01*
X127595333Y-65920952D01*
X127595333Y-66063809D01*
X127547714Y-66254285D01*
X127500095Y-66349523D01*
X127404857Y-66444761D01*
X127262000Y-66492380D01*
X127023904Y-66492380D01*
X128500095Y-65492380D02*
X128023904Y-65492380D01*
X127976285Y-65968571D01*
X128023904Y-65920952D01*
X128119142Y-65873333D01*
X128357238Y-65873333D01*
X128452476Y-65920952D01*
X128500095Y-65968571D01*
X128547714Y-66063809D01*
X128547714Y-66301904D01*
X128500095Y-66397142D01*
X128452476Y-66444761D01*
X128357238Y-66492380D01*
X128119142Y-66492380D01*
X128023904Y-66444761D01*
X127976285Y-66397142D01*
X136652000Y-68794380D02*
X136652000Y-69032476D01*
X136413904Y-68937238D02*
X136652000Y-69032476D01*
X136890095Y-68937238D01*
X136509142Y-69222952D02*
X136652000Y-69032476D01*
X136794857Y-69222952D01*
%TO.C,D6*%
X126769904Y-90876380D02*
X126769904Y-89876380D01*
X127008000Y-89876380D01*
X127150857Y-89924000D01*
X127246095Y-90019238D01*
X127293714Y-90114476D01*
X127341333Y-90304952D01*
X127341333Y-90447809D01*
X127293714Y-90638285D01*
X127246095Y-90733523D01*
X127150857Y-90828761D01*
X127008000Y-90876380D01*
X126769904Y-90876380D01*
X128198476Y-89876380D02*
X128008000Y-89876380D01*
X127912761Y-89924000D01*
X127865142Y-89971619D01*
X127769904Y-90114476D01*
X127722285Y-90304952D01*
X127722285Y-90685904D01*
X127769904Y-90781142D01*
X127817523Y-90828761D01*
X127912761Y-90876380D01*
X128103238Y-90876380D01*
X128198476Y-90828761D01*
X128246095Y-90781142D01*
X128293714Y-90685904D01*
X128293714Y-90447809D01*
X128246095Y-90352571D01*
X128198476Y-90304952D01*
X128103238Y-90257333D01*
X127912761Y-90257333D01*
X127817523Y-90304952D01*
X127769904Y-90352571D01*
X127722285Y-90447809D01*
X135991600Y-93051380D02*
X135991600Y-93289476D01*
X135753504Y-93194238D02*
X135991600Y-93289476D01*
X136229695Y-93194238D01*
X135848742Y-93479952D02*
X135991600Y-93289476D01*
X136134457Y-93479952D01*
%TO.C,D8*%
X131087904Y-144216380D02*
X131087904Y-143216380D01*
X131326000Y-143216380D01*
X131468857Y-143264000D01*
X131564095Y-143359238D01*
X131611714Y-143454476D01*
X131659333Y-143644952D01*
X131659333Y-143787809D01*
X131611714Y-143978285D01*
X131564095Y-144073523D01*
X131468857Y-144168761D01*
X131326000Y-144216380D01*
X131087904Y-144216380D01*
X132230761Y-143644952D02*
X132135523Y-143597333D01*
X132087904Y-143549714D01*
X132040285Y-143454476D01*
X132040285Y-143406857D01*
X132087904Y-143311619D01*
X132135523Y-143264000D01*
X132230761Y-143216380D01*
X132421238Y-143216380D01*
X132516476Y-143264000D01*
X132564095Y-143311619D01*
X132611714Y-143406857D01*
X132611714Y-143454476D01*
X132564095Y-143549714D01*
X132516476Y-143597333D01*
X132421238Y-143644952D01*
X132230761Y-143644952D01*
X132135523Y-143692571D01*
X132087904Y-143740190D01*
X132040285Y-143835428D01*
X132040285Y-144025904D01*
X132087904Y-144121142D01*
X132135523Y-144168761D01*
X132230761Y-144216380D01*
X132421238Y-144216380D01*
X132516476Y-144168761D01*
X132564095Y-144121142D01*
X132611714Y-144025904D01*
X132611714Y-143835428D01*
X132564095Y-143740190D01*
X132516476Y-143692571D01*
X132421238Y-143644952D01*
X135001000Y-142200380D02*
X135001000Y-142438476D01*
X134762904Y-142343238D02*
X135001000Y-142438476D01*
X135239095Y-142343238D01*
X134858142Y-142628952D02*
X135001000Y-142438476D01*
X135143857Y-142628952D01*
%TO.C,D9*%
X67968904Y-126944380D02*
X67968904Y-125944380D01*
X68207000Y-125944380D01*
X68349857Y-125992000D01*
X68445095Y-126087238D01*
X68492714Y-126182476D01*
X68540333Y-126372952D01*
X68540333Y-126515809D01*
X68492714Y-126706285D01*
X68445095Y-126801523D01*
X68349857Y-126896761D01*
X68207000Y-126944380D01*
X67968904Y-126944380D01*
X69016523Y-126944380D02*
X69207000Y-126944380D01*
X69302238Y-126896761D01*
X69349857Y-126849142D01*
X69445095Y-126706285D01*
X69492714Y-126515809D01*
X69492714Y-126134857D01*
X69445095Y-126039619D01*
X69397476Y-125992000D01*
X69302238Y-125944380D01*
X69111761Y-125944380D01*
X69016523Y-125992000D01*
X68968904Y-126039619D01*
X68921285Y-126134857D01*
X68921285Y-126372952D01*
X68968904Y-126468190D01*
X69016523Y-126515809D01*
X69111761Y-126563428D01*
X69302238Y-126563428D01*
X69397476Y-126515809D01*
X69445095Y-126468190D01*
X69492714Y-126372952D01*
%TO.C,F1*%
X72310666Y-132008571D02*
X71977333Y-132008571D01*
X71977333Y-132532380D02*
X71977333Y-131532380D01*
X72453523Y-131532380D01*
X73358285Y-132532380D02*
X72786857Y-132532380D01*
X73072571Y-132532380D02*
X73072571Y-131532380D01*
X72977333Y-131675238D01*
X72882095Y-131770476D01*
X72786857Y-131818095D01*
%TO.C,J1*%
X75358666Y-145629380D02*
X75358666Y-146343666D01*
X75311047Y-146486523D01*
X75215809Y-146581761D01*
X75072952Y-146629380D01*
X74977714Y-146629380D01*
X76358666Y-146629380D02*
X75787238Y-146629380D01*
X76072952Y-146629380D02*
X76072952Y-145629380D01*
X75977714Y-145772238D01*
X75882476Y-145867476D01*
X75787238Y-145915095D01*
%TO.C,J2*%
X84883666Y-140676380D02*
X84883666Y-141390666D01*
X84836047Y-141533523D01*
X84740809Y-141628761D01*
X84597952Y-141676380D01*
X84502714Y-141676380D01*
X85312238Y-140771619D02*
X85359857Y-140724000D01*
X85455095Y-140676380D01*
X85693190Y-140676380D01*
X85788428Y-140724000D01*
X85836047Y-140771619D01*
X85883666Y-140866857D01*
X85883666Y-140962095D01*
X85836047Y-141104952D01*
X85264619Y-141676380D01*
X85883666Y-141676380D01*
D14*
X77343047Y-141295428D02*
X78104952Y-141295428D01*
X77724000Y-141676380D02*
X77724000Y-140914476D01*
X85301857Y-148732571D02*
X84968523Y-148732571D01*
X84968523Y-149256380D02*
X84968523Y-148256380D01*
X85444714Y-148256380D01*
%TO.C,J3*%
D10*
X94408666Y-145629380D02*
X94408666Y-146343666D01*
X94361047Y-146486523D01*
X94265809Y-146581761D01*
X94122952Y-146629380D01*
X94027714Y-146629380D01*
X94789619Y-145629380D02*
X95408666Y-145629380D01*
X95075333Y-146010333D01*
X95218190Y-146010333D01*
X95313428Y-146057952D01*
X95361047Y-146105571D01*
X95408666Y-146200809D01*
X95408666Y-146438904D01*
X95361047Y-146534142D01*
X95313428Y-146581761D01*
X95218190Y-146629380D01*
X94932476Y-146629380D01*
X94837238Y-146581761D01*
X94789619Y-146534142D01*
%TO.C,J4*%
X65706666Y-74128380D02*
X65706666Y-74842666D01*
X65659047Y-74985523D01*
X65563809Y-75080761D01*
X65420952Y-75128380D01*
X65325714Y-75128380D01*
X66611428Y-74461714D02*
X66611428Y-75128380D01*
X66373333Y-74080761D02*
X66135238Y-74795047D01*
X66754285Y-74795047D01*
%TO.C,J5*%
X73326666Y-52284380D02*
X73326666Y-52998666D01*
X73279047Y-53141523D01*
X73183809Y-53236761D01*
X73040952Y-53284380D01*
X72945714Y-53284380D01*
X74279047Y-52284380D02*
X73802857Y-52284380D01*
X73755238Y-52760571D01*
X73802857Y-52712952D01*
X73898095Y-52665333D01*
X74136190Y-52665333D01*
X74231428Y-52712952D01*
X74279047Y-52760571D01*
X74326666Y-52855809D01*
X74326666Y-53093904D01*
X74279047Y-53189142D01*
X74231428Y-53236761D01*
X74136190Y-53284380D01*
X73898095Y-53284380D01*
X73802857Y-53236761D01*
X73755238Y-53189142D01*
%TO.C,K1*%
X96797904Y-53030380D02*
X96797904Y-52030380D01*
X97369333Y-53030380D02*
X96940761Y-52458952D01*
X97369333Y-52030380D02*
X96797904Y-52601809D01*
X98321714Y-53030380D02*
X97750285Y-53030380D01*
X98036000Y-53030380D02*
X98036000Y-52030380D01*
X97940761Y-52173238D01*
X97845523Y-52268476D01*
X97750285Y-52316095D01*
%TO.C,K2*%
X96543904Y-76906380D02*
X96543904Y-75906380D01*
X97115333Y-76906380D02*
X96686761Y-76334952D01*
X97115333Y-75906380D02*
X96543904Y-76477809D01*
X97496285Y-76001619D02*
X97543904Y-75954000D01*
X97639142Y-75906380D01*
X97877238Y-75906380D01*
X97972476Y-75954000D01*
X98020095Y-76001619D01*
X98067714Y-76096857D01*
X98067714Y-76192095D01*
X98020095Y-76334952D01*
X97448666Y-76906380D01*
X98067714Y-76906380D01*
%TO.C,K4*%
X96543904Y-129357380D02*
X96543904Y-128357380D01*
X97115333Y-129357380D02*
X96686761Y-128785952D01*
X97115333Y-128357380D02*
X96543904Y-128928809D01*
X97972476Y-128690714D02*
X97972476Y-129357380D01*
X97734380Y-128309761D02*
X97496285Y-129024047D01*
X98115333Y-129024047D01*
%TO.C,K5*%
X157884904Y-59126380D02*
X157884904Y-58126380D01*
X158456333Y-59126380D02*
X158027761Y-58554952D01*
X158456333Y-58126380D02*
X157884904Y-58697809D01*
X159361095Y-58126380D02*
X158884904Y-58126380D01*
X158837285Y-58602571D01*
X158884904Y-58554952D01*
X158980142Y-58507333D01*
X159218238Y-58507333D01*
X159313476Y-58554952D01*
X159361095Y-58602571D01*
X159408714Y-58697809D01*
X159408714Y-58935904D01*
X159361095Y-59031142D01*
X159313476Y-59078761D01*
X159218238Y-59126380D01*
X158980142Y-59126380D01*
X158884904Y-59078761D01*
X158837285Y-59031142D01*
%TO.C,K7*%
X128293904Y-99956880D02*
X128293904Y-98956880D01*
X128865333Y-99956880D02*
X128436761Y-99385452D01*
X128865333Y-98956880D02*
X128293904Y-99528309D01*
X129198666Y-98956880D02*
X129865333Y-98956880D01*
X129436761Y-99956880D01*
%TO.C,K8*%
X126007904Y-124277380D02*
X126007904Y-123277380D01*
X126579333Y-124277380D02*
X126150761Y-123705952D01*
X126579333Y-123277380D02*
X126007904Y-123848809D01*
X127150761Y-123705952D02*
X127055523Y-123658333D01*
X127007904Y-123610714D01*
X126960285Y-123515476D01*
X126960285Y-123467857D01*
X127007904Y-123372619D01*
X127055523Y-123325000D01*
X127150761Y-123277380D01*
X127341238Y-123277380D01*
X127436476Y-123325000D01*
X127484095Y-123372619D01*
X127531714Y-123467857D01*
X127531714Y-123515476D01*
X127484095Y-123610714D01*
X127436476Y-123658333D01*
X127341238Y-123705952D01*
X127150761Y-123705952D01*
X127055523Y-123753571D01*
X127007904Y-123801190D01*
X126960285Y-123896428D01*
X126960285Y-124086904D01*
X127007904Y-124182142D01*
X127055523Y-124229761D01*
X127150761Y-124277380D01*
X127341238Y-124277380D01*
X127436476Y-124229761D01*
X127484095Y-124182142D01*
X127531714Y-124086904D01*
X127531714Y-123896428D01*
X127484095Y-123801190D01*
X127436476Y-123753571D01*
X127341238Y-123705952D01*
%TO.C,R2*%
X96861333Y-109799380D02*
X96528000Y-109323190D01*
X96289904Y-109799380D02*
X96289904Y-108799380D01*
X96670857Y-108799380D01*
X96766095Y-108847000D01*
X96813714Y-108894619D01*
X96861333Y-108989857D01*
X96861333Y-109132714D01*
X96813714Y-109227952D01*
X96766095Y-109275571D01*
X96670857Y-109323190D01*
X96289904Y-109323190D01*
X97242285Y-108894619D02*
X97289904Y-108847000D01*
X97385142Y-108799380D01*
X97623238Y-108799380D01*
X97718476Y-108847000D01*
X97766095Y-108894619D01*
X97813714Y-108989857D01*
X97813714Y-109085095D01*
X97766095Y-109227952D01*
X97194666Y-109799380D01*
X97813714Y-109799380D01*
%TO.C,R3*%
X93178333Y-109799380D02*
X92845000Y-109323190D01*
X92606904Y-109799380D02*
X92606904Y-108799380D01*
X92987857Y-108799380D01*
X93083095Y-108847000D01*
X93130714Y-108894619D01*
X93178333Y-108989857D01*
X93178333Y-109132714D01*
X93130714Y-109227952D01*
X93083095Y-109275571D01*
X92987857Y-109323190D01*
X92606904Y-109323190D01*
X93511666Y-108799380D02*
X94130714Y-108799380D01*
X93797380Y-109180333D01*
X93940238Y-109180333D01*
X94035476Y-109227952D01*
X94083095Y-109275571D01*
X94130714Y-109370809D01*
X94130714Y-109608904D01*
X94083095Y-109704142D01*
X94035476Y-109751761D01*
X93940238Y-109799380D01*
X93654523Y-109799380D01*
X93559285Y-109751761D01*
X93511666Y-109704142D01*
%TO.C,R4*%
X78700333Y-136215380D02*
X78367000Y-135739190D01*
X78128904Y-136215380D02*
X78128904Y-135215380D01*
X78509857Y-135215380D01*
X78605095Y-135263000D01*
X78652714Y-135310619D01*
X78700333Y-135405857D01*
X78700333Y-135548714D01*
X78652714Y-135643952D01*
X78605095Y-135691571D01*
X78509857Y-135739190D01*
X78128904Y-135739190D01*
X79557476Y-135548714D02*
X79557476Y-136215380D01*
X79319380Y-135167761D02*
X79081285Y-135882047D01*
X79700333Y-135882047D01*
%TO.C,R9*%
X103338333Y-73985380D02*
X103005000Y-73509190D01*
X102766904Y-73985380D02*
X102766904Y-72985380D01*
X103147857Y-72985380D01*
X103243095Y-73033000D01*
X103290714Y-73080619D01*
X103338333Y-73175857D01*
X103338333Y-73318714D01*
X103290714Y-73413952D01*
X103243095Y-73461571D01*
X103147857Y-73509190D01*
X102766904Y-73509190D01*
X103814523Y-73985380D02*
X104005000Y-73985380D01*
X104100238Y-73937761D01*
X104147857Y-73890142D01*
X104243095Y-73747285D01*
X104290714Y-73556809D01*
X104290714Y-73175857D01*
X104243095Y-73080619D01*
X104195476Y-73033000D01*
X104100238Y-72985380D01*
X103909761Y-72985380D01*
X103814523Y-73033000D01*
X103766904Y-73080619D01*
X103719285Y-73175857D01*
X103719285Y-73413952D01*
X103766904Y-73509190D01*
X103814523Y-73556809D01*
X103909761Y-73604428D01*
X104100238Y-73604428D01*
X104195476Y-73556809D01*
X104243095Y-73509190D01*
X104290714Y-73413952D01*
%TO.C,R10*%
X102989142Y-99131380D02*
X102655809Y-98655190D01*
X102417714Y-99131380D02*
X102417714Y-98131380D01*
X102798666Y-98131380D01*
X102893904Y-98179000D01*
X102941523Y-98226619D01*
X102989142Y-98321857D01*
X102989142Y-98464714D01*
X102941523Y-98559952D01*
X102893904Y-98607571D01*
X102798666Y-98655190D01*
X102417714Y-98655190D01*
X103941523Y-99131380D02*
X103370095Y-99131380D01*
X103655809Y-99131380D02*
X103655809Y-98131380D01*
X103560571Y-98274238D01*
X103465333Y-98369476D01*
X103370095Y-98417095D01*
X104560571Y-98131380D02*
X104655809Y-98131380D01*
X104751047Y-98179000D01*
X104798666Y-98226619D01*
X104846285Y-98321857D01*
X104893904Y-98512333D01*
X104893904Y-98750428D01*
X104846285Y-98940904D01*
X104798666Y-99036142D01*
X104751047Y-99083761D01*
X104655809Y-99131380D01*
X104560571Y-99131380D01*
X104465333Y-99083761D01*
X104417714Y-99036142D01*
X104370095Y-98940904D01*
X104322476Y-98750428D01*
X104322476Y-98512333D01*
X104370095Y-98321857D01*
X104417714Y-98226619D01*
X104465333Y-98179000D01*
X104560571Y-98131380D01*
%TO.C,R11*%
X104005142Y-123261380D02*
X103671809Y-122785190D01*
X103433714Y-123261380D02*
X103433714Y-122261380D01*
X103814666Y-122261380D01*
X103909904Y-122309000D01*
X103957523Y-122356619D01*
X104005142Y-122451857D01*
X104005142Y-122594714D01*
X103957523Y-122689952D01*
X103909904Y-122737571D01*
X103814666Y-122785190D01*
X103433714Y-122785190D01*
X104957523Y-123261380D02*
X104386095Y-123261380D01*
X104671809Y-123261380D02*
X104671809Y-122261380D01*
X104576571Y-122404238D01*
X104481333Y-122499476D01*
X104386095Y-122547095D01*
X105909904Y-123261380D02*
X105338476Y-123261380D01*
X105624190Y-123261380D02*
X105624190Y-122261380D01*
X105528952Y-122404238D01*
X105433714Y-122499476D01*
X105338476Y-122547095D01*
%TO.C,R12*%
X111117142Y-144343380D02*
X110783809Y-143867190D01*
X110545714Y-144343380D02*
X110545714Y-143343380D01*
X110926666Y-143343380D01*
X111021904Y-143391000D01*
X111069523Y-143438619D01*
X111117142Y-143533857D01*
X111117142Y-143676714D01*
X111069523Y-143771952D01*
X111021904Y-143819571D01*
X110926666Y-143867190D01*
X110545714Y-143867190D01*
X112069523Y-144343380D02*
X111498095Y-144343380D01*
X111783809Y-144343380D02*
X111783809Y-143343380D01*
X111688571Y-143486238D01*
X111593333Y-143581476D01*
X111498095Y-143629095D01*
X112450476Y-143438619D02*
X112498095Y-143391000D01*
X112593333Y-143343380D01*
X112831428Y-143343380D01*
X112926666Y-143391000D01*
X112974285Y-143438619D01*
X113021904Y-143533857D01*
X113021904Y-143629095D01*
X112974285Y-143771952D01*
X112402857Y-144343380D01*
X113021904Y-144343380D01*
%TO.C,R18*%
X135120142Y-100020380D02*
X134786809Y-99544190D01*
X134548714Y-100020380D02*
X134548714Y-99020380D01*
X134929666Y-99020380D01*
X135024904Y-99068000D01*
X135072523Y-99115619D01*
X135120142Y-99210857D01*
X135120142Y-99353714D01*
X135072523Y-99448952D01*
X135024904Y-99496571D01*
X134929666Y-99544190D01*
X134548714Y-99544190D01*
X136072523Y-100020380D02*
X135501095Y-100020380D01*
X135786809Y-100020380D02*
X135786809Y-99020380D01*
X135691571Y-99163238D01*
X135596333Y-99258476D01*
X135501095Y-99306095D01*
X136643952Y-99448952D02*
X136548714Y-99401333D01*
X136501095Y-99353714D01*
X136453476Y-99258476D01*
X136453476Y-99210857D01*
X136501095Y-99115619D01*
X136548714Y-99068000D01*
X136643952Y-99020380D01*
X136834428Y-99020380D01*
X136929666Y-99068000D01*
X136977285Y-99115619D01*
X137024904Y-99210857D01*
X137024904Y-99258476D01*
X136977285Y-99353714D01*
X136929666Y-99401333D01*
X136834428Y-99448952D01*
X136643952Y-99448952D01*
X136548714Y-99496571D01*
X136501095Y-99544190D01*
X136453476Y-99639428D01*
X136453476Y-99829904D01*
X136501095Y-99925142D01*
X136548714Y-99972761D01*
X136643952Y-100020380D01*
X136834428Y-100020380D01*
X136929666Y-99972761D01*
X136977285Y-99925142D01*
X137024904Y-99829904D01*
X137024904Y-99639428D01*
X136977285Y-99544190D01*
X136929666Y-99496571D01*
X136834428Y-99448952D01*
%TO.C,R19*%
X134612142Y-124150380D02*
X134278809Y-123674190D01*
X134040714Y-124150380D02*
X134040714Y-123150380D01*
X134421666Y-123150380D01*
X134516904Y-123198000D01*
X134564523Y-123245619D01*
X134612142Y-123340857D01*
X134612142Y-123483714D01*
X134564523Y-123578952D01*
X134516904Y-123626571D01*
X134421666Y-123674190D01*
X134040714Y-123674190D01*
X135564523Y-124150380D02*
X134993095Y-124150380D01*
X135278809Y-124150380D02*
X135278809Y-123150380D01*
X135183571Y-123293238D01*
X135088333Y-123388476D01*
X134993095Y-123436095D01*
X136040714Y-124150380D02*
X136231190Y-124150380D01*
X136326428Y-124102761D01*
X136374047Y-124055142D01*
X136469285Y-123912285D01*
X136516904Y-123721809D01*
X136516904Y-123340857D01*
X136469285Y-123245619D01*
X136421666Y-123198000D01*
X136326428Y-123150380D01*
X136135952Y-123150380D01*
X136040714Y-123198000D01*
X135993095Y-123245619D01*
X135945476Y-123340857D01*
X135945476Y-123578952D01*
X135993095Y-123674190D01*
X136040714Y-123721809D01*
X136135952Y-123769428D01*
X136326428Y-123769428D01*
X136421666Y-123721809D01*
X136469285Y-123674190D01*
X136516904Y-123578952D01*
%TO.C,R20*%
X120134142Y-144089380D02*
X119800809Y-143613190D01*
X119562714Y-144089380D02*
X119562714Y-143089380D01*
X119943666Y-143089380D01*
X120038904Y-143137000D01*
X120086523Y-143184619D01*
X120134142Y-143279857D01*
X120134142Y-143422714D01*
X120086523Y-143517952D01*
X120038904Y-143565571D01*
X119943666Y-143613190D01*
X119562714Y-143613190D01*
X120515095Y-143184619D02*
X120562714Y-143137000D01*
X120657952Y-143089380D01*
X120896047Y-143089380D01*
X120991285Y-143137000D01*
X121038904Y-143184619D01*
X121086523Y-143279857D01*
X121086523Y-143375095D01*
X121038904Y-143517952D01*
X120467476Y-144089380D01*
X121086523Y-144089380D01*
X121705571Y-143089380D02*
X121800809Y-143089380D01*
X121896047Y-143137000D01*
X121943666Y-143184619D01*
X121991285Y-143279857D01*
X122038904Y-143470333D01*
X122038904Y-143708428D01*
X121991285Y-143898904D01*
X121943666Y-143994142D01*
X121896047Y-144041761D01*
X121800809Y-144089380D01*
X121705571Y-144089380D01*
X121610333Y-144041761D01*
X121562714Y-143994142D01*
X121515095Y-143898904D01*
X121467476Y-143708428D01*
X121467476Y-143470333D01*
X121515095Y-143279857D01*
X121562714Y-143184619D01*
X121610333Y-143137000D01*
X121705571Y-143089380D01*
%TO.C,R21*%
X158361142Y-80716380D02*
X158027809Y-80240190D01*
X157789714Y-80716380D02*
X157789714Y-79716380D01*
X158170666Y-79716380D01*
X158265904Y-79764000D01*
X158313523Y-79811619D01*
X158361142Y-79906857D01*
X158361142Y-80049714D01*
X158313523Y-80144952D01*
X158265904Y-80192571D01*
X158170666Y-80240190D01*
X157789714Y-80240190D01*
X158742095Y-79811619D02*
X158789714Y-79764000D01*
X158884952Y-79716380D01*
X159123047Y-79716380D01*
X159218285Y-79764000D01*
X159265904Y-79811619D01*
X159313523Y-79906857D01*
X159313523Y-80002095D01*
X159265904Y-80144952D01*
X158694476Y-80716380D01*
X159313523Y-80716380D01*
X160265904Y-80716380D02*
X159694476Y-80716380D01*
X159980190Y-80716380D02*
X159980190Y-79716380D01*
X159884952Y-79859238D01*
X159789714Y-79954476D01*
X159694476Y-80002095D01*
%TO.C,R22*%
X150741142Y-69921380D02*
X150407809Y-69445190D01*
X150169714Y-69921380D02*
X150169714Y-68921380D01*
X150550666Y-68921380D01*
X150645904Y-68969000D01*
X150693523Y-69016619D01*
X150741142Y-69111857D01*
X150741142Y-69254714D01*
X150693523Y-69349952D01*
X150645904Y-69397571D01*
X150550666Y-69445190D01*
X150169714Y-69445190D01*
X151122095Y-69016619D02*
X151169714Y-68969000D01*
X151264952Y-68921380D01*
X151503047Y-68921380D01*
X151598285Y-68969000D01*
X151645904Y-69016619D01*
X151693523Y-69111857D01*
X151693523Y-69207095D01*
X151645904Y-69349952D01*
X151074476Y-69921380D01*
X151693523Y-69921380D01*
X152074476Y-69016619D02*
X152122095Y-68969000D01*
X152217333Y-68921380D01*
X152455428Y-68921380D01*
X152550666Y-68969000D01*
X152598285Y-69016619D01*
X152645904Y-69111857D01*
X152645904Y-69207095D01*
X152598285Y-69349952D01*
X152026857Y-69921380D01*
X152645904Y-69921380D01*
%TO.C,R23*%
X158488142Y-105227380D02*
X158154809Y-104751190D01*
X157916714Y-105227380D02*
X157916714Y-104227380D01*
X158297666Y-104227380D01*
X158392904Y-104275000D01*
X158440523Y-104322619D01*
X158488142Y-104417857D01*
X158488142Y-104560714D01*
X158440523Y-104655952D01*
X158392904Y-104703571D01*
X158297666Y-104751190D01*
X157916714Y-104751190D01*
X158869095Y-104322619D02*
X158916714Y-104275000D01*
X159011952Y-104227380D01*
X159250047Y-104227380D01*
X159345285Y-104275000D01*
X159392904Y-104322619D01*
X159440523Y-104417857D01*
X159440523Y-104513095D01*
X159392904Y-104655952D01*
X158821476Y-105227380D01*
X159440523Y-105227380D01*
X159773857Y-104227380D02*
X160392904Y-104227380D01*
X160059571Y-104608333D01*
X160202428Y-104608333D01*
X160297666Y-104655952D01*
X160345285Y-104703571D01*
X160392904Y-104798809D01*
X160392904Y-105036904D01*
X160345285Y-105132142D01*
X160297666Y-105179761D01*
X160202428Y-105227380D01*
X159916714Y-105227380D01*
X159821476Y-105179761D01*
X159773857Y-105132142D01*
%TO.C,R24*%
X153281142Y-94305380D02*
X152947809Y-93829190D01*
X152709714Y-94305380D02*
X152709714Y-93305380D01*
X153090666Y-93305380D01*
X153185904Y-93353000D01*
X153233523Y-93400619D01*
X153281142Y-93495857D01*
X153281142Y-93638714D01*
X153233523Y-93733952D01*
X153185904Y-93781571D01*
X153090666Y-93829190D01*
X152709714Y-93829190D01*
X153662095Y-93400619D02*
X153709714Y-93353000D01*
X153804952Y-93305380D01*
X154043047Y-93305380D01*
X154138285Y-93353000D01*
X154185904Y-93400619D01*
X154233523Y-93495857D01*
X154233523Y-93591095D01*
X154185904Y-93733952D01*
X153614476Y-94305380D01*
X154233523Y-94305380D01*
X155090666Y-93638714D02*
X155090666Y-94305380D01*
X154852571Y-93257761D02*
X154614476Y-93972047D01*
X155233523Y-93972047D01*
%TO.C,R25*%
X158996142Y-129865380D02*
X158662809Y-129389190D01*
X158424714Y-129865380D02*
X158424714Y-128865380D01*
X158805666Y-128865380D01*
X158900904Y-128913000D01*
X158948523Y-128960619D01*
X158996142Y-129055857D01*
X158996142Y-129198714D01*
X158948523Y-129293952D01*
X158900904Y-129341571D01*
X158805666Y-129389190D01*
X158424714Y-129389190D01*
X159377095Y-128960619D02*
X159424714Y-128913000D01*
X159519952Y-128865380D01*
X159758047Y-128865380D01*
X159853285Y-128913000D01*
X159900904Y-128960619D01*
X159948523Y-129055857D01*
X159948523Y-129151095D01*
X159900904Y-129293952D01*
X159329476Y-129865380D01*
X159948523Y-129865380D01*
X160853285Y-128865380D02*
X160377095Y-128865380D01*
X160329476Y-129341571D01*
X160377095Y-129293952D01*
X160472333Y-129246333D01*
X160710428Y-129246333D01*
X160805666Y-129293952D01*
X160853285Y-129341571D01*
X160900904Y-129436809D01*
X160900904Y-129674904D01*
X160853285Y-129770142D01*
X160805666Y-129817761D01*
X160710428Y-129865380D01*
X160472333Y-129865380D01*
X160377095Y-129817761D01*
X160329476Y-129770142D01*
%TO.C,R26*%
X151503142Y-118308380D02*
X151169809Y-117832190D01*
X150931714Y-118308380D02*
X150931714Y-117308380D01*
X151312666Y-117308380D01*
X151407904Y-117356000D01*
X151455523Y-117403619D01*
X151503142Y-117498857D01*
X151503142Y-117641714D01*
X151455523Y-117736952D01*
X151407904Y-117784571D01*
X151312666Y-117832190D01*
X150931714Y-117832190D01*
X151884095Y-117403619D02*
X151931714Y-117356000D01*
X152026952Y-117308380D01*
X152265047Y-117308380D01*
X152360285Y-117356000D01*
X152407904Y-117403619D01*
X152455523Y-117498857D01*
X152455523Y-117594095D01*
X152407904Y-117736952D01*
X151836476Y-118308380D01*
X152455523Y-118308380D01*
X153312666Y-117308380D02*
X153122190Y-117308380D01*
X153026952Y-117356000D01*
X152979333Y-117403619D01*
X152884095Y-117546476D01*
X152836476Y-117736952D01*
X152836476Y-118117904D01*
X152884095Y-118213142D01*
X152931714Y-118260761D01*
X153026952Y-118308380D01*
X153217428Y-118308380D01*
X153312666Y-118260761D01*
X153360285Y-118213142D01*
X153407904Y-118117904D01*
X153407904Y-117879809D01*
X153360285Y-117784571D01*
X153312666Y-117736952D01*
X153217428Y-117689333D01*
X153026952Y-117689333D01*
X152931714Y-117736952D01*
X152884095Y-117784571D01*
X152836476Y-117879809D01*
%TO.C,R27*%
X68572142Y-129484380D02*
X68238809Y-129008190D01*
X68000714Y-129484380D02*
X68000714Y-128484380D01*
X68381666Y-128484380D01*
X68476904Y-128532000D01*
X68524523Y-128579619D01*
X68572142Y-128674857D01*
X68572142Y-128817714D01*
X68524523Y-128912952D01*
X68476904Y-128960571D01*
X68381666Y-129008190D01*
X68000714Y-129008190D01*
X68953095Y-128579619D02*
X69000714Y-128532000D01*
X69095952Y-128484380D01*
X69334047Y-128484380D01*
X69429285Y-128532000D01*
X69476904Y-128579619D01*
X69524523Y-128674857D01*
X69524523Y-128770095D01*
X69476904Y-128912952D01*
X68905476Y-129484380D01*
X69524523Y-129484380D01*
X69857857Y-128484380D02*
X70524523Y-128484380D01*
X70095952Y-129484380D01*
%TO.C,U1*%
X69469095Y-78065380D02*
X69469095Y-78874904D01*
X69516714Y-78970142D01*
X69564333Y-79017761D01*
X69659571Y-79065380D01*
X69850047Y-79065380D01*
X69945285Y-79017761D01*
X69992904Y-78970142D01*
X70040523Y-78874904D01*
X70040523Y-78065380D01*
X71040523Y-79065380D02*
X70469095Y-79065380D01*
X70754809Y-79065380D02*
X70754809Y-78065380D01*
X70659571Y-78208238D01*
X70564333Y-78303476D01*
X70469095Y-78351095D01*
%TO.C,U2*%
X73279095Y-125436380D02*
X73279095Y-126245904D01*
X73326714Y-126341142D01*
X73374333Y-126388761D01*
X73469571Y-126436380D01*
X73660047Y-126436380D01*
X73755285Y-126388761D01*
X73802904Y-126341142D01*
X73850523Y-126245904D01*
X73850523Y-125436380D01*
X74279095Y-125531619D02*
X74326714Y-125484000D01*
X74421952Y-125436380D01*
X74660047Y-125436380D01*
X74755285Y-125484000D01*
X74802904Y-125531619D01*
X74850523Y-125626857D01*
X74850523Y-125722095D01*
X74802904Y-125864952D01*
X74231476Y-126436380D01*
X74850523Y-126436380D01*
%TO.C,U3*%
X153162095Y-74128380D02*
X153162095Y-74937904D01*
X153209714Y-75033142D01*
X153257333Y-75080761D01*
X153352571Y-75128380D01*
X153543047Y-75128380D01*
X153638285Y-75080761D01*
X153685904Y-75033142D01*
X153733523Y-74937904D01*
X153733523Y-74128380D01*
X154114476Y-74128380D02*
X154733523Y-74128380D01*
X154400190Y-74509333D01*
X154543047Y-74509333D01*
X154638285Y-74556952D01*
X154685904Y-74604571D01*
X154733523Y-74699809D01*
X154733523Y-74937904D01*
X154685904Y-75033142D01*
X154638285Y-75080761D01*
X154543047Y-75128380D01*
X154257333Y-75128380D01*
X154162095Y-75080761D01*
X154114476Y-75033142D01*
%TO.C,U4*%
X153670095Y-98639380D02*
X153670095Y-99448904D01*
X153717714Y-99544142D01*
X153765333Y-99591761D01*
X153860571Y-99639380D01*
X154051047Y-99639380D01*
X154146285Y-99591761D01*
X154193904Y-99544142D01*
X154241523Y-99448904D01*
X154241523Y-98639380D01*
X155146285Y-98972714D02*
X155146285Y-99639380D01*
X154908190Y-98591761D02*
X154670095Y-99306047D01*
X155289142Y-99306047D01*
%TO.C,U5*%
X153416095Y-122642380D02*
X153416095Y-123451904D01*
X153463714Y-123547142D01*
X153511333Y-123594761D01*
X153606571Y-123642380D01*
X153797047Y-123642380D01*
X153892285Y-123594761D01*
X153939904Y-123547142D01*
X153987523Y-123451904D01*
X153987523Y-122642380D01*
X154939904Y-122642380D02*
X154463714Y-122642380D01*
X154416095Y-123118571D01*
X154463714Y-123070952D01*
X154558952Y-123023333D01*
X154797047Y-123023333D01*
X154892285Y-123070952D01*
X154939904Y-123118571D01*
X154987523Y-123213809D01*
X154987523Y-123451904D01*
X154939904Y-123547142D01*
X154892285Y-123594761D01*
X154797047Y-123642380D01*
X154558952Y-123642380D01*
X154463714Y-123594761D01*
X154416095Y-123547142D01*
%TO.C,J6*%
X158797666Y-61428380D02*
X158797666Y-62142666D01*
X158750047Y-62285523D01*
X158654809Y-62380761D01*
X158511952Y-62428380D01*
X158416714Y-62428380D01*
X159702428Y-61428380D02*
X159511952Y-61428380D01*
X159416714Y-61476000D01*
X159369095Y-61523619D01*
X159273857Y-61666476D01*
X159226238Y-61856952D01*
X159226238Y-62237904D01*
X159273857Y-62333142D01*
X159321476Y-62380761D01*
X159416714Y-62428380D01*
X159607190Y-62428380D01*
X159702428Y-62380761D01*
X159750047Y-62333142D01*
X159797666Y-62237904D01*
X159797666Y-61999809D01*
X159750047Y-61904571D01*
X159702428Y-61856952D01*
X159607190Y-61809333D01*
X159416714Y-61809333D01*
X159321476Y-61856952D01*
X159273857Y-61904571D01*
X159226238Y-61999809D01*
%TO.C,J7*%
X158924666Y-84542380D02*
X158924666Y-85256666D01*
X158877047Y-85399523D01*
X158781809Y-85494761D01*
X158638952Y-85542380D01*
X158543714Y-85542380D01*
X159305619Y-84542380D02*
X159972285Y-84542380D01*
X159543714Y-85542380D01*
%TO.C,J8*%
X158924666Y-110323380D02*
X158924666Y-111037666D01*
X158877047Y-111180523D01*
X158781809Y-111275761D01*
X158638952Y-111323380D01*
X158543714Y-111323380D01*
X159543714Y-110751952D02*
X159448476Y-110704333D01*
X159400857Y-110656714D01*
X159353238Y-110561476D01*
X159353238Y-110513857D01*
X159400857Y-110418619D01*
X159448476Y-110371000D01*
X159543714Y-110323380D01*
X159734190Y-110323380D01*
X159829428Y-110371000D01*
X159877047Y-110418619D01*
X159924666Y-110513857D01*
X159924666Y-110561476D01*
X159877047Y-110656714D01*
X159829428Y-110704333D01*
X159734190Y-110751952D01*
X159543714Y-110751952D01*
X159448476Y-110799571D01*
X159400857Y-110847190D01*
X159353238Y-110942428D01*
X159353238Y-111132904D01*
X159400857Y-111228142D01*
X159448476Y-111275761D01*
X159543714Y-111323380D01*
X159734190Y-111323380D01*
X159829428Y-111275761D01*
X159877047Y-111228142D01*
X159924666Y-111132904D01*
X159924666Y-110942428D01*
X159877047Y-110847190D01*
X159829428Y-110799571D01*
X159734190Y-110751952D01*
%TO.C,J9*%
X158797666Y-134580380D02*
X158797666Y-135294666D01*
X158750047Y-135437523D01*
X158654809Y-135532761D01*
X158511952Y-135580380D01*
X158416714Y-135580380D01*
X159321476Y-135580380D02*
X159511952Y-135580380D01*
X159607190Y-135532761D01*
X159654809Y-135485142D01*
X159750047Y-135342285D01*
X159797666Y-135151809D01*
X159797666Y-134770857D01*
X159750047Y-134675619D01*
X159702428Y-134628000D01*
X159607190Y-134580380D01*
X159416714Y-134580380D01*
X159321476Y-134628000D01*
X159273857Y-134675619D01*
X159226238Y-134770857D01*
X159226238Y-135008952D01*
X159273857Y-135104190D01*
X159321476Y-135151809D01*
X159416714Y-135199428D01*
X159607190Y-135199428D01*
X159702428Y-135151809D01*
X159750047Y-135104190D01*
X159797666Y-135008952D01*
%TO.C,K6*%
X126642904Y-75636380D02*
X126642904Y-74636380D01*
X127214333Y-75636380D02*
X126785761Y-75064952D01*
X127214333Y-74636380D02*
X126642904Y-75207809D01*
X128071476Y-74636380D02*
X127881000Y-74636380D01*
X127785761Y-74684000D01*
X127738142Y-74731619D01*
X127642904Y-74874476D01*
X127595285Y-75064952D01*
X127595285Y-75445904D01*
X127642904Y-75541142D01*
X127690523Y-75588761D01*
X127785761Y-75636380D01*
X127976238Y-75636380D01*
X128071476Y-75588761D01*
X128119095Y-75541142D01*
X128166714Y-75445904D01*
X128166714Y-75207809D01*
X128119095Y-75112571D01*
X128071476Y-75064952D01*
X127976238Y-75017333D01*
X127785761Y-75017333D01*
X127690523Y-75064952D01*
X127642904Y-75112571D01*
X127595285Y-75207809D01*
%TO.C,Q1*%
X96170761Y-72175619D02*
X96075523Y-72128000D01*
X95980285Y-72032761D01*
X95837428Y-71889904D01*
X95742190Y-71842285D01*
X95646952Y-71842285D01*
X95694571Y-72080380D02*
X95599333Y-72032761D01*
X95504095Y-71937523D01*
X95456476Y-71747047D01*
X95456476Y-71413714D01*
X95504095Y-71223238D01*
X95599333Y-71128000D01*
X95694571Y-71080380D01*
X95885047Y-71080380D01*
X95980285Y-71128000D01*
X96075523Y-71223238D01*
X96123142Y-71413714D01*
X96123142Y-71747047D01*
X96075523Y-71937523D01*
X95980285Y-72032761D01*
X95885047Y-72080380D01*
X95694571Y-72080380D01*
X97075523Y-72080380D02*
X96504095Y-72080380D01*
X96789809Y-72080380D02*
X96789809Y-71080380D01*
X96694571Y-71223238D01*
X96599333Y-71318476D01*
X96504095Y-71366095D01*
%TO.C,Q2*%
X96043761Y-94654619D02*
X95948523Y-94607000D01*
X95853285Y-94511761D01*
X95710428Y-94368904D01*
X95615190Y-94321285D01*
X95519952Y-94321285D01*
X95567571Y-94559380D02*
X95472333Y-94511761D01*
X95377095Y-94416523D01*
X95329476Y-94226047D01*
X95329476Y-93892714D01*
X95377095Y-93702238D01*
X95472333Y-93607000D01*
X95567571Y-93559380D01*
X95758047Y-93559380D01*
X95853285Y-93607000D01*
X95948523Y-93702238D01*
X95996142Y-93892714D01*
X95996142Y-94226047D01*
X95948523Y-94416523D01*
X95853285Y-94511761D01*
X95758047Y-94559380D01*
X95567571Y-94559380D01*
X96377095Y-93654619D02*
X96424714Y-93607000D01*
X96519952Y-93559380D01*
X96758047Y-93559380D01*
X96853285Y-93607000D01*
X96900904Y-93654619D01*
X96948523Y-93749857D01*
X96948523Y-93845095D01*
X96900904Y-93987952D01*
X96329476Y-94559380D01*
X96948523Y-94559380D01*
%TO.C,Q3*%
X96424761Y-119165619D02*
X96329523Y-119118000D01*
X96234285Y-119022761D01*
X96091428Y-118879904D01*
X95996190Y-118832285D01*
X95900952Y-118832285D01*
X95948571Y-119070380D02*
X95853333Y-119022761D01*
X95758095Y-118927523D01*
X95710476Y-118737047D01*
X95710476Y-118403714D01*
X95758095Y-118213238D01*
X95853333Y-118118000D01*
X95948571Y-118070380D01*
X96139047Y-118070380D01*
X96234285Y-118118000D01*
X96329523Y-118213238D01*
X96377142Y-118403714D01*
X96377142Y-118737047D01*
X96329523Y-118927523D01*
X96234285Y-119022761D01*
X96139047Y-119070380D01*
X95948571Y-119070380D01*
X96710476Y-118070380D02*
X97329523Y-118070380D01*
X96996190Y-118451333D01*
X97139047Y-118451333D01*
X97234285Y-118498952D01*
X97281904Y-118546571D01*
X97329523Y-118641809D01*
X97329523Y-118879904D01*
X97281904Y-118975142D01*
X97234285Y-119022761D01*
X97139047Y-119070380D01*
X96853333Y-119070380D01*
X96758095Y-119022761D01*
X96710476Y-118975142D01*
%TO.C,Q4*%
X105761761Y-144438619D02*
X105666523Y-144391000D01*
X105571285Y-144295761D01*
X105428428Y-144152904D01*
X105333190Y-144105285D01*
X105237952Y-144105285D01*
X105285571Y-144343380D02*
X105190333Y-144295761D01*
X105095095Y-144200523D01*
X105047476Y-144010047D01*
X105047476Y-143676714D01*
X105095095Y-143486238D01*
X105190333Y-143391000D01*
X105285571Y-143343380D01*
X105476047Y-143343380D01*
X105571285Y-143391000D01*
X105666523Y-143486238D01*
X105714142Y-143676714D01*
X105714142Y-144010047D01*
X105666523Y-144200523D01*
X105571285Y-144295761D01*
X105476047Y-144343380D01*
X105285571Y-144343380D01*
X106571285Y-143676714D02*
X106571285Y-144343380D01*
X106333190Y-143295761D02*
X106095095Y-144010047D01*
X106714142Y-144010047D01*
%TO.C,Q5*%
X127666761Y-70778619D02*
X127571523Y-70731000D01*
X127476285Y-70635761D01*
X127333428Y-70492904D01*
X127238190Y-70445285D01*
X127142952Y-70445285D01*
X127190571Y-70683380D02*
X127095333Y-70635761D01*
X127000095Y-70540523D01*
X126952476Y-70350047D01*
X126952476Y-70016714D01*
X127000095Y-69826238D01*
X127095333Y-69731000D01*
X127190571Y-69683380D01*
X127381047Y-69683380D01*
X127476285Y-69731000D01*
X127571523Y-69826238D01*
X127619142Y-70016714D01*
X127619142Y-70350047D01*
X127571523Y-70540523D01*
X127476285Y-70635761D01*
X127381047Y-70683380D01*
X127190571Y-70683380D01*
X128523904Y-69683380D02*
X128047714Y-69683380D01*
X128000095Y-70159571D01*
X128047714Y-70111952D01*
X128142952Y-70064333D01*
X128381047Y-70064333D01*
X128476285Y-70111952D01*
X128523904Y-70159571D01*
X128571523Y-70254809D01*
X128571523Y-70492904D01*
X128523904Y-70588142D01*
X128476285Y-70635761D01*
X128381047Y-70683380D01*
X128142952Y-70683380D01*
X128047714Y-70635761D01*
X128000095Y-70588142D01*
%TO.C,Q6*%
X127412761Y-95162619D02*
X127317523Y-95115000D01*
X127222285Y-95019761D01*
X127079428Y-94876904D01*
X126984190Y-94829285D01*
X126888952Y-94829285D01*
X126936571Y-95067380D02*
X126841333Y-95019761D01*
X126746095Y-94924523D01*
X126698476Y-94734047D01*
X126698476Y-94400714D01*
X126746095Y-94210238D01*
X126841333Y-94115000D01*
X126936571Y-94067380D01*
X127127047Y-94067380D01*
X127222285Y-94115000D01*
X127317523Y-94210238D01*
X127365142Y-94400714D01*
X127365142Y-94734047D01*
X127317523Y-94924523D01*
X127222285Y-95019761D01*
X127127047Y-95067380D01*
X126936571Y-95067380D01*
X128222285Y-94067380D02*
X128031809Y-94067380D01*
X127936571Y-94115000D01*
X127888952Y-94162619D01*
X127793714Y-94305476D01*
X127746095Y-94495952D01*
X127746095Y-94876904D01*
X127793714Y-94972142D01*
X127841333Y-95019761D01*
X127936571Y-95067380D01*
X128127047Y-95067380D01*
X128222285Y-95019761D01*
X128269904Y-94972142D01*
X128317523Y-94876904D01*
X128317523Y-94638809D01*
X128269904Y-94543571D01*
X128222285Y-94495952D01*
X128127047Y-94448333D01*
X127936571Y-94448333D01*
X127841333Y-94495952D01*
X127793714Y-94543571D01*
X127746095Y-94638809D01*
%TO.C,Q7*%
X127285761Y-120308619D02*
X127190523Y-120261000D01*
X127095285Y-120165761D01*
X126952428Y-120022904D01*
X126857190Y-119975285D01*
X126761952Y-119975285D01*
X126809571Y-120213380D02*
X126714333Y-120165761D01*
X126619095Y-120070523D01*
X126571476Y-119880047D01*
X126571476Y-119546714D01*
X126619095Y-119356238D01*
X126714333Y-119261000D01*
X126809571Y-119213380D01*
X127000047Y-119213380D01*
X127095285Y-119261000D01*
X127190523Y-119356238D01*
X127238142Y-119546714D01*
X127238142Y-119880047D01*
X127190523Y-120070523D01*
X127095285Y-120165761D01*
X127000047Y-120213380D01*
X126809571Y-120213380D01*
X127571476Y-119213380D02*
X128238142Y-119213380D01*
X127809571Y-120213380D01*
%TO.C,Q8*%
X127793761Y-144311619D02*
X127698523Y-144264000D01*
X127603285Y-144168761D01*
X127460428Y-144025904D01*
X127365190Y-143978285D01*
X127269952Y-143978285D01*
X127317571Y-144216380D02*
X127222333Y-144168761D01*
X127127095Y-144073523D01*
X127079476Y-143883047D01*
X127079476Y-143549714D01*
X127127095Y-143359238D01*
X127222333Y-143264000D01*
X127317571Y-143216380D01*
X127508047Y-143216380D01*
X127603285Y-143264000D01*
X127698523Y-143359238D01*
X127746142Y-143549714D01*
X127746142Y-143883047D01*
X127698523Y-144073523D01*
X127603285Y-144168761D01*
X127508047Y-144216380D01*
X127317571Y-144216380D01*
X128317571Y-143644952D02*
X128222333Y-143597333D01*
X128174714Y-143549714D01*
X128127095Y-143454476D01*
X128127095Y-143406857D01*
X128174714Y-143311619D01*
X128222333Y-143264000D01*
X128317571Y-143216380D01*
X128508047Y-143216380D01*
X128603285Y-143264000D01*
X128650904Y-143311619D01*
X128698523Y-143406857D01*
X128698523Y-143454476D01*
X128650904Y-143549714D01*
X128603285Y-143597333D01*
X128508047Y-143644952D01*
X128317571Y-143644952D01*
X128222333Y-143692571D01*
X128174714Y-143740190D01*
X128127095Y-143835428D01*
X128127095Y-144025904D01*
X128174714Y-144121142D01*
X128222333Y-144168761D01*
X128317571Y-144216380D01*
X128508047Y-144216380D01*
X128603285Y-144168761D01*
X128650904Y-144121142D01*
X128698523Y-144025904D01*
X128698523Y-143835428D01*
X128650904Y-143740190D01*
X128603285Y-143692571D01*
X128508047Y-143644952D01*
%TO.C,Q9*%
X150907761Y-143676619D02*
X150812523Y-143629000D01*
X150717285Y-143533761D01*
X150574428Y-143390904D01*
X150479190Y-143343285D01*
X150383952Y-143343285D01*
X150431571Y-143581380D02*
X150336333Y-143533761D01*
X150241095Y-143438523D01*
X150193476Y-143248047D01*
X150193476Y-142914714D01*
X150241095Y-142724238D01*
X150336333Y-142629000D01*
X150431571Y-142581380D01*
X150622047Y-142581380D01*
X150717285Y-142629000D01*
X150812523Y-142724238D01*
X150860142Y-142914714D01*
X150860142Y-143248047D01*
X150812523Y-143438523D01*
X150717285Y-143533761D01*
X150622047Y-143581380D01*
X150431571Y-143581380D01*
X151336333Y-143581380D02*
X151526809Y-143581380D01*
X151622047Y-143533761D01*
X151669666Y-143486142D01*
X151764904Y-143343285D01*
X151812523Y-143152809D01*
X151812523Y-142771857D01*
X151764904Y-142676619D01*
X151717285Y-142629000D01*
X151622047Y-142581380D01*
X151431571Y-142581380D01*
X151336333Y-142629000D01*
X151288714Y-142676619D01*
X151241095Y-142771857D01*
X151241095Y-143009952D01*
X151288714Y-143105190D01*
X151336333Y-143152809D01*
X151431571Y-143200428D01*
X151622047Y-143200428D01*
X151717285Y-143152809D01*
X151764904Y-143105190D01*
X151812523Y-143009952D01*
%TO.C,R1*%
X143597333Y-143581380D02*
X143264000Y-143105190D01*
X143025904Y-143581380D02*
X143025904Y-142581380D01*
X143406857Y-142581380D01*
X143502095Y-142629000D01*
X143549714Y-142676619D01*
X143597333Y-142771857D01*
X143597333Y-142914714D01*
X143549714Y-143009952D01*
X143502095Y-143057571D01*
X143406857Y-143105190D01*
X143025904Y-143105190D01*
X144549714Y-143581380D02*
X143978285Y-143581380D01*
X144264000Y-143581380D02*
X144264000Y-142581380D01*
X144168761Y-142724238D01*
X144073523Y-142819476D01*
X143978285Y-142867095D01*
%TO.C,R5*%
X99845833Y-74048880D02*
X99512500Y-73572690D01*
X99274404Y-74048880D02*
X99274404Y-73048880D01*
X99655357Y-73048880D01*
X99750595Y-73096500D01*
X99798214Y-73144119D01*
X99845833Y-73239357D01*
X99845833Y-73382214D01*
X99798214Y-73477452D01*
X99750595Y-73525071D01*
X99655357Y-73572690D01*
X99274404Y-73572690D01*
X100750595Y-73048880D02*
X100274404Y-73048880D01*
X100226785Y-73525071D01*
X100274404Y-73477452D01*
X100369642Y-73429833D01*
X100607738Y-73429833D01*
X100702976Y-73477452D01*
X100750595Y-73525071D01*
X100798214Y-73620309D01*
X100798214Y-73858404D01*
X100750595Y-73953642D01*
X100702976Y-74001261D01*
X100607738Y-74048880D01*
X100369642Y-74048880D01*
X100274404Y-74001261D01*
X100226785Y-73953642D01*
%TO.C,R6*%
X100163333Y-99131380D02*
X99830000Y-98655190D01*
X99591904Y-99131380D02*
X99591904Y-98131380D01*
X99972857Y-98131380D01*
X100068095Y-98179000D01*
X100115714Y-98226619D01*
X100163333Y-98321857D01*
X100163333Y-98464714D01*
X100115714Y-98559952D01*
X100068095Y-98607571D01*
X99972857Y-98655190D01*
X99591904Y-98655190D01*
X101020476Y-98131380D02*
X100830000Y-98131380D01*
X100734761Y-98179000D01*
X100687142Y-98226619D01*
X100591904Y-98369476D01*
X100544285Y-98559952D01*
X100544285Y-98940904D01*
X100591904Y-99036142D01*
X100639523Y-99083761D01*
X100734761Y-99131380D01*
X100925238Y-99131380D01*
X101020476Y-99083761D01*
X101068095Y-99036142D01*
X101115714Y-98940904D01*
X101115714Y-98702809D01*
X101068095Y-98607571D01*
X101020476Y-98559952D01*
X100925238Y-98512333D01*
X100734761Y-98512333D01*
X100639523Y-98559952D01*
X100591904Y-98607571D01*
X100544285Y-98702809D01*
%TO.C,R7*%
X101369833Y-123261380D02*
X101036500Y-122785190D01*
X100798404Y-123261380D02*
X100798404Y-122261380D01*
X101179357Y-122261380D01*
X101274595Y-122309000D01*
X101322214Y-122356619D01*
X101369833Y-122451857D01*
X101369833Y-122594714D01*
X101322214Y-122689952D01*
X101274595Y-122737571D01*
X101179357Y-122785190D01*
X100798404Y-122785190D01*
X101703166Y-122261380D02*
X102369833Y-122261380D01*
X101941261Y-123261380D01*
%TO.C,R8*%
X108545333Y-144343380D02*
X108212000Y-143867190D01*
X107973904Y-144343380D02*
X107973904Y-143343380D01*
X108354857Y-143343380D01*
X108450095Y-143391000D01*
X108497714Y-143438619D01*
X108545333Y-143533857D01*
X108545333Y-143676714D01*
X108497714Y-143771952D01*
X108450095Y-143819571D01*
X108354857Y-143867190D01*
X107973904Y-143867190D01*
X109116761Y-143771952D02*
X109021523Y-143724333D01*
X108973904Y-143676714D01*
X108926285Y-143581476D01*
X108926285Y-143533857D01*
X108973904Y-143438619D01*
X109021523Y-143391000D01*
X109116761Y-143343380D01*
X109307238Y-143343380D01*
X109402476Y-143391000D01*
X109450095Y-143438619D01*
X109497714Y-143533857D01*
X109497714Y-143581476D01*
X109450095Y-143676714D01*
X109402476Y-143724333D01*
X109307238Y-143771952D01*
X109116761Y-143771952D01*
X109021523Y-143819571D01*
X108973904Y-143867190D01*
X108926285Y-143962428D01*
X108926285Y-144152904D01*
X108973904Y-144248142D01*
X109021523Y-144295761D01*
X109116761Y-144343380D01*
X109307238Y-144343380D01*
X109402476Y-144295761D01*
X109450095Y-144248142D01*
X109497714Y-144152904D01*
X109497714Y-143962428D01*
X109450095Y-143867190D01*
X109402476Y-143819571D01*
X109307238Y-143771952D01*
%TO.C,R13*%
X131945142Y-75382380D02*
X131611809Y-74906190D01*
X131373714Y-75382380D02*
X131373714Y-74382380D01*
X131754666Y-74382380D01*
X131849904Y-74430000D01*
X131897523Y-74477619D01*
X131945142Y-74572857D01*
X131945142Y-74715714D01*
X131897523Y-74810952D01*
X131849904Y-74858571D01*
X131754666Y-74906190D01*
X131373714Y-74906190D01*
X132897523Y-75382380D02*
X132326095Y-75382380D01*
X132611809Y-75382380D02*
X132611809Y-74382380D01*
X132516571Y-74525238D01*
X132421333Y-74620476D01*
X132326095Y-74668095D01*
X133230857Y-74382380D02*
X133849904Y-74382380D01*
X133516571Y-74763333D01*
X133659428Y-74763333D01*
X133754666Y-74810952D01*
X133802285Y-74858571D01*
X133849904Y-74953809D01*
X133849904Y-75191904D01*
X133802285Y-75287142D01*
X133754666Y-75334761D01*
X133659428Y-75382380D01*
X133373714Y-75382380D01*
X133278476Y-75334761D01*
X133230857Y-75287142D01*
%TO.C,R14*%
X131564142Y-100020380D02*
X131230809Y-99544190D01*
X130992714Y-100020380D02*
X130992714Y-99020380D01*
X131373666Y-99020380D01*
X131468904Y-99068000D01*
X131516523Y-99115619D01*
X131564142Y-99210857D01*
X131564142Y-99353714D01*
X131516523Y-99448952D01*
X131468904Y-99496571D01*
X131373666Y-99544190D01*
X130992714Y-99544190D01*
X132516523Y-100020380D02*
X131945095Y-100020380D01*
X132230809Y-100020380D02*
X132230809Y-99020380D01*
X132135571Y-99163238D01*
X132040333Y-99258476D01*
X131945095Y-99306095D01*
X133373666Y-99353714D02*
X133373666Y-100020380D01*
X133135571Y-98972761D02*
X132897476Y-99687047D01*
X133516523Y-99687047D01*
%TO.C,R15*%
X131310142Y-124150380D02*
X130976809Y-123674190D01*
X130738714Y-124150380D02*
X130738714Y-123150380D01*
X131119666Y-123150380D01*
X131214904Y-123198000D01*
X131262523Y-123245619D01*
X131310142Y-123340857D01*
X131310142Y-123483714D01*
X131262523Y-123578952D01*
X131214904Y-123626571D01*
X131119666Y-123674190D01*
X130738714Y-123674190D01*
X132262523Y-124150380D02*
X131691095Y-124150380D01*
X131976809Y-124150380D02*
X131976809Y-123150380D01*
X131881571Y-123293238D01*
X131786333Y-123388476D01*
X131691095Y-123436095D01*
X133167285Y-123150380D02*
X132691095Y-123150380D01*
X132643476Y-123626571D01*
X132691095Y-123578952D01*
X132786333Y-123531333D01*
X133024428Y-123531333D01*
X133119666Y-123578952D01*
X133167285Y-123626571D01*
X133214904Y-123721809D01*
X133214904Y-123959904D01*
X133167285Y-124055142D01*
X133119666Y-124102761D01*
X133024428Y-124150380D01*
X132786333Y-124150380D01*
X132691095Y-124102761D01*
X132643476Y-124055142D01*
%TO.C,R16*%
X123944142Y-144216380D02*
X123610809Y-143740190D01*
X123372714Y-144216380D02*
X123372714Y-143216380D01*
X123753666Y-143216380D01*
X123848904Y-143264000D01*
X123896523Y-143311619D01*
X123944142Y-143406857D01*
X123944142Y-143549714D01*
X123896523Y-143644952D01*
X123848904Y-143692571D01*
X123753666Y-143740190D01*
X123372714Y-143740190D01*
X124896523Y-144216380D02*
X124325095Y-144216380D01*
X124610809Y-144216380D02*
X124610809Y-143216380D01*
X124515571Y-143359238D01*
X124420333Y-143454476D01*
X124325095Y-143502095D01*
X125753666Y-143216380D02*
X125563190Y-143216380D01*
X125467952Y-143264000D01*
X125420333Y-143311619D01*
X125325095Y-143454476D01*
X125277476Y-143644952D01*
X125277476Y-144025904D01*
X125325095Y-144121142D01*
X125372714Y-144168761D01*
X125467952Y-144216380D01*
X125658428Y-144216380D01*
X125753666Y-144168761D01*
X125801285Y-144121142D01*
X125848904Y-144025904D01*
X125848904Y-143787809D01*
X125801285Y-143692571D01*
X125753666Y-143644952D01*
X125658428Y-143597333D01*
X125467952Y-143597333D01*
X125372714Y-143644952D01*
X125325095Y-143692571D01*
X125277476Y-143787809D01*
%TO.C,R28*%
X146931142Y-143581380D02*
X146597809Y-143105190D01*
X146359714Y-143581380D02*
X146359714Y-142581380D01*
X146740666Y-142581380D01*
X146835904Y-142629000D01*
X146883523Y-142676619D01*
X146931142Y-142771857D01*
X146931142Y-142914714D01*
X146883523Y-143009952D01*
X146835904Y-143057571D01*
X146740666Y-143105190D01*
X146359714Y-143105190D01*
X147312095Y-142676619D02*
X147359714Y-142629000D01*
X147454952Y-142581380D01*
X147693047Y-142581380D01*
X147788285Y-142629000D01*
X147835904Y-142676619D01*
X147883523Y-142771857D01*
X147883523Y-142867095D01*
X147835904Y-143009952D01*
X147264476Y-143581380D01*
X147883523Y-143581380D01*
X148454952Y-143009952D02*
X148359714Y-142962333D01*
X148312095Y-142914714D01*
X148264476Y-142819476D01*
X148264476Y-142771857D01*
X148312095Y-142676619D01*
X148359714Y-142629000D01*
X148454952Y-142581380D01*
X148645428Y-142581380D01*
X148740666Y-142629000D01*
X148788285Y-142676619D01*
X148835904Y-142771857D01*
X148835904Y-142819476D01*
X148788285Y-142914714D01*
X148740666Y-142962333D01*
X148645428Y-143009952D01*
X148454952Y-143009952D01*
X148359714Y-143057571D01*
X148312095Y-143105190D01*
X148264476Y-143200428D01*
X148264476Y-143390904D01*
X148312095Y-143486142D01*
X148359714Y-143533761D01*
X148454952Y-143581380D01*
X148645428Y-143581380D01*
X148740666Y-143533761D01*
X148788285Y-143486142D01*
X148835904Y-143390904D01*
X148835904Y-143200428D01*
X148788285Y-143105190D01*
X148740666Y-143057571D01*
X148645428Y-143009952D01*
%TO.C,R29*%
X153662142Y-143581380D02*
X153328809Y-143105190D01*
X153090714Y-143581380D02*
X153090714Y-142581380D01*
X153471666Y-142581380D01*
X153566904Y-142629000D01*
X153614523Y-142676619D01*
X153662142Y-142771857D01*
X153662142Y-142914714D01*
X153614523Y-143009952D01*
X153566904Y-143057571D01*
X153471666Y-143105190D01*
X153090714Y-143105190D01*
X154043095Y-142676619D02*
X154090714Y-142629000D01*
X154185952Y-142581380D01*
X154424047Y-142581380D01*
X154519285Y-142629000D01*
X154566904Y-142676619D01*
X154614523Y-142771857D01*
X154614523Y-142867095D01*
X154566904Y-143009952D01*
X153995476Y-143581380D01*
X154614523Y-143581380D01*
X155090714Y-143581380D02*
X155281190Y-143581380D01*
X155376428Y-143533761D01*
X155424047Y-143486142D01*
X155519285Y-143343285D01*
X155566904Y-143152809D01*
X155566904Y-142771857D01*
X155519285Y-142676619D01*
X155471666Y-142629000D01*
X155376428Y-142581380D01*
X155185952Y-142581380D01*
X155090714Y-142629000D01*
X155043095Y-142676619D01*
X154995476Y-142771857D01*
X154995476Y-143009952D01*
X155043095Y-143105190D01*
X155090714Y-143152809D01*
X155185952Y-143200428D01*
X155376428Y-143200428D01*
X155471666Y-143152809D01*
X155519285Y-143105190D01*
X155566904Y-143009952D01*
%TD*%
M02*
